<?xml version="1.0" encoding="utf-8"?>
<!-- Generator: Adobe Illustrator 16.0.0, SVG Export Plug-In . SVG Version: 6.00 Build 0)  -->
<!DOCTYPE svg PUBLIC "-//W3C//DTD SVG 1.1//EN" "http://www.w3.org/Graphics/SVG/1.1/DTD/svg11.dtd">
<svg version="1.1" id="Layer_1" xmlns="http://www.w3.org/2000/svg" xmlns:xlink="http://www.w3.org/1999/xlink" x="0px" y="0px"
	 width="149.374px" height="46.45px" viewBox="0 0 149.374 46.45" enable-background="new 0 0 149.374 46.45" xml:space="preserve">
<path fill="#808184" d="M315.803,2.491c-27.805,29.292,38,97.69,84.872,97.69c46.874,0,111.023-65.786,84.874-97.69
	c-26.149-31.904-38-97.689-84.874-97.689C353.803-95.198,343.608-26.8,315.803,2.491z"/>
<path fill="#B5B5AA" d="M-70.868-185.527c-18.615,8.665,34.264,53.066,76.532,53.066c42.269,0,97.216-48.194,76.53-53.066
	c-20.682-4.872-34.262-53.065-76.53-53.065C-36.604-238.592-52.251-194.192-70.868-185.527z"/>
<ellipse fill="#231F20" cx="-205.902" cy="-188.675" rx="13.444" ry="9.604"/>
<path fill="#808184" d="M62.403-201.834c0,0,21.844-32.734,16.026-38.911s-49.397,15.493-49.397,15.493L62.403-201.834z"/>
<path fill="#808184" d="M-21.548-225.366c0,0-39.52-13.085-50.159-10.989c-10.64,2.095,21.727,38.13,21.727,38.13L-21.548-225.366z"
	/>
<polygon fill="#231F20" points="-220.728,-195.98 -219.475,-200.254 -273.192,-211.572 -274.445,-207.298 "/>
<g>
	<path fill="#231F20" d="M71.507-198.586c0,8.726-13.47,15.8-30.084,15.8c-16.615,0-30.084-7.074-30.084-15.8
		c0-8.727,0-31.601,30.084-15.801C71.507-198.586,71.507-207.313,71.507-198.586z"/>
	<path fill="#231F20" d="M-62.17-198.587c0,8.727,14.453,15.801,32.282,15.801s32.28-7.074,32.28-15.801c0-8.726,0-31.6-32.28-15.8
		C-62.17-198.587-62.17-207.313-62.17-198.587z"/>
	<ellipse fill="#EFEC83" cx="35.214" cy="-201.3" rx="9.522" ry="8.076"/>
	<ellipse fill="#EFEC83" cx="-20.366" cy="-201.3" rx="9.522" ry="8.076"/>
	<ellipse fill="#231F20" cx="35.212" cy="-201.3" rx="6.21" ry="4.688"/>
	<ellipse fill="#231F20" cx="-20.366" cy="-201.3" rx="6.209" ry="4.688"/>
</g>
<path fill="#231F20" d="M3.176,43.614c-7.325-6.885-1.548-21.434,12.904-32.49C30.532,0.065,48.187-3.319,55.511,3.567
	c7.326,6.885,26.528,24.936-12.904,32.492C3.176,43.614,10.5,50.5,3.176,43.614z"/>
<path fill="#231F20" d="M146.819,40.486c6.577-7.143,0.017-20.813-14.654-30.535C117.491,0.226,100.26-1.867,93.682,5.273
	c-6.581,7.143-23.827,25.862,14.654,30.536C146.819,40.486,140.238,47.626,146.819,40.486z"/>
<ellipse fill="#FFFFFF" cx="401.393" cy="2.751" rx="37.718" ry="48.743"/>
<g>
	<path fill="#231F20" d="M-327.742-4.195c6.832,4.604,6.598,14.529-0.526,22.169c-7.124,7.642-18.438,10.104-25.271,5.503
		c-6.831-4.604-6.597-14.527,0.527-22.169C-345.888-6.333-334.576-8.796-327.742-4.195z"/>
	<polygon fill="#231F20" points="-362.754,-11.921 -347.643,-7.726 -357.188,1.735 	"/>
	<polygon fill="#231F20" points="-337.816,-22.238 -331.295,-9.917 -345.951,-9.55 	"/>
	<polygon fill="#231F20" points="-375.233,8.106 -359.962,4.354 -361.599,16.738 	"/>
</g>
<g>
	<path fill="#231F20" d="M-217.687-48.57c-6.406,5.023-17.938,3.309-25.751-3.83c-7.815-7.138-8.955-16.998-2.549-22.02
		c6.408-5.023,17.937-3.309,25.752,3.83C-212.419-63.451-211.281-53.593-217.687-48.57z"/>
	<polygon fill="#231F20" points="-203.332,-76.731 -210.528,-64.708 -220.092,-74.154 	"/>
	<polygon fill="#231F20" points="-195.119,-54.255 -210.475,-50.673 -208.662,-63.012 	"/>
	<polygon fill="#231F20" points="-224.758,-90.253 -222.72,-76.881 -236.902,-80.146 	"/>
</g>
<polygon fill="#231F20" points="-225.785,-189.082 -225.854,-193.485 -261.455,-193.079 -261.383,-188.675 "/>
<polygon fill="#231F20" points="-133.474,-207.648 -134.803,-211.905 -188.316,-199.905 -186.989,-195.647 "/>
<polygon fill="#231F20" points="-150.349,-189.082 -150.419,-193.485 -186.019,-193.079 -185.948,-188.675 "/>
<path fill="#FFFFFF" stroke="#000000" stroke-width="0.5247" d="M-130.154-21.907"/>
</svg>
