<?xml version="1.0" encoding="utf-8"?>
<!-- Generator: Adobe Illustrator 16.0.0, SVG Export Plug-In . SVG Version: 6.00 Build 0)  -->
<!DOCTYPE svg PUBLIC "-//W3C//DTD SVG 1.1//EN" "http://www.w3.org/Graphics/SVG/1.1/DTD/svg11.dtd">
<svg version="1.1" id="Layer_1" xmlns="http://www.w3.org/2000/svg" xmlns:xlink="http://www.w3.org/1999/xlink" x="0px" y="0px"
	 width="52.465px" height="48.033px" viewBox="0 0 52.465 48.033" enable-background="new 0 0 52.465 48.033" xml:space="preserve">
<path fill="#808184" d="M268.036,8.729c-27.805,29.292,38,97.69,84.872,97.69c46.874,0,111.023-65.786,84.874-97.69
	c-26.149-31.904-38-97.689-84.874-97.689C306.036-88.96,295.841-20.562,268.036,8.729z"/>
<path fill="#B5B5AA" d="M-118.635-179.289c-18.615,8.665,34.264,53.066,76.532,53.066c42.269,0,97.216-48.194,76.53-53.066
	c-20.682-4.872-34.262-53.065-76.53-53.065C-84.371-232.354-100.019-187.954-118.635-179.289z"/>
<ellipse fill="#231F20" cx="-253.669" cy="-182.437" rx="13.444" ry="9.604"/>
<path fill="#808184" d="M14.636-195.596c0,0,21.844-32.734,16.026-38.911s-49.397,15.493-49.397,15.493L14.636-195.596z"/>
<path fill="#808184" d="M-69.315-219.127c0,0-39.52-13.085-50.159-10.989c-10.64,2.095,21.727,38.13,21.727,38.13L-69.315-219.127z"
	/>
<polygon fill="#231F20" points="-268.495,-189.742 -267.242,-194.016 -320.959,-205.334 -322.212,-201.06 "/>
<g>
	<path fill="#231F20" d="M23.74-192.348c0,8.726-13.47,15.8-30.084,15.8c-16.615,0-30.084-7.074-30.084-15.8
		c0-8.727,0-31.601,30.084-15.801C23.74-192.348,23.74-201.075,23.74-192.348z"/>
	<path fill="#231F20" d="M-109.937-192.349c0,8.727,14.453,15.801,32.282,15.801s32.28-7.074,32.28-15.801
		c0-8.726,0-31.6-32.28-15.8C-109.937-192.349-109.937-201.075-109.937-192.349z"/>
	<ellipse fill="#EFEC83" cx="-12.553" cy="-195.062" rx="9.522" ry="8.076"/>
	<ellipse fill="#EFEC83" cx="-68.133" cy="-195.062" rx="9.522" ry="8.076"/>
	<ellipse fill="#231F20" cx="-12.555" cy="-195.062" rx="6.21" ry="4.688"/>
	<ellipse fill="#231F20" cx="-68.134" cy="-195.062" rx="6.209" ry="4.688"/>
</g>
<path fill="#231F20" d="M-346.591,140.852c-7.325-6.885-1.548-21.434,12.904-32.49c14.452-11.059,32.107-14.442,39.431-7.557
	c7.326,6.885,26.528,24.936-12.904,32.492C-346.591,140.852-339.267,147.738-346.591,140.852z"/>
<path fill="#231F20" d="M-202.948,137.724c6.577-7.143,0.017-20.813-14.654-30.535c-14.674-9.725-31.904-11.817-38.482-4.678
	c-6.581,7.143-23.827,25.862,14.654,30.536C-202.948,137.724-209.529,144.865-202.948,137.724z"/>
<ellipse fill="#FFFFFF" cx="353.626" cy="8.99" rx="37.718" ry="48.743"/>
<g>
	<path fill="#231F20" d="M47.491,18.043c6.832,4.604,6.598,14.529-0.526,22.169c-7.124,7.642-18.438,10.104-25.271,5.503
		c-6.831-4.604-6.597-14.527,0.527-22.169C29.345,15.906,40.657,13.442,47.491,18.043z"/>
	<polygon fill="#231F20" points="12.479,10.317 27.59,14.513 18.045,23.973 	"/>
	<polygon fill="#231F20" points="37.417,0 43.938,12.322 29.282,12.688 	"/>
	<polygon fill="#231F20" points="0,30.344 15.271,26.592 13.634,38.976 	"/>
</g>
<g>
	<path fill="#231F20" d="M-195.454-9.331c-6.406,5.023-17.938,3.308-25.751-3.83c-7.815-7.138-8.955-16.998-2.549-22.021
		c6.408-5.023,17.937-3.309,25.752,3.83C-190.187-24.212-189.048-14.354-195.454-9.331z"/>
	<polygon fill="#231F20" points="-181.099,-37.493 -188.295,-25.47 -197.859,-34.916 	"/>
	<polygon fill="#231F20" points="-172.886,-15.017 -188.242,-11.435 -186.429,-23.774 	"/>
	<polygon fill="#231F20" points="-202.525,-51.015 -200.487,-37.643 -214.669,-40.907 	"/>
</g>
<polygon fill="#231F20" points="-273.552,-182.844 -273.622,-187.247 -309.222,-186.841 -309.15,-182.437 "/>
<polygon fill="#231F20" points="-181.241,-201.41 -182.57,-205.667 -236.083,-193.667 -234.756,-189.409 "/>
<polygon fill="#231F20" points="-198.116,-182.844 -198.187,-187.247 -233.786,-186.841 -233.715,-182.437 "/>
<path fill="#FFFFFF" stroke="#000000" stroke-width="0.5247" d="M-177.921-15.668"/>
</svg>
