<?xml version="1.0" encoding="utf-8"?>
<!-- Generator: Adobe Illustrator 16.0.0, SVG Export Plug-In . SVG Version: 6.00 Build 0)  -->
<!DOCTYPE svg PUBLIC "-//W3C//DTD SVG 1.1//EN" "http://www.w3.org/Graphics/SVG/1.1/DTD/svg11.dtd">
<svg version="1.1" id="Layer_1" xmlns="http://www.w3.org/2000/svg" xmlns:xlink="http://www.w3.org/1999/xlink" x="0px" y="0px"
	 width="55.016px" height="44.564px" viewBox="0 0 55.016 44.564" enable-background="new 0 0 55.016 44.564" xml:space="preserve">
<path fill="#808184" d="M264.938,10.744c-27.805,29.292,38,97.69,84.872,97.69c46.874,0,111.023-65.786,84.874-97.69
	c-26.149-31.904-38-97.689-84.874-97.689C302.938-86.945,292.743-18.547,264.938,10.744z"/>
<path fill="#B5B5AA" d="M-121.733-177.274c-18.615,8.665,34.264,53.066,76.532,53.066c42.269,0,97.216-48.194,76.53-53.066
	c-20.682-4.872-34.262-53.065-76.53-53.065C-87.469-230.339-103.117-185.939-121.733-177.274z"/>
<ellipse fill="#231F20" cx="-256.767" cy="-180.422" rx="13.444" ry="9.604"/>
<path fill="#808184" d="M11.538-193.581c0,0,21.844-32.734,16.026-38.911s-49.397,15.493-49.397,15.493L11.538-193.581z"/>
<path fill="#808184" d="M-72.413-217.113c0,0-39.52-13.085-50.159-10.989c-10.64,2.095,21.727,38.13,21.727,38.13L-72.413-217.113z"
	/>
<polygon fill="#231F20" points="-271.593,-187.728 -270.34,-192.001 -324.058,-203.319 -325.311,-199.045 "/>
<g>
	<path fill="#231F20" d="M20.642-190.333c0,8.726-13.47,15.8-30.084,15.8c-16.615,0-30.084-7.074-30.084-15.8
		c0-8.727,0-31.601,30.084-15.801C20.642-190.333,20.642-199.06,20.642-190.333z"/>
	<path fill="#231F20" d="M-113.035-190.334c0,8.727,14.453,15.801,32.282,15.801s32.28-7.074,32.28-15.801
		c0-8.726,0-31.6-32.28-15.8C-113.035-190.334-113.035-199.06-113.035-190.334z"/>
	<ellipse fill="#EFEC83" cx="-15.651" cy="-193.047" rx="9.522" ry="8.076"/>
	<ellipse fill="#EFEC83" cx="-71.231" cy="-193.047" rx="9.522" ry="8.076"/>
	<ellipse fill="#231F20" cx="-15.653" cy="-193.047" rx="6.21" ry="4.688"/>
	<ellipse fill="#231F20" cx="-71.232" cy="-193.047" rx="6.209" ry="4.688"/>
</g>
<path fill="#231F20" d="M-349.689,142.867c-7.325-6.885-1.548-21.434,12.904-32.49c14.452-11.059,32.107-14.442,39.431-7.557
	c7.326,6.885,26.528,24.936-12.904,32.492C-349.689,142.867-342.365,149.752-349.689,142.867z"/>
<path fill="#231F20" d="M-206.046,139.739c6.577-7.143,0.017-20.813-14.654-30.535c-14.674-9.725-31.904-11.817-38.482-4.678
	c-6.581,7.143-23.827,25.862,14.654,30.536C-206.046,139.739-212.627,146.879-206.046,139.739z"/>
<ellipse fill="#FFFFFF" cx="350.528" cy="11.004" rx="37.718" ry="48.743"/>
<g>
	<path fill="#231F20" d="M-378.607,4.058c6.832,4.604,6.598,14.529-0.526,22.169c-7.124,7.642-18.438,10.104-25.271,5.503
		c-6.831-4.604-6.597-14.527,0.527-22.169C-396.753,1.92-385.441-0.543-378.607,4.058z"/>
	<polygon fill="#231F20" points="-413.619,-3.668 -398.508,0.527 -408.053,9.988 	"/>
	<polygon fill="#231F20" points="-388.681,-13.985 -382.161,-1.664 -396.816,-1.297 	"/>
	<polygon fill="#231F20" points="-426.098,16.359 -410.828,12.607 -412.464,24.991 	"/>
</g>
<g>
	<path fill="#231F20" d="M32.448,41.683c-6.406,5.023-17.938,3.309-25.751-3.83c-7.815-7.138-8.955-16.998-2.549-22.02
		c6.408-5.023,17.937-3.309,25.752,3.83C37.715,26.802,38.854,36.66,32.448,41.683z"/>
	<polygon fill="#231F20" points="46.803,13.522 39.607,25.544 30.042,16.099 	"/>
	<polygon fill="#231F20" points="55.016,35.998 39.66,39.58 41.473,27.241 	"/>
	<polygon fill="#231F20" points="25.376,0 27.415,13.372 13.233,10.107 	"/>
</g>
<polygon fill="#231F20" points="-276.65,-180.829 -276.72,-185.232 -312.32,-184.826 -312.249,-180.422 "/>
<polygon fill="#231F20" points="-184.339,-199.395 -185.668,-203.652 -239.181,-191.652 -237.854,-187.395 "/>
<polygon fill="#231F20" points="-201.214,-180.829 -201.285,-185.232 -236.884,-184.826 -236.813,-180.422 "/>
<path fill="#FFFFFF" stroke="#000000" stroke-width="0.5247" d="M-181.019-13.654"/>
</svg>
