<?xml version="1.0" encoding="utf-8"?>
<!-- Generator: Adobe Illustrator 16.0.0, SVG Export Plug-In . SVG Version: 6.00 Build 0)  -->
<!DOCTYPE svg PUBLIC "-//W3C//DTD SVG 1.1//EN" "http://www.w3.org/Graphics/SVG/1.1/DTD/svg11.dtd">
<svg version="1.1" id="Layer_1" xmlns="http://www.w3.org/2000/svg" xmlns:xlink="http://www.w3.org/1999/xlink" x="0px" y="0px"
	 width="242.025px" height="79.502px" viewBox="0 0 242.025 79.502" enable-background="new 0 0 242.025 79.502"
	 xml:space="preserve">
<pattern  x="28.75" y="40.089" width="132.126" height="130.077" patternUnits="userSpaceOnUse" id="New_Pattern_Swatch_1" viewBox="0 -130.077 132.126 130.077" overflow="visible">
	<g>
		<polygon fill="none" points="0,0 132.126,0 132.126,-130.077 0,-130.077 		"/>
		<polygon fill="#98BFE5" points="0,-0.129 0.125,-128.813 132.125,-128.685 132,0 		"/>
		<polygon fill="#CDD7E3" points="0.07,-72.077 0.102,-105.458 132.102,-105.331 132.069,-71.948 		"/>
		<polygon fill="#6E95C8" points="0.082,-84.964 0.126,-130.077 132.126,-129.949 132.082,-84.837 		"/>
	</g>
</pattern>
<pattern  x="28.75" y="40.089" width="82.553" height="75.857" patternUnits="userSpaceOnUse" id="New_Pattern_Swatch_2" viewBox="0 -75.857 82.553 75.857" overflow="visible">
	<g>
		<polygon fill="none" points="0,0 82.553,0 82.553,-75.857 0,-75.857 		"/>
		<polygon fill="#2E3191" points="82.553,0 0,0 0,-75.857 82.553,-75.857 		"/>
		<g>
			<path fill="#6E95C8" d="M34.49-57.382c0,0,14.005-4.013,15.127,0.503c0,0-1.272,7.674-15.193,2.379L34.49-57.382z"/>
			<path fill="#6E95C8" d="M29.57-61.177c0,0,0.968-12.829,7.096-10.905c6.129,1.925-1.13,11.034-4.192,11.546
				c-3.065,0.513-0.484,0.642-0.484,0.642L29.57-61.177z"/>
			<path fill="#6E95C8" d="M32.957-59.765c0,0,9.354-8.21,12.739-6.543c3.388,1.668,5.161,4.491-3.708,7.185
				c-8.87,2.695-7.741,1.412-7.741,1.412L32.957-59.765z"/>
			<path fill="#6E95C8" d="M33.824-54.152c0,0,18.545,4.105,10.644,9.494c0,0-6.612,2.438-13.063-7.569L33.824-54.152z"/>
			<g>
				<path fill="#6E95C8" d="M22.092-58.659c0,0-15.804-3.977-10.32-8.467c5.482-4.49,12.417,6.8,12.417,6.8L22.092-58.659z"/>
				<path fill="#6E95C8" d="M25.156-60.503c0,0-9.354-12.316-1.613-11.675c7.741,0.642,5.482,10.392,4.838,10.905
					C27.736-60.759,25.156-60.503,25.156-60.503z"/>
				<path fill="#6E95C8" d="M31.209-51.82c0,0,10.033,9.324,2.574,12.339c-7.459,3.015-5.815-11.213-5.815-11.213L31.209-51.82z"/>
				<path fill="#6E95C8" d="M24.027-52.196c0,0-11.934,9.494-5.161,11.162c0,0,7.257,3.336,8.225-10.135L24.027-52.196z"/>
				<path fill="#6E95C8" d="M21.145-55.432c0,0-17.577,1.667-11.772,8.209c0,0,5.644,2.31,13.062-5.645L21.145-55.432z"/>
				<path fill="#6E95C8" d="M21.174-58.489c0,0-13.37-5.28-14.193-0.175c0,0-2.648,6.367,13.648,2.725L21.174-58.489z"/>
			</g>
		</g>
		<path fill="#CDD7E3" d="M35.184-56.366c0,3.272-3.291,5.926-7.35,5.926s-7.348-2.653-7.348-5.926c0-3.273,3.289-5.927,7.348-5.927
			S35.184-59.639,35.184-56.366z"/>
		<g>
			<g>
				<path fill="#6E95C8" d="M62.011-23.032c0,0,14.005-4.013,15.127,0.503c0,0-1.272,7.674-15.193,2.379L62.011-23.032z"/>
				<path fill="#6E95C8" d="M57.091-26.827c0,0,0.968-12.829,7.096-10.905c6.129,1.925-1.13,11.034-4.192,11.546
					c-3.065,0.513-0.484,0.642-0.484,0.642L57.091-26.827z"/>
				<path fill="#6E95C8" d="M60.478-25.415c0,0,9.354-8.21,12.739-6.543c3.388,1.668,5.161,4.491-3.708,7.185
					c-8.87,2.695-7.741,1.412-7.741,1.412L60.478-25.415z"/>
				<path fill="#6E95C8" d="M61.345-19.802c0,0,18.545,4.105,10.644,9.494c0,0-6.612,2.438-13.063-7.569L61.345-19.802z"/>
				<g>
					<path fill="#6E95C8" d="M49.612-24.309c0,0-15.804-3.977-10.32-8.467c5.482-4.49,12.417,6.8,12.417,6.8L49.612-24.309z"/>
					<path fill="#6E95C8" d="M52.677-26.153c0,0-9.354-12.316-1.613-11.675c7.741,0.642,5.482,10.392,4.838,10.905
						C55.257-26.409,52.677-26.153,52.677-26.153z"/>
					<path fill="#6E95C8" d="M58.729-17.47c0,0,10.033,9.324,2.574,12.339c-7.459,3.015-5.815-11.213-5.815-11.213L58.729-17.47z"/>
					<path fill="#6E95C8" d="M51.548-17.846c0,0-11.934,9.494-5.161,11.162c0,0,7.257,3.336,8.225-10.135L51.548-17.846z"/>
					<path fill="#6E95C8" d="M48.665-21.082c0,0-17.577,1.667-11.772,8.209c0,0,5.644,2.31,13.062-5.645L48.665-21.082z"/>
					<path fill="#6E95C8" d="M48.694-24.139c0,0-13.37-5.28-14.193-0.175c0,0-2.648,6.367,13.648,2.725L48.694-24.139z"/>
				</g>
			</g>
			<path fill="#CDD7E3" d="M62.704-22.016c0,3.272-3.291,5.926-7.35,5.926s-7.348-2.653-7.348-5.926
				c0-3.273,3.289-5.927,7.348-5.927S62.704-25.289,62.704-22.016z"/>
		</g>
	</g>
</pattern>
<pattern  id="SVGID_1_" xlink:href="#New_Pattern_Swatch_1" patternTransform="matrix(0.5317 0.2849 -0.428 0.6636 -6912.668 -542.7461)">
</pattern>
<path fill="url(#SVGID_1_)" d="M603.66,264.007c0,0-13.572-48.548,16.908-102.788c3.423-6.093,14.027-23.104,18.967-30.99
	c11.335-18.103,38.166-53.181,91.811-87.604c0,0,17.482,48.811-24.41,127.423C706.935,170.047,660.895,251.838,603.66,264.007z"/>
<path fill="#6E95C8" d="M380.96,174.304c-45.053,50.135,61.567,167.21,137.515,167.21c75.95,0,179.887-112.607,137.519-167.21
	C613.625,119.69,594.425,7.091,518.475,7.091C442.528,7.091,426.009,124.164,380.96,174.304z"/>
<path fill="#CDD7E3" d="M400.937-39.687c-30.164,14.832,55.516,90.833,124.005,90.833c68.481,0,157.514-82.495,124-90.833
	c-33.514-8.34-55.519-90.83-124-90.83C456.453-130.517,431.101-54.518,400.937-39.687z"/>
<path fill="#231F20" d="M496.238,38.251c0,9.083,9.748,16.438,21.783,16.438c12.028,0,21.782-7.355,21.782-16.438
	c0-9.077-9.754-16.437-21.782-16.437C505.986,21.814,496.238,29.174,496.238,38.251z"/>
<path fill="#2E3191" d="M620.113-60.75c0,0,35.393-56.033,25.97-66.606c-9.43-10.572-80.042,26.519-80.042,26.519L620.113-60.75z"/>
<path fill="#2E3191" d="M475.988-107.879c0,0-64.035-22.396-81.271-18.807C377.478-123.1,429.92-61.42,429.92-61.42L475.988-107.879
	z"/>
<path fill="#231F20" d="M630.002-44.924c0,14.936-21.826,27.043-48.743,27.043c-26.923,0-48.746-12.107-48.746-27.043
	c0-14.938,0-54.091,48.746-27.045C630.002-44.924,630.002-59.862,630.002-44.924z"/>
<path fill="#231F20" d="M413.407-44.926c0,14.938,23.419,27.045,52.307,27.045c28.889,0,52.308-12.107,52.308-27.045
	c0-14.936,0-54.089-52.308-27.043C413.407-44.926,413.407-59.862,413.407-44.926z"/>
<polygon fill="#231F20" points="493.999,25.746 496.027,18.432 408.988,-0.941 406.957,6.373 "/>
<path fill="#2E3191" d="M5.146,74.65c-11.869-11.785-2.51-36.688,20.908-55.611C49.472,0.111,78.08-5.679,89.946,6.106
	c11.869,11.785,42.98,42.677-20.911,55.61C5.146,74.65,17.015,86.434,5.146,74.65z"/>
<path fill="#2E3191" d="M237.883,69.298c10.659-12.224,0.033-35.626-23.737-52.269C190.37,0.386,162.451-3.199,151.792,9.025
	c-10.661,12.229-38.607,44.265,23.743,52.269C237.883,69.298,227.225,81.517,237.883,69.298z"/>
<pattern  id="SVGID_2_" xlink:href="#New_Pattern_Swatch_2" patternTransform="matrix(1.164 0 0 1.1257 1065.1177 1033.0498)">
</pattern>
<path fill="url(#SVGID_2_)" d="M439.986,187.324c0,52.079,34.686,94.296,77.472,94.296c42.794,0,77.477-42.217,77.477-94.296
	s-34.683-94.296-77.477-94.296C474.671,93.028,439.986,135.245,439.986,187.324z"/>
<g>
	<path fill="#2E3191" d="M451.678,77.083c11.073,7.88,10.688,24.869-0.853,37.943c-11.542,13.079-29.874,17.293-40.944,9.418
		c-11.07-7.88-10.691-24.864,0.851-37.943C422.278,73.422,440.606,69.206,451.678,77.083z"/>
	<polygon fill="#2E3191" points="394.95,63.857 419.435,71.039 403.967,87.233 	"/>
	<polygon fill="#2E3191" points="435.358,46.196 445.921,67.289 422.175,67.914 	"/>
	<polygon fill="#2E3191" points="374.729,98.134 399.472,91.714 396.824,112.91 	"/>
</g>
<g>
	<path fill="#2E3191" d="M629.277,120.367c-10.383,8.601-29.062,5.665-41.725-6.556c-12.662-12.219-14.509-29.095-4.127-37.689
		c10.383-8.598,29.057-5.665,41.725,6.554C637.812,94.896,639.659,111.772,629.277,120.367z"/>
	<polygon fill="#2E3191" points="652.538,72.166 640.877,92.741 625.377,76.574 	"/>
	<polygon fill="#2E3191" points="665.845,110.634 640.964,116.765 643.9,95.646 	"/>
	<polygon fill="#2E3191" points="617.817,49.018 621.121,71.905 598.146,66.322 	"/>
</g>
<polygon fill="#231F20" points="485.801,37.555 485.69,30.019 428.008,30.715 428.122,38.251 "/>
<polygon fill="#231F20" points="635.37,5.777 633.219,-1.513 546.513,19.03 548.661,26.317 "/>
<polygon fill="#231F20" points="608.03,37.555 607.917,30.019 550.234,30.715 550.351,38.251 "/>
<g>
	<ellipse fill="#FFFFFF" cx="475.986" cy="-47.667" rx="20.002" ry="17.11"/>
	<path fill="#190C0C" d="M485.63-44.692c0,5.356-4.075,9.702-9.102,9.702c-5.022,0-9.096-4.345-9.096-9.702
		c0-5.356,4.073-9.7,9.096-9.7C481.555-54.392,485.63-50.048,485.63-44.692z"/>
</g>
<g>
	<path fill="#FFFFFF" d="M589.275-47.667c0,9.45-8.958,17.11-20.007,17.11c-11.048,0-20.001-7.661-20.001-17.11
		c0-9.448,8.953-17.109,20.001-17.109C580.317-64.776,589.275-57.115,589.275-47.667z"/>
	<ellipse fill="#190C0C" cx="569.815" cy="-44.692" rx="9.099" ry="9.702"/>
</g>
</svg>
