<?xml version="1.0" encoding="utf-8"?>
<!-- Generator: Adobe Illustrator 16.0.0, SVG Export Plug-In . SVG Version: 6.00 Build 0)  -->
<!DOCTYPE svg PUBLIC "-//W3C//DTD SVG 1.1//EN" "http://www.w3.org/Graphics/SVG/1.1/DTD/svg11.dtd">
<svg version="1.1" id="Layer_1" xmlns="http://www.w3.org/2000/svg" xmlns:xlink="http://www.w3.org/1999/xlink" x="0px" y="0px"
	 width="134.315px" height="221.383px" viewBox="0 0 134.315 221.383" enable-background="new 0 0 134.315 221.383"
	 xml:space="preserve">
<pattern  x="-69.422" y="184.955" width="132.126" height="130.077" patternUnits="userSpaceOnUse" id="New_Pattern_Swatch_1" viewBox="0 -130.077 132.126 130.077" overflow="visible">
	<g>
		<polygon fill="none" points="0,0 132.126,0 132.126,-130.077 0,-130.077 		"/>
		<polygon fill="#98BFE5" points="0,-0.129 0.125,-128.813 132.125,-128.685 132,0 		"/>
		<polygon fill="#CDD7E3" points="0.07,-72.077 0.102,-105.458 132.102,-105.331 132.069,-71.948 		"/>
		<polygon fill="#6E95C8" points="0.082,-84.964 0.126,-130.077 132.126,-129.949 132.082,-84.837 		"/>
	</g>
</pattern>
<pattern  x="-69.422" y="184.955" width="82.553" height="75.857" patternUnits="userSpaceOnUse" id="New_Pattern_Swatch_2" viewBox="0 -75.857 82.553 75.857" overflow="visible">
	<g>
		<polygon fill="none" points="0,0 82.553,0 82.553,-75.857 0,-75.857 		"/>
		<polygon fill="#2E3191" points="82.553,0 0,0 0,-75.857 82.553,-75.857 		"/>
		<g>
			<path fill="#6E95C8" d="M34.49-57.382c0,0,14.005-4.013,15.127,0.503c0,0-1.272,7.674-15.193,2.379L34.49-57.382z"/>
			<path fill="#6E95C8" d="M29.57-61.177c0,0,0.968-12.829,7.096-10.905c6.129,1.925-1.13,11.034-4.192,11.546
				c-3.065,0.513-0.484,0.642-0.484,0.642L29.57-61.177z"/>
			<path fill="#6E95C8" d="M32.957-59.765c0,0,9.354-8.21,12.739-6.543c3.388,1.668,5.161,4.491-3.708,7.185
				c-8.87,2.695-7.741,1.412-7.741,1.412L32.957-59.765z"/>
			<path fill="#6E95C8" d="M33.824-54.152c0,0,18.545,4.105,10.644,9.494c0,0-6.612,2.438-13.063-7.569L33.824-54.152z"/>
			<g>
				<path fill="#6E95C8" d="M22.092-58.659c0,0-15.804-3.977-10.32-8.467c5.482-4.49,12.417,6.8,12.417,6.8L22.092-58.659z"/>
				<path fill="#6E95C8" d="M25.156-60.503c0,0-9.354-12.316-1.613-11.675c7.741,0.642,5.482,10.392,4.838,10.905
					C27.736-60.759,25.156-60.503,25.156-60.503z"/>
				<path fill="#6E95C8" d="M31.209-51.82c0,0,10.033,9.324,2.574,12.339c-7.459,3.015-5.815-11.213-5.815-11.213L31.209-51.82z"/>
				<path fill="#6E95C8" d="M24.027-52.196c0,0-11.934,9.494-5.161,11.162c0,0,7.257,3.336,8.225-10.135L24.027-52.196z"/>
				<path fill="#6E95C8" d="M21.145-55.432c0,0-17.577,1.667-11.772,8.209c0,0,5.644,2.31,13.062-5.645L21.145-55.432z"/>
				<path fill="#6E95C8" d="M21.174-58.489c0,0-13.37-5.28-14.193-0.175c0,0-2.648,6.367,13.648,2.725L21.174-58.489z"/>
			</g>
		</g>
		<path fill="#CDD7E3" d="M35.184-56.366c0,3.272-3.291,5.926-7.35,5.926s-7.348-2.653-7.348-5.926c0-3.273,3.289-5.927,7.348-5.927
			S35.184-59.639,35.184-56.366z"/>
		<g>
			<g>
				<path fill="#6E95C8" d="M62.011-23.032c0,0,14.005-4.013,15.127,0.503c0,0-1.272,7.674-15.193,2.379L62.011-23.032z"/>
				<path fill="#6E95C8" d="M57.091-26.827c0,0,0.968-12.829,7.096-10.905c6.129,1.925-1.13,11.034-4.192,11.546
					c-3.065,0.513-0.484,0.642-0.484,0.642L57.091-26.827z"/>
				<path fill="#6E95C8" d="M60.478-25.415c0,0,9.354-8.21,12.739-6.543c3.388,1.668,5.161,4.491-3.708,7.185
					c-8.87,2.695-7.741,1.412-7.741,1.412L60.478-25.415z"/>
				<path fill="#6E95C8" d="M61.345-19.802c0,0,18.545,4.105,10.644,9.494c0,0-6.612,2.438-13.063-7.569L61.345-19.802z"/>
				<g>
					<path fill="#6E95C8" d="M49.612-24.309c0,0-15.804-3.977-10.32-8.467c5.482-4.49,12.417,6.8,12.417,6.8L49.612-24.309z"/>
					<path fill="#6E95C8" d="M52.677-26.153c0,0-9.354-12.316-1.613-11.675c7.741,0.642,5.482,10.392,4.838,10.905
						C55.257-26.409,52.677-26.153,52.677-26.153z"/>
					<path fill="#6E95C8" d="M58.729-17.47c0,0,10.033,9.324,2.574,12.339c-7.459,3.015-5.815-11.213-5.815-11.213L58.729-17.47z"/>
					<path fill="#6E95C8" d="M51.548-17.846c0,0-11.934,9.494-5.161,11.162c0,0,7.257,3.336,8.225-10.135L51.548-17.846z"/>
					<path fill="#6E95C8" d="M48.665-21.082c0,0-17.577,1.667-11.772,8.209c0,0,5.644,2.31,13.062-5.645L48.665-21.082z"/>
					<path fill="#6E95C8" d="M48.694-24.139c0,0-13.37-5.28-14.193-0.175c0,0-2.648,6.367,13.648,2.725L48.694-24.139z"/>
				</g>
			</g>
			<path fill="#CDD7E3" d="M62.704-22.016c0,3.272-3.291,5.926-7.35,5.926s-7.348-2.653-7.348-5.926
				c0-3.273,3.289-5.927,7.348-5.927S62.704-25.289,62.704-22.016z"/>
		</g>
	</g>
</pattern>
<pattern  id="SVGID_1_" xlink:href="#New_Pattern_Swatch_1" patternTransform="matrix(0.5317 0.2849 -0.428 0.6636 -6878.6494 -495.7026)">
</pattern>
<path fill="url(#SVGID_1_)" d="M3.012,221.383c0,0-13.572-48.549,16.908-102.789c3.423-6.092,14.027-23.104,18.967-30.99
	C50.222,69.502,77.053,34.424,130.697,0c0,0,17.482,48.811-24.41,127.422C106.287,127.422,60.247,209.213,3.012,221.383z"/>
<path fill="#6E95C8" d="M-515.171,325.169c-45.053,50.135,61.567,167.211,137.515,167.211c75.95,0,179.887-112.607,137.519-167.211
	c-42.369-54.613-61.568-167.213-137.519-167.213C-453.604,157.957-470.123,275.029-515.171,325.169z"/>
<path fill="#231F20" d="M14.085-178.366c0,9.083,9.748,16.438,21.783,16.438c12.028,0,21.782-7.355,21.782-16.438
	c0-9.077-9.754-16.437-21.782-16.437C23.833-194.803,14.085-187.443,14.085-178.366z"/>
<path fill="#231F20" d="M531.831,99.941c0,14.936-21.826,27.043-48.743,27.043c-26.923,0-48.746-12.107-48.746-27.043
	c0-14.938,0-54.091,48.746-27.045C531.831,99.941,531.831,85.003,531.831,99.941z"/>
<path fill="#231F20" d="M315.235,99.939c0,14.938,23.419,27.045,52.307,27.045c28.889,0,52.308-12.107,52.308-27.045
	c0-14.936,0-54.089-52.308-27.043C315.235,99.939,315.235,85.003,315.235,99.939z"/>
<polygon fill="#231F20" points="11.846,-190.872 13.874,-198.186 -73.165,-217.558 -75.196,-210.244 "/>
<path fill="#2E3191" d="M-674.997,240.514c-11.869-11.785-2.51-36.688,20.908-55.611c23.418-18.928,52.025-24.718,63.892-12.933
	c11.869,11.785,42.98,42.677-20.911,55.61C-674.997,240.514-663.127,252.298-674.997,240.514z"/>
<path fill="#2E3191" d="M-442.259,235.163c10.659-12.224,0.033-35.626-23.737-52.269c-23.776-16.644-51.695-20.229-62.354-8.005
	c-10.661,12.229-38.607,44.265,23.743,52.269C-442.259,235.163-452.917,247.381-442.259,235.163z"/>
<pattern  id="SVGID_2_" xlink:href="#New_Pattern_Swatch_2" patternTransform="matrix(1.164 0 0 1.1257 1019.8125 1039.4248)">
</pattern>
<path fill="url(#SVGID_2_)" d="M-456.146,338.189c0,52.08,34.686,94.297,77.472,94.297c42.794,0,77.477-42.217,77.477-94.297
	c0-52.078-34.683-94.295-77.477-94.295C-421.46,243.894-456.146,286.111-456.146,338.189z"/>
<g>
	<path fill="#2E3191" d="M-369.912,25.374c11.073,7.88,10.688,24.869-0.853,37.943c-11.542,13.079-29.874,17.293-40.944,9.418
		c-11.07-7.88-10.691-24.864,0.851-37.943C-399.312,21.712-380.984,17.496-369.912,25.374z"/>
	<polygon fill="#2E3191" points="-426.64,12.147 -402.155,19.329 -417.623,35.523 	"/>
	<polygon fill="#2E3191" points="-386.232,-5.514 -375.668,15.579 -399.415,16.204 	"/>
	<polygon fill="#2E3191" points="-446.861,46.424 -422.118,40.004 -424.766,61.2 	"/>
</g>
<g>
	<path fill="#2E3191" d="M156.123-57.252c-10.383,8.601-29.061,5.665-41.725-6.556c-12.662-12.219-14.508-29.095-4.127-37.689
		c10.383-8.598,29.057-5.665,41.725,6.554C164.658-82.723,166.506-65.847,156.123-57.252z"/>
	<polygon fill="#2E3191" points="179.385,-105.453 167.725,-84.878 152.225,-101.045 	"/>
	<polygon fill="#2E3191" points="192.691,-66.984 167.811,-60.854 170.746,-81.973 	"/>
	<polygon fill="#2E3191" points="144.664,-128.601 147.967,-105.713 124.992,-111.297 	"/>
</g>
<polygon fill="#231F20" points="3.648,-179.062 3.537,-186.598 -54.145,-185.902 -54.031,-178.366 "/>
<polygon fill="#231F20" points="153.217,-210.84 151.066,-218.13 64.36,-197.587 66.508,-190.3 "/>
<polygon fill="#231F20" points="125.877,-179.062 125.764,-186.598 68.081,-185.902 68.198,-178.366 "/>
<g>
	<ellipse fill="#FFFFFF" cx="377.815" cy="97.198" rx="20.002" ry="17.11"/>
	<path fill="#190C0C" d="M387.459,100.173c0,5.356-4.075,9.702-9.102,9.702c-5.022,0-9.096-4.345-9.096-9.702
		c0-5.356,4.073-9.7,9.096-9.7C383.384,90.473,387.459,94.817,387.459,100.173z"/>
</g>
<g>
	<path fill="#FFFFFF" d="M491.104,97.198c0,9.45-8.958,17.11-20.007,17.11c-11.048,0-20.001-7.661-20.001-17.11
		c0-9.448,8.953-17.109,20.001-17.109C482.146,80.089,491.104,87.75,491.104,97.198z"/>
	<ellipse fill="#190C0C" cx="471.644" cy="100.173" rx="9.099" ry="9.702"/>
</g>
<g>
	<path fill="#2E3191" d="M-147.025-73.377c0,0,35.393-56.033,25.97-66.606c-9.43-10.572-80.042,26.519-80.042,26.519
		L-147.025-73.377z"/>
	<path fill="#2E3191" d="M-295.65-120.506c0,0-64.035-22.396-81.271-18.807c-17.238,3.586,35.204,65.266,35.204,65.266
		L-295.65-120.506z"/>
	<path fill="#CDD7E3" d="M-366.2-47.813c-30.164,14.832,55.516,90.833,124.005,90.833c68.481,0,157.514-82.495,124-90.833
		c-33.514-8.34-55.519-90.83-124-90.83C-310.685-138.644-336.036-62.645-366.2-47.813z"/>
</g>
</svg>
