<?xml version="1.0" encoding="utf-8"?>
<!-- Generator: Adobe Illustrator 16.0.0, SVG Export Plug-In . SVG Version: 6.00 Build 0)  -->
<!DOCTYPE svg PUBLIC "-//W3C//DTD SVG 1.1//EN" "http://www.w3.org/Graphics/SVG/1.1/DTD/svg11.dtd">
<svg version="1.1" id="Layer_1" xmlns="http://www.w3.org/2000/svg" xmlns:xlink="http://www.w3.org/1999/xlink" x="0px" y="0px"
	 width="207.072px" height="304.492px" viewBox="0 0 207.072 304.492" enable-background="new 0 0 207.072 304.492"
	 xml:space="preserve">
<pattern  x="-56.075" y="-50.328" width="132.126" height="130.077" patternUnits="userSpaceOnUse" id="New_Pattern_Swatch_1" viewBox="0 -130.077 132.126 130.077" overflow="visible">
	<g>
		<polygon fill="none" points="0,0 132.126,0 132.126,-130.077 0,-130.077 		"/>
		<polygon fill="#98BFE5" points="0,-0.129 0.125,-128.813 132.125,-128.685 132,0 		"/>
		<polygon fill="#CDD7E3" points="0.07,-72.077 0.102,-105.458 132.102,-105.331 132.069,-71.948 		"/>
		<polygon fill="#6E95C8" points="0.082,-84.964 0.126,-130.077 132.126,-129.949 132.082,-84.837 		"/>
	</g>
</pattern>
<pattern  x="-56.075" y="-50.328" width="82.553" height="75.857" patternUnits="userSpaceOnUse" id="New_Pattern_Swatch_2" viewBox="0 -75.857 82.553 75.857" overflow="visible">
	<g>
		<polygon fill="none" points="0,0 82.553,0 82.553,-75.857 0,-75.857 		"/>
		<polygon fill="#2E3191" points="82.553,0 0,0 0,-75.857 82.553,-75.857 		"/>
		<g>
			<path fill="#6E95C8" d="M34.49-57.382c0,0,14.005-4.013,15.127,0.503c0,0-1.272,7.674-15.193,2.379L34.49-57.382z"/>
			<path fill="#6E95C8" d="M29.57-61.177c0,0,0.968-12.829,7.096-10.905c6.129,1.925-1.13,11.034-4.192,11.546
				c-3.065,0.513-0.484,0.642-0.484,0.642L29.57-61.177z"/>
			<path fill="#6E95C8" d="M32.957-59.765c0,0,9.354-8.21,12.739-6.543c3.388,1.668,5.161,4.491-3.708,7.185
				c-8.87,2.695-7.741,1.412-7.741,1.412L32.957-59.765z"/>
			<path fill="#6E95C8" d="M33.824-54.152c0,0,18.545,4.105,10.644,9.494c0,0-6.612,2.438-13.063-7.569L33.824-54.152z"/>
			<g>
				<path fill="#6E95C8" d="M22.092-58.659c0,0-15.804-3.977-10.32-8.467c5.482-4.49,12.417,6.8,12.417,6.8L22.092-58.659z"/>
				<path fill="#6E95C8" d="M25.156-60.503c0,0-9.354-12.316-1.613-11.675c7.741,0.642,5.482,10.392,4.838,10.905
					C27.736-60.759,25.156-60.503,25.156-60.503z"/>
				<path fill="#6E95C8" d="M31.209-51.82c0,0,10.033,9.324,2.574,12.339c-7.459,3.015-5.815-11.213-5.815-11.213L31.209-51.82z"/>
				<path fill="#6E95C8" d="M24.027-52.196c0,0-11.934,9.494-5.161,11.162c0,0,7.257,3.336,8.225-10.135L24.027-52.196z"/>
				<path fill="#6E95C8" d="M21.145-55.432c0,0-17.577,1.667-11.772,8.209c0,0,5.644,2.31,13.062-5.645L21.145-55.432z"/>
				<path fill="#6E95C8" d="M21.174-58.489c0,0-13.37-5.28-14.193-0.175c0,0-2.648,6.367,13.648,2.725L21.174-58.489z"/>
			</g>
		</g>
		<path fill="#CDD7E3" d="M35.184-56.366c0,3.272-3.291,5.926-7.35,5.926s-7.348-2.653-7.348-5.926c0-3.273,3.289-5.927,7.348-5.927
			S35.184-59.639,35.184-56.366z"/>
		<g>
			<g>
				<path fill="#6E95C8" d="M62.011-23.032c0,0,14.005-4.013,15.127,0.503c0,0-1.272,7.674-15.193,2.379L62.011-23.032z"/>
				<path fill="#6E95C8" d="M57.091-26.827c0,0,0.968-12.829,7.096-10.905c6.129,1.925-1.13,11.034-4.192,11.546
					c-3.065,0.513-0.484,0.642-0.484,0.642L57.091-26.827z"/>
				<path fill="#6E95C8" d="M60.478-25.415c0,0,9.354-8.21,12.739-6.543c3.388,1.668,5.161,4.491-3.708,7.185
					c-8.87,2.695-7.741,1.412-7.741,1.412L60.478-25.415z"/>
				<path fill="#6E95C8" d="M61.345-19.802c0,0,18.545,4.105,10.644,9.494c0,0-6.612,2.438-13.063-7.569L61.345-19.802z"/>
				<g>
					<path fill="#6E95C8" d="M49.612-24.309c0,0-15.804-3.977-10.32-8.467c5.482-4.49,12.417,6.8,12.417,6.8L49.612-24.309z"/>
					<path fill="#6E95C8" d="M52.677-26.153c0,0-9.354-12.316-1.613-11.675c7.741,0.642,5.482,10.392,4.838,10.905
						C55.257-26.409,52.677-26.153,52.677-26.153z"/>
					<path fill="#6E95C8" d="M58.729-17.47c0,0,10.033,9.324,2.574,12.339c-7.459,3.015-5.815-11.213-5.815-11.213L58.729-17.47z"/>
					<path fill="#6E95C8" d="M51.548-17.846c0,0-11.934,9.494-5.161,11.162c0,0,7.257,3.336,8.225-10.135L51.548-17.846z"/>
					<path fill="#6E95C8" d="M48.665-21.082c0,0-17.577,1.667-11.772,8.209c0,0,5.644,2.31,13.062-5.645L48.665-21.082z"/>
					<path fill="#6E95C8" d="M48.694-24.139c0,0-13.37-5.28-14.193-0.175c0,0-2.648,6.367,13.648,2.725L48.694-24.139z"/>
				</g>
			</g>
			<path fill="#CDD7E3" d="M62.704-22.016c0,3.272-3.291,5.926-7.35,5.926s-7.348-2.653-7.348-5.926
				c0-3.273,3.289-5.927,7.348-5.927S62.704-25.289,62.704-22.016z"/>
		</g>
	</g>
</pattern>
<ellipse fill="#231F20" cx="355.416" cy="108.025" rx="13.179" ry="9.944"/>
<path fill="#231F20" d="M462.338,10.532c0,9.036-13.204,16.361-29.49,16.361c-16.288,0-29.492-7.325-29.492-16.361
	c0-9.038,0-32.726,29.492-16.363C462.338,10.532,462.338,1.495,462.338,10.532z"/>
<path fill="#231F20" d="M331.296,10.531c0,9.038,14.168,16.362,31.646,16.362c17.477,0,31.645-7.325,31.645-16.362
	c0-9.036,0-32.724-31.645-16.362C331.296,10.531,331.296,1.495,331.296,10.531z"/>
<polygon fill="#231F20" points="332.882,107.459 334.11,103.034 281.45,91.313 280.223,95.739 "/>
<polygon fill="#231F20" points="327.924,114.604 327.855,110.044 292.958,110.465 293.028,115.025 "/>
<polygon fill="#231F20" points="432.415,91.377 431.112,86.968 378.655,99.396 379.956,103.805 "/>
<polygon fill="#231F20" points="411.925,114.672 411.854,110.112 376.959,110.534 377.028,115.094 "/>
<g>
	<ellipse fill="#FFFFFF" cx="369.157" cy="8.873" rx="12.102" ry="10.352"/>
	<ellipse fill="#190C0C" cx="369.486" cy="10.673" rx="5.505" ry="5.869"/>
</g>
<g>
	<ellipse fill="#FFFFFF" cx="425.595" cy="8.873" rx="12.102" ry="10.352"/>
	<ellipse fill="#190C0C" cx="425.925" cy="10.673" rx="5.505" ry="5.869"/>
</g>
<g>
	
		<pattern  id="SVGID_1_" xlink:href="#New_Pattern_Swatch_1" patternTransform="matrix(0.3764 0.1422 -0.1765 0.3748 -6067.1431 -3764.9785)">
	</pattern>
	<path fill="url(#SVGID_1_)" d="M148.902,252.653c0,0-15.449-26.251-3.865-56.767c1.302-3.431,5.594-13.03,7.598-17.477
		c4.603-10.22,16.593-30.146,45.619-50.409c0,0,17.959,26.29,2.62,70.464C200.874,198.465,183.355,244.489,148.902,252.653z"/>
	<path fill="#6E95C8" d="M6.493,182.336c-27.257,30.334,37.25,101.166,83.199,101.166c45.95,0,108.834-68.127,83.201-101.166
		C147.26,149.298,135.643,81.172,89.692,81.172C43.743,81.172,33.75,152.003,6.493,182.336z"/>
	<path fill="#2E3191" d="M149.492,43.195c0,0,24.928-31.405,19.944-38.377c-4.984-6.972-49.866,10.755-49.866,10.755L149.492,43.195
		z"/>
	<path fill="#2E3191" d="M63.986,11.614c0,0-38.742-13.55-49.17-11.379c-10.43,2.17,21.298,39.487,21.298,39.487L63.986,11.614z"/>
	<path fill="#2E3191" d="M19.602,301.555c-7.181-7.13-1.518-22.196,12.649-33.646c14.168-11.451,31.475-14.955,38.655-7.825
		c7.181,7.131,26.004,25.822-12.65,33.647C19.602,301.555,26.782,308.685,19.602,301.555z"/>
	<path fill="#2E3191" d="M160.413,298.315c6.448-7.395,0.017-21.553-14.365-31.621c-14.385-10.07-31.274-12.237-37.724-4.844
		c-6.451,7.397-23.357,26.782,14.365,31.623C160.413,298.315,153.962,305.71,160.413,298.315z"/>
	<pattern  id="SVGID_2_" xlink:href="#New_Pattern_Swatch_2" patternTransform="matrix(0.7043 0 0 0.6811 -2434.5337 -2452.9624)">
	</pattern>
	<ellipse fill="url(#SVGID_2_)" cx="89.078" cy="190.215" rx="46.874" ry="57.05"/>
	<g>
		<path fill="#2E3191" d="M46.569,118.345c6.698,4.767,6.467,15.045-0.517,22.957c-6.983,7.914-18.074,10.462-24.772,5.699
			c-6.697-4.767-6.468-15.044,0.516-22.958C28.779,116.13,39.87,113.58,46.569,118.345z"/>
		<polygon fill="#2E3191" points="12.248,110.344 27.06,114.688 17.703,124.484 		"/>
		<polygon fill="#2E3191" points="36.692,99.658 43.085,112.419 28.719,112.798 		"/>
		<polygon fill="#2E3191" points="0.014,131.083 14.983,127.197 13.379,140.021 		"/>
	</g>
	<g>
		<path fill="#2E3191" d="M154.761,144.03c-6.281,5.201-17.585,3.426-25.244-3.967c-7.661-7.393-8.779-17.602-2.498-22.803
			c6.282-5.202,17.583-3.427,25.244,3.966C159.924,128.618,161.04,138.828,154.761,144.03z"/>
		<polygon fill="#2E3191" points="168.833,114.866 161.777,127.316 152.401,117.534 		"/>
		<polygon fill="#2E3191" points="176.883,138.141 161.83,141.851 163.607,129.072 		"/>
		<polygon fill="#2E3191" points="147.827,100.863 149.825,114.71 135.924,111.33 		"/>
	</g>
	<path fill="#CDD7E3" d="M17.58,55.871c-18.249,8.974,33.588,54.956,75.023,54.956c41.436,0,95.3-49.91,75.022-54.956
		C147.35,50.826,134.038,0.918,92.603,0.918C51.168,0.918,35.829,46.898,17.58,55.871z"/>
</g>
</svg>
