<?xml version="1.0" encoding="utf-8"?>
<!-- Generator: Adobe Illustrator 16.0.0, SVG Export Plug-In . SVG Version: 6.00 Build 0)  -->
<!DOCTYPE svg PUBLIC "-//W3C//DTD SVG 1.1//EN" "http://www.w3.org/Graphics/SVG/1.1/DTD/svg11.dtd">
<svg version="1.1" id="Layer_1" xmlns="http://www.w3.org/2000/svg" xmlns:xlink="http://www.w3.org/1999/xlink" x="0px" y="0px"
	 width="245.798px" height="167.842px" viewBox="0 0 245.798 167.842" enable-background="new 0 0 245.798 167.842"
	 xml:space="preserve">
<pattern  x="33.263" y="39.33" width="82.553" height="75.857" patternUnits="userSpaceOnUse" id="sm_flows" viewBox="0 -75.857 82.553 75.857" overflow="visible">
	<g>
		<polygon fill="none" points="0,0 82.553,0 82.553,-75.857 0,-75.857 		"/>
		<polygon fill="#CA904F" points="82.553,0 0,0 0,-75.857 82.553,-75.857 		"/>
		<g>
			<path fill="#FFFFFF" stroke="#000000" d="M28.629-50.799"/>
			<g>
				<path fill="#B35537" d="M31.996-56.578c0,0,14.005-4.013,15.127,0.503c0,0-1.272,7.674-15.193,2.379L31.996-56.578z"/>
				<path fill="#B35537" d="M27.076-60.373c0,0,0.968-12.829,7.096-10.905c6.129,1.925-1.13,11.034-4.192,11.546
					c-3.065,0.513-0.484,0.642-0.484,0.642L27.076-60.373z"/>
				<path fill="#B35537" d="M30.463-58.961c0,0,9.354-8.21,12.739-6.543c3.388,1.668,5.161,4.491-3.708,7.185
					c-8.87,2.695-7.741,1.412-7.741,1.412L30.463-58.961z"/>
				<path fill="#B35537" d="M31.33-53.348c0,0,18.545,4.105,10.644,9.494c0,0-6.612,2.438-13.063-7.569L31.33-53.348z"/>
				<g>
					<path fill="#B35537" d="M19.598-57.855c0,0-15.804-3.977-10.32-8.467c5.482-4.49,12.417,6.8,12.417,6.8L19.598-57.855z"/>
					<path fill="#B35537" d="M22.662-59.699c0,0-9.354-12.316-1.613-11.675c7.741,0.642,5.482,10.392,4.838,10.905
						C25.242-59.956,22.662-59.699,22.662-59.699z"/>
					<path fill="#B35537" d="M28.715-51.016c0,0,10.033,9.324,2.574,12.339c-7.459,3.015-5.815-11.213-5.815-11.213L28.715-51.016z"
						/>
					<path fill="#B35537" d="M21.533-51.393c0,0-11.934,9.494-5.161,11.162c0,0,7.257,3.336,8.225-10.135L21.533-51.393z"/>
					<path fill="#B35537" d="M18.65-54.628c0,0-17.577,1.667-11.772,8.209c0,0,5.644,2.31,13.062-5.645L18.65-54.628z"/>
					<path fill="#B35537" d="M18.68-57.686c0,0-13.37-5.28-14.193-0.175c0,0-2.648,6.367,13.648,2.725L18.68-57.686z"/>
				</g>
			</g>
			<path fill="#D7D03D" d="M32.689-55.562c0,3.272-3.291,5.926-7.35,5.926s-7.348-2.653-7.348-5.926
				c0-3.273,3.289-5.927,7.348-5.927S32.689-58.835,32.689-55.562z"/>
			<path fill="#FFFFFF" stroke="#000000" d="M36.502-56.459"/>
		</g>
		<g>
			<path fill="#FFFFFF" stroke="#000000" d="M56.99-18.244"/>
			<g>
				<path fill="#B35537" d="M60.358-24.022c0,0,14.005-4.013,15.126,0.503c0,0-1.271,7.674-15.192,2.379L60.358-24.022z"/>
				<path fill="#B35537" d="M55.438-27.817c0,0,0.968-12.829,7.096-10.905c6.128,1.925-1.13,11.034-4.192,11.547
					c-3.065,0.513-0.484,0.641-0.484,0.641L55.438-27.817z"/>
				<path fill="#B35537" d="M58.825-26.406c0,0,9.353-8.21,12.739-6.543c3.387,1.668,5.16,4.491-3.708,7.185
					c-8.87,2.695-7.741,1.412-7.741,1.412L58.825-26.406z"/>
				<path fill="#B35537" d="M59.691-20.792c0,0,18.545,4.105,10.645,9.494c0,0-6.612,2.438-13.063-7.569L59.691-20.792z"/>
				<g>
					<path fill="#B35537" d="M47.96-25.3c0,0-15.804-3.977-10.321-8.467s12.418,6.8,12.418,6.8L47.96-25.3z"/>
					<path fill="#B35537" d="M51.023-27.144c0,0-9.354-12.316-1.612-11.674c7.74,0.642,5.481,10.392,4.837,10.905
						S51.023-27.144,51.023-27.144z"/>
					<path fill="#B35537" d="M57.077-18.46c0,0,10.033,9.324,2.573,12.339c-7.459,3.015-5.814-11.213-5.814-11.213L57.077-18.46z"/>
					<path fill="#B35537" d="M49.895-18.837c0,0-11.934,9.494-5.16,11.163c0,0,7.257,3.335,8.225-10.136L49.895-18.837z"/>
					<path fill="#B35537" d="M47.012-22.073c0,0-17.576,1.668-11.771,8.21c0,0,5.644,2.31,13.062-5.645L47.012-22.073z"/>
					<path fill="#B35537" d="M47.042-25.13c0,0-13.371-5.28-14.193-0.176c0,0-2.648,6.367,13.648,2.726L47.042-25.13z"/>
				</g>
			</g>
			<path fill="#D7D03D" d="M61.051-23.007c0,3.272-3.29,5.926-7.35,5.926c-4.058,0-7.348-2.653-7.348-5.926
				c0-3.273,3.29-5.927,7.348-5.927C57.761-28.934,61.051-26.28,61.051-23.007z"/>
			<path fill="#FFFFFF" stroke="#000000" d="M64.863-23.904"/>
		</g>
	</g>
</pattern>
<pattern  x="33.263" y="39.33" width="132.126" height="130.077" patternUnits="userSpaceOnUse" id="talbrwn" viewBox="0 -130.077 132.126 130.077" overflow="visible">
	<g>
		<polygon fill="none" points="0,0 132.126,0 132.126,-130.077 0,-130.077 		"/>
		<polygon fill="#593D16" points="0,-0.129 0.125,-128.813 132.125,-128.685 132,0 		"/>
		<polygon fill="#CA904F" points="0.07,-72.077 0.102,-105.458 132.102,-105.331 132.069,-71.948 		"/>
		<polygon fill="#845B24" points="0.082,-84.964 0.126,-130.077 132.126,-129.949 132.082,-84.837 		"/>
	</g>
</pattern>
<pattern  id="SVGID_1_" xlink:href="#talbrwn" patternTransform="matrix(0.4574 -0.547 0.5674 0.4223 60.833 -9235.0928)">
</pattern>
<path fill="url(#SVGID_1_)" d="M-315.079,387.293c0,0-54.922,14.789-102.637-15.141c-5.363-3.367-20.02-13.818-26.804-18.686
	c-15.583-11.174-44.319-37.783-64.354-91.693c0,0,56.358-18.779,126.209,22.273C-382.665,284.047-310.726,329.27-315.079,387.293z"
	/>
<path fill="#845B24" d="M-341.471,308.377c-50.288,54.984,68.724,183.373,153.501,183.373c84.775,0,200.794-123.486,153.5-183.373
	c-47.294-59.885-68.725-183.369-153.5-183.369C-272.747,125.008-291.183,253.398-341.471,308.377z"/>
<ellipse fill="#593D16" cx="-188.482" cy="159.182" rx="24.315" ry="18.025"/>
<path fill="#845B24" d="M212.46,68.95c0,0,36.261-56.399,26.603-67.041c-9.655-10.643-81.999,26.692-81.999,26.692L212.46,68.95z"/>
<path fill="#845B24" d="M86.828,28.857c0,0-65.602-22.543-83.264-18.932C-14.099,13.534,39.63,75.618,39.63,75.618L86.828,28.857z"
	/>
<path fill="#593D16" d="M-63.483,67.966c0,16.38-24.36,29.657-54.408,29.657c-30.051,0-54.412-13.277-54.412-29.657
	s0-59.318,54.412-29.658C-63.483,67.966-63.483,51.586-63.483,67.966z"/>
<path fill="#593D16" d="M-305.25,67.966c0,16.378,26.141,29.657,58.385,29.657s58.381-13.279,58.381-29.657
	c0-16.38,0-59.318-58.381-29.661C-305.25,67.966-305.25,51.586-305.25,67.966z"/>
<polygon fill="#593D16" points="-215.294,145.469 -213.029,137.445 -310.186,116.199 -312.449,124.225 "/>
<path fill="#CA904F" d="M-317.287,524.473c-13.247-12.926-2.796-40.232,23.34-60.986c26.141-20.758,58.07-27.109,71.316-14.188
	c13.249,12.928,47.976,46.807-23.34,60.988C-317.287,524.473-304.039,537.396-317.287,524.473z"/>
<path fill="#CA904F" d="M-57.497,518.598c11.897-13.404,0.033-39.066-26.501-57.316c-26.538-18.252-57.701-22.18-69.597-8.777
	c-11.902,13.406-43.094,48.545,26.501,57.32C-57.497,518.598-69.396,532.002-57.497,518.598z"/>
<pattern  id="SVGID_2_" xlink:href="#sm_flows" patternTransform="matrix(1.0139 0 0 1.1192 -82.8149 896.2437)">
</pattern>
<path fill="url(#SVGID_2_)" d="M-258.563,319.428c0,53.832,32.072,97.473,71.636,97.473c39.568,0,71.641-43.641,71.641-97.473
	c0-53.834-32.072-97.474-71.641-97.474C-226.491,221.954-258.563,265.594-258.563,319.428z"/>
<g>
	<path fill="#CA904F" d="M-284.582,200.1c12.358,8.639,11.931,27.268-0.951,41.611c-12.884,14.346-33.346,18.965-45.703,10.328
		c-12.357-8.641-11.933-27.27,0.949-41.613C-317.403,196.082-296.938,191.459-284.582,200.1z"/>
	<polygon fill="#CA904F" points="-347.901,185.595 -320.573,193.471 -337.837,211.225 	"/>
	<polygon fill="#CA904F" points="-302.804,166.225 -291.011,189.357 -317.517,190.046 	"/>
	<polygon fill="#CA904F" points="-370.475,223.187 -342.856,216.141 -345.815,239.389 	"/>
</g>
<g>
	<path fill="#CA904F" d="M-43.94,242.566c-11.587,9.43-32.439,6.211-46.572-7.191c-14.136-13.396-16.197-31.903-4.609-41.332
		c11.589-9.428,32.44-6.209,46.574,7.19C-34.413,214.635-32.353,233.138-43.94,242.566z"/>
	<polygon fill="#CA904F" points="-17.976,189.705 -30.995,212.273 -48.29,194.541 	"/>
	<polygon fill="#CA904F" points="-3.124,231.896 -30.896,238.619 -27.617,215.457 	"/>
	<polygon fill="#CA904F" points="-56.731,164.323 -53.045,189.424 -78.692,183.295 	"/>
</g>
<polygon fill="#593D16" points="-224.444,158.418 -224.57,150.15 -288.954,150.916 -288.826,159.184 "/>
<polygon fill="#593D16" points="-57.492,123.568 -59.894,115.576 -156.675,138.1 -154.276,146.094 "/>
<polygon fill="#593D16" points="-88.011,158.418 -88.138,150.15 -152.521,150.916 -152.394,159.184 "/>
<path fill="#D7D03D" d="M-260.77,77.304c0,0,15.308-55.153,50.737,4.861"/>
<path fill="#D7D03D" d="M-159.507,77.304c0,0,15.309-55.153,50.738,4.861"/>
<ellipse fill="#190C0C" cx="-235.4" cy="68.167" rx="11.232" ry="12.461"/>
<ellipse fill="#190C0C" cx="-134.878" cy="68.167" rx="11.232" ry="12.461"/>
<path fill="#CA904F" d="M18.286,88.316c-26.879,12.987,49.477,79.526,110.507,79.526c61.032,0,140.372-72.226,110.506-79.526
	c-29.867-7.301-49.475-79.523-110.506-79.523C67.763,8.792,45.167,75.331,18.286,88.316z"/>
</svg>
