<?xml version="1.0" encoding="utf-8"?>
<!-- Generator: Adobe Illustrator 16.0.0, SVG Export Plug-In . SVG Version: 6.00 Build 0)  -->
<!DOCTYPE svg PUBLIC "-//W3C//DTD SVG 1.1//EN" "http://www.w3.org/Graphics/SVG/1.1/DTD/svg11.dtd">
<svg version="1.1" id="Layer_1" xmlns="http://www.w3.org/2000/svg" xmlns:xlink="http://www.w3.org/1999/xlink" x="0px" y="0px"
	 width="193.984px" height="133.459px" viewBox="0 0 193.984 133.459" enable-background="new 0 0 193.984 133.459"
	 xml:space="preserve">
<pattern  x="1.52" y="40.414" width="82.553" height="75.857" patternUnits="userSpaceOnUse" id="sm_flows" viewBox="0 -75.857 82.553 75.857" overflow="visible">
	<g>
		<polygon fill="none" points="0,0 82.553,0 82.553,-75.857 0,-75.857 		"/>
		<polygon fill="#CA904F" points="82.553,0 0,0 0,-75.857 82.553,-75.857 		"/>
		<g>
			<path fill="#FFFFFF" stroke="#000000" d="M28.629-50.799"/>
			<g>
				<path fill="#B35537" d="M31.996-56.578c0,0,14.005-4.013,15.127,0.503c0,0-1.272,7.674-15.193,2.379L31.996-56.578z"/>
				<path fill="#B35537" d="M27.076-60.373c0,0,0.968-12.829,7.096-10.905c6.129,1.925-1.13,11.034-4.192,11.546
					c-3.065,0.513-0.484,0.642-0.484,0.642L27.076-60.373z"/>
				<path fill="#B35537" d="M30.463-58.961c0,0,9.354-8.21,12.739-6.543c3.388,1.668,5.161,4.491-3.708,7.185
					c-8.87,2.695-7.741,1.412-7.741,1.412L30.463-58.961z"/>
				<path fill="#B35537" d="M31.33-53.348c0,0,18.545,4.105,10.644,9.494c0,0-6.612,2.438-13.063-7.569L31.33-53.348z"/>
				<g>
					<path fill="#B35537" d="M19.598-57.855c0,0-15.804-3.977-10.32-8.467c5.482-4.49,12.417,6.8,12.417,6.8L19.598-57.855z"/>
					<path fill="#B35537" d="M22.662-59.699c0,0-9.354-12.316-1.613-11.675c7.741,0.642,5.482,10.392,4.838,10.905
						C25.242-59.956,22.662-59.699,22.662-59.699z"/>
					<path fill="#B35537" d="M28.715-51.016c0,0,10.033,9.324,2.574,12.339c-7.459,3.015-5.815-11.213-5.815-11.213L28.715-51.016z"
						/>
					<path fill="#B35537" d="M21.533-51.393c0,0-11.934,9.494-5.161,11.162c0,0,7.257,3.336,8.225-10.135L21.533-51.393z"/>
					<path fill="#B35537" d="M18.65-54.628c0,0-17.577,1.667-11.772,8.209c0,0,5.644,2.31,13.062-5.645L18.65-54.628z"/>
					<path fill="#B35537" d="M18.68-57.686c0,0-13.37-5.28-14.193-0.175c0,0-2.648,6.367,13.648,2.725L18.68-57.686z"/>
				</g>
			</g>
			<path fill="#D7D03D" d="M32.689-55.562c0,3.272-3.291,5.926-7.35,5.926s-7.348-2.653-7.348-5.926
				c0-3.273,3.289-5.927,7.348-5.927S32.689-58.835,32.689-55.562z"/>
			<path fill="#FFFFFF" stroke="#000000" d="M36.502-56.459"/>
		</g>
		<g>
			<path fill="#FFFFFF" stroke="#000000" d="M56.99-18.244"/>
			<g>
				<path fill="#B35537" d="M60.358-24.022c0,0,14.005-4.013,15.126,0.503c0,0-1.271,7.674-15.192,2.379L60.358-24.022z"/>
				<path fill="#B35537" d="M55.438-27.817c0,0,0.968-12.829,7.096-10.905c6.128,1.925-1.13,11.034-4.192,11.547
					c-3.065,0.513-0.484,0.641-0.484,0.641L55.438-27.817z"/>
				<path fill="#B35537" d="M58.825-26.406c0,0,9.353-8.21,12.739-6.543c3.387,1.668,5.16,4.491-3.708,7.185
					c-8.87,2.695-7.741,1.412-7.741,1.412L58.825-26.406z"/>
				<path fill="#B35537" d="M59.691-20.792c0,0,18.545,4.105,10.645,9.494c0,0-6.612,2.438-13.063-7.569L59.691-20.792z"/>
				<g>
					<path fill="#B35537" d="M47.96-25.3c0,0-15.804-3.977-10.321-8.467s12.418,6.8,12.418,6.8L47.96-25.3z"/>
					<path fill="#B35537" d="M51.023-27.144c0,0-9.354-12.316-1.612-11.674c7.74,0.642,5.481,10.392,4.837,10.905
						S51.023-27.144,51.023-27.144z"/>
					<path fill="#B35537" d="M57.077-18.46c0,0,10.033,9.324,2.573,12.339c-7.459,3.015-5.814-11.213-5.814-11.213L57.077-18.46z"/>
					<path fill="#B35537" d="M49.895-18.837c0,0-11.934,9.494-5.16,11.163c0,0,7.257,3.335,8.225-10.136L49.895-18.837z"/>
					<path fill="#B35537" d="M47.012-22.073c0,0-17.576,1.668-11.771,8.21c0,0,5.644,2.31,13.062-5.645L47.012-22.073z"/>
					<path fill="#B35537" d="M47.042-25.13c0,0-13.371-5.28-14.193-0.176c0,0-2.648,6.367,13.648,2.726L47.042-25.13z"/>
				</g>
			</g>
			<path fill="#D7D03D" d="M61.051-23.007c0,3.272-3.29,5.926-7.35,5.926c-4.058,0-7.348-2.653-7.348-5.926
				c0-3.273,3.29-5.927,7.348-5.927C57.761-28.934,61.051-26.28,61.051-23.007z"/>
			<path fill="#FFFFFF" stroke="#000000" d="M64.863-23.904"/>
		</g>
	</g>
</pattern>
<pattern  x="1.52" y="40.414" width="132.126" height="130.077" patternUnits="userSpaceOnUse" id="talbrwn" viewBox="0 -130.077 132.126 130.077" overflow="visible">
	<g>
		<polygon fill="none" points="0,0 132.126,0 132.126,-130.077 0,-130.077 		"/>
		<polygon fill="#593D16" points="0,-0.129 0.125,-128.813 132.125,-128.685 132,0 		"/>
		<polygon fill="#CA904F" points="0.07,-72.077 0.102,-105.458 132.102,-105.331 132.069,-71.948 		"/>
		<polygon fill="#845B24" points="0.082,-84.964 0.126,-130.077 132.126,-129.949 132.082,-84.837 		"/>
	</g>
</pattern>
<pattern  id="SVGID_1_" xlink:href="#talbrwn" patternTransform="matrix(0.4574 -0.547 0.5674 0.4223 63.2998 -9221.5801)">
</pattern>
<path fill="url(#SVGID_1_)" d="M193.795,129.806c0,0-54.922,14.789-102.637-15.141c-5.363-3.367-20.02-13.818-26.803-18.686
	C48.771,84.806,20.035,58.197,0,4.287c0,0,56.359-18.779,126.209,22.273C126.209,26.56,198.148,71.783,193.795,129.806z"/>
<path fill="#845B24" d="M456.404,240.89c-50.289,54.984,68.723,183.373,153.5,183.373c84.775,0,200.795-123.486,153.5-183.373
	c-47.293-59.885-68.725-183.369-153.5-183.369C525.127,57.521,506.691,185.912,456.404,240.89z"/>
<path fill="#CA904F" d="M-589.246,54.221c-33.668,16.266,61.973,99.611,138.416,99.611c76.447,0,175.824-90.466,138.416-99.611
	c-37.41-9.146-61.969-99.607-138.416-99.607C-527.273-45.387-555.576,37.956-589.246,54.221z"/>
<ellipse fill="#593D16" cx="609.392" cy="91.696" rx="24.315" ry="18.025"/>
<path fill="#CA904F" d="M738.349-105.372c0,0,39.508-61.447,28.984-73.042c-10.52-11.595-89.338,29.081-89.338,29.081
	L738.349-105.372z"/>
<path fill="#CA904F" d="M535.477-185.552c0,0-71.475-24.561-90.717-20.626c-19.244,3.932,39.293,71.573,39.293,71.573
	L535.477-185.552z"/>
<polygon fill="#593D16" points="582.58,77.982 584.846,69.959 487.689,48.713 485.426,56.739 "/>
<path fill="#CA904F" d="M480.588,456.986c-13.248-12.926-2.797-40.232,23.34-60.986c26.141-20.758,58.07-27.109,71.316-14.188
	c13.248,12.928,47.975,46.807-23.34,60.988C480.588,456.986,493.836,469.91,480.588,456.986z"/>
<path fill="#CA904F" d="M740.377,451.111c11.898-13.404,0.033-39.066-26.5-57.316c-26.539-18.252-57.701-22.18-69.598-8.777
	c-11.902,13.406-43.094,48.545,26.502,57.32C740.377,451.111,728.479,464.515,740.377,451.111z"/>
<pattern  id="SVGID_2_" xlink:href="#sm_flows" patternTransform="matrix(1.0139 0 0 1.1192 -6.9551 933.5913)">
</pattern>
<path fill="url(#SVGID_2_)" d="M539.311,251.941c0,53.832,32.072,97.473,71.637,97.473c39.568,0,71.641-43.641,71.641-97.473
	c0-53.834-32.072-97.473-71.641-97.473C571.383,154.468,539.311,198.107,539.311,251.941z"/>
<path fill="#CA904F" d="M513.293,132.613c12.357,8.639,11.93,27.268-0.951,41.611c-12.885,14.346-33.346,18.965-45.703,10.328
	c-12.357-8.641-11.934-27.27,0.949-41.613S500.936,123.972,513.293,132.613z"/>
<polygon fill="#CA904F" points="449.973,118.109 477.301,125.985 460.037,143.738 "/>
<polygon fill="#CA904F" points="495.07,98.739 506.863,121.871 480.357,122.56 "/>
<polygon fill="#CA904F" points="427.4,155.701 455.018,148.654 452.059,171.902 "/>
<path fill="#CA904F" d="M753.934,175.08c-11.586,9.43-32.439,6.211-46.572-7.191c-14.135-13.396-16.197-31.902-4.609-41.331
	c11.59-9.429,32.441-6.209,46.574,7.19C763.461,147.148,765.521,165.652,753.934,175.08z"/>
<polygon fill="#CA904F" points="779.898,122.219 766.879,144.787 749.584,127.055 "/>
<polygon fill="#CA904F" points="794.75,164.41 766.979,171.132 770.258,147.97 "/>
<polygon fill="#CA904F" points="741.143,96.837 744.83,121.938 719.182,115.808 "/>
<polygon fill="#593D16" points="573.43,90.932 573.305,82.664 508.92,83.43 509.049,91.697 "/>
<polygon fill="#593D16" points="740.383,56.083 737.98,48.09 641.199,70.613 643.598,78.607 "/>
<polygon fill="#593D16" points="709.863,90.932 709.736,82.664 645.354,83.43 645.48,91.697 "/>
<path d="M459.605-83.427c0,11.866-17.647,21.483-39.415,21.483c-21.771,0-39.419-9.617-39.419-21.483
	c0-11.867,0-42.972,39.419-21.486C459.605-83.427,459.605-95.294,459.605-83.427z"/>
<path d="M284.461-83.427c0,11.864,18.938,21.483,42.297,21.483c23.358,0,42.293-9.619,42.293-21.483
	c0-11.867,0-42.972-42.293-21.488C284.461-83.427,284.461-95.294,284.461-83.427z"/>
<path fill="#D7D03D" d="M316.685-76.663c0,0,11.089-39.955,36.755,3.521"/>
<path fill="#D7D03D" d="M390.042-76.663c0,0,11.09-39.955,36.757,3.521"/>
<ellipse fill="#190C0C" cx="335.063" cy="-83.282" rx="8.137" ry="9.027"/>
<ellipse fill="#190C0C" cx="407.884" cy="-83.282" rx="8.137" ry="9.027"/>
</svg>
