<?xml version="1.0" encoding="utf-8"?>
<!-- Generator: Adobe Illustrator 16.0.0, SVG Export Plug-In . SVG Version: 6.00 Build 0)  -->
<!DOCTYPE svg PUBLIC "-//W3C//DTD SVG 1.1//EN" "http://www.w3.org/Graphics/SVG/1.1/DTD/svg11.dtd">
<svg version="1.1" id="Layer_1" xmlns="http://www.w3.org/2000/svg" xmlns:xlink="http://www.w3.org/1999/xlink" x="0px" y="0px"
	 width="133.677px" height="37.026px" viewBox="0 0 133.677 37.026" enable-background="new 0 0 133.677 37.026"
	 xml:space="preserve">
<path fill="#808184" d="M-323.027,27.304c-27.805,29.292,38,97.69,84.872,97.69c46.874,0,111.023-65.786,84.874-97.69
	c-26.149-31.904-38-97.689-84.874-97.689C-285.027-70.385-295.222-1.987-323.027,27.304z"/>
<path fill="#B5B5AA" d="M-81.698-177.714c-18.615,8.665,34.264,53.066,76.532,53.066c42.269,0,97.216-48.194,76.53-53.066
	c-20.682-4.872-34.262-53.065-76.53-53.065C-47.434-230.779-63.082-186.379-81.698-177.714z"/>
<ellipse fill="#231F20" cx="-238.437" cy="-52.18" rx="13.444" ry="9.604"/>
<path fill="#808184" d="M51.573-194.021c0,0,21.844-32.734,16.026-38.911s-49.397,15.493-49.397,15.493L51.573-194.021z"/>
<path fill="#808184" d="M-32.378-217.553c0,0-39.52-13.085-50.159-10.989c-10.64,2.095,21.727,38.13,21.727,38.13L-32.378-217.553z"
	/>
<polygon fill="#231F20" points="-253.263,-59.485 -252.01,-63.759 -305.728,-75.077 -306.98,-70.803 "/>
<g>
	<path fill="#231F20" d="M133.677,21.227c0,8.726-13.47,15.8-30.084,15.8c-16.615,0-30.084-7.074-30.084-15.8
		c0-8.727,0-31.601,30.084-15.801C133.677,21.227,133.677,12.5,133.677,21.227z"/>
	<path fill="#231F20" d="M0,21.226c0,8.727,14.453,15.801,32.282,15.801s32.28-7.074,32.28-15.801c0-8.726,0-31.6-32.28-15.8
		C0,21.226,0,12.5,0,21.226z"/>
	<ellipse fill="#EFEC83" cx="97.384" cy="18.513" rx="9.522" ry="8.076"/>
	<ellipse fill="#EFEC83" cx="41.804" cy="18.513" rx="9.522" ry="8.076"/>
	<ellipse fill="#231F20" cx="97.382" cy="18.513" rx="6.21" ry="4.688"/>
	<ellipse fill="#231F20" cx="41.803" cy="18.513" rx="6.209" ry="4.688"/>
</g>
<path fill="#231F20" d="M-309.654,142.427c-7.325-6.885-1.548-21.434,12.904-32.49c14.452-11.059,32.107-14.442,39.431-7.557
	c7.326,6.885,26.528,24.936-12.904,32.492C-309.654,142.427-302.33,149.312-309.654,142.427z"/>
<path fill="#231F20" d="M-166.011,139.299c6.577-7.143,0.017-20.813-14.654-30.535c-14.674-9.725-31.904-11.817-38.482-4.678
	c-6.581,7.143-23.827,25.862,14.654,30.536C-166.011,139.299-172.592,146.439-166.011,139.299z"/>
<ellipse fill="#FFFFFF" cx="-238.437" cy="28.564" rx="37.718" ry="48.743"/>
<g>
	<path fill="#231F20" d="M-291.572-30.381c6.833,4.603,6.598,14.528-0.526,22.168c-7.124,7.642-18.438,10.104-25.271,5.502
		c-6.831-4.603-6.597-14.527,0.527-22.168C-309.719-32.52-298.406-34.983-291.572-30.381z"/>
	<polygon fill="#231F20" points="-326.584,-38.108 -311.473,-33.913 -321.018,-24.453 	"/>
	<polygon fill="#231F20" points="-301.646,-48.425 -295.125,-36.104 -309.78,-35.737 	"/>
	<polygon fill="#231F20" points="-339.063,-18.081 -323.792,-21.833 -325.429,-9.449 	"/>
</g>
<g>
	<path fill="#231F20" d="M-158.517-7.756c-6.406,5.023-17.938,3.308-25.751-3.83c-7.815-7.138-8.955-16.998-2.549-22.021
		c6.408-5.023,17.937-3.309,25.752,3.83C-153.25-22.637-152.111-12.78-158.517-7.756z"/>
	<polygon fill="#231F20" points="-144.162,-35.918 -151.358,-23.895 -160.922,-33.341 	"/>
	<polygon fill="#231F20" points="-135.949,-13.442 -151.305,-9.86 -149.492,-22.199 	"/>
	<polygon fill="#231F20" points="-165.588,-49.44 -163.55,-36.068 -177.732,-39.333 	"/>
</g>
<polygon fill="#231F20" points="-258.32,-52.586 -258.39,-56.99 -293.99,-56.583 -293.918,-52.179 "/>
<polygon fill="#231F20" points="-166.009,-71.152 -167.338,-75.41 -220.851,-63.41 -219.524,-59.152 "/>
<polygon fill="#231F20" points="-182.884,-52.586 -182.955,-56.99 -218.554,-56.583 -218.483,-52.179 "/>
<path fill="#FFFFFF" stroke="#000000" stroke-width="0.5247" d="M-140.984-14.094"/>
</svg>
