<?xml version="1.0" encoding="utf-8"?>
<!-- Generator: Adobe Illustrator 16.0.0, SVG Export Plug-In . SVG Version: 6.00 Build 0)  -->
<!DOCTYPE svg PUBLIC "-//W3C//DTD SVG 1.1//EN" "http://www.w3.org/Graphics/SVG/1.1/DTD/svg11.dtd">
<svg version="1.1" id="Layer_1" xmlns="http://www.w3.org/2000/svg" xmlns:xlink="http://www.w3.org/1999/xlink" x="0px" y="0px"
	 width="233.569px" height="107.346px" viewBox="0 0 233.569 107.346" enable-background="new 0 0 233.569 107.346"
	 xml:space="preserve">
<pattern  x="10.202" y="91.249" width="132.126" height="130.076" patternUnits="userSpaceOnUse" id="kbk" viewBox="0 -130.076 132.126 130.076" overflow="visible">
	<g>
		<polygon fill="none" points="0,0 132.126,0 132.126,-130.076 0,-130.076 		"/>
		<polygon fill="#231F20" points="0,-0.128 0.125,-128.812 132.125,-128.685 132,0 		"/>
		<polygon fill="#FFFFFF" points="0.07,-72.076 0.102,-105.458 132.102,-105.33 132.069,-71.948 		"/>
		<polygon fill="#808184" points="0.082,-84.964 0.126,-130.076 132.126,-129.948 132.082,-84.836 		"/>
	</g>
</pattern>
<pattern  x="10.202" y="91.249" width="82.553" height="75.857" patternUnits="userSpaceOnUse" id="sm_flows" viewBox="0 -75.857 82.553 75.857" overflow="visible">
	<g>
		<polygon fill="none" points="0,0 82.553,0 82.553,-75.857 0,-75.857 		"/>
		<polygon fill="#CA904F" points="82.553,0 0,0 0,-75.857 82.553,-75.857 		"/>
		<g>
			<path fill="#FFFFFF" stroke="#000000" d="M28.629-50.799"/>
			<g>
				<path fill="#B35537" d="M31.996-56.578c0,0,14.005-4.013,15.127,0.503c0,0-1.272,7.674-15.193,2.379L31.996-56.578z"/>
				<path fill="#B35537" d="M27.076-60.373c0,0,0.968-12.829,7.096-10.905c6.129,1.925-1.13,11.034-4.192,11.546
					c-3.065,0.513-0.484,0.642-0.484,0.642L27.076-60.373z"/>
				<path fill="#B35537" d="M30.463-58.961c0,0,9.354-8.21,12.739-6.543c3.388,1.668,5.161,4.491-3.708,7.185
					c-8.87,2.695-7.741,1.412-7.741,1.412L30.463-58.961z"/>
				<path fill="#B35537" d="M31.33-53.348c0,0,18.545,4.105,10.644,9.494c0,0-6.612,2.438-13.063-7.569L31.33-53.348z"/>
				<g>
					<path fill="#B35537" d="M19.598-57.855c0,0-15.804-3.977-10.32-8.467c5.482-4.49,12.417,6.8,12.417,6.8L19.598-57.855z"/>
					<path fill="#B35537" d="M22.662-59.699c0,0-9.354-12.316-1.613-11.675c7.741,0.642,5.482,10.392,4.838,10.905
						C25.242-59.956,22.662-59.699,22.662-59.699z"/>
					<path fill="#B35537" d="M28.715-51.016c0,0,10.033,9.324,2.574,12.339c-7.459,3.015-5.815-11.213-5.815-11.213L28.715-51.016z"
						/>
					<path fill="#B35537" d="M21.533-51.393c0,0-11.934,9.494-5.161,11.162c0,0,7.257,3.336,8.225-10.135L21.533-51.393z"/>
					<path fill="#B35537" d="M18.65-54.628c0,0-17.577,1.667-11.772,8.209c0,0,5.644,2.31,13.062-5.645L18.65-54.628z"/>
					<path fill="#B35537" d="M18.68-57.686c0,0-13.37-5.28-14.193-0.175c0,0-2.648,6.367,13.648,2.725L18.68-57.686z"/>
				</g>
			</g>
			<path fill="#D7D03D" d="M32.689-55.562c0,3.272-3.291,5.926-7.35,5.926s-7.348-2.653-7.348-5.926
				c0-3.273,3.289-5.927,7.348-5.927S32.689-58.835,32.689-55.562z"/>
			<path fill="#FFFFFF" stroke="#000000" d="M36.502-56.459"/>
		</g>
		<g>
			<path fill="#FFFFFF" stroke="#000000" d="M56.99-18.244"/>
			<g>
				<path fill="#B35537" d="M60.358-24.022c0,0,14.005-4.013,15.126,0.503c0,0-1.271,7.674-15.192,2.379L60.358-24.022z"/>
				<path fill="#B35537" d="M55.438-27.817c0,0,0.968-12.829,7.096-10.905c6.128,1.925-1.13,11.034-4.192,11.547
					c-3.065,0.513-0.484,0.641-0.484,0.641L55.438-27.817z"/>
				<path fill="#B35537" d="M58.825-26.406c0,0,9.353-8.21,12.739-6.543c3.387,1.668,5.16,4.491-3.708,7.185
					c-8.87,2.695-7.741,1.412-7.741,1.412L58.825-26.406z"/>
				<path fill="#B35537" d="M59.691-20.792c0,0,18.545,4.105,10.645,9.494c0,0-6.612,2.438-13.063-7.569L59.691-20.792z"/>
				<g>
					<path fill="#B35537" d="M47.96-25.3c0,0-15.804-3.977-10.321-8.467s12.418,6.8,12.418,6.8L47.96-25.3z"/>
					<path fill="#B35537" d="M51.023-27.144c0,0-9.354-12.316-1.612-11.674c7.74,0.642,5.481,10.392,4.837,10.905
						S51.023-27.144,51.023-27.144z"/>
					<path fill="#B35537" d="M57.077-18.46c0,0,10.033,9.324,2.573,12.339c-7.459,3.015-5.814-11.213-5.814-11.213L57.077-18.46z"/>
					<path fill="#B35537" d="M49.895-18.837c0,0-11.934,9.494-5.16,11.163c0,0,7.257,3.335,8.225-10.136L49.895-18.837z"/>
					<path fill="#B35537" d="M47.012-22.073c0,0-17.576,1.668-11.771,8.21c0,0,5.644,2.31,13.062-5.645L47.012-22.073z"/>
					<path fill="#B35537" d="M47.042-25.13c0,0-13.371-5.28-14.193-0.176c0,0-2.648,6.367,13.648,2.726L47.042-25.13z"/>
				</g>
			</g>
			<path fill="#D7D03D" d="M61.051-23.007c0,3.272-3.29,5.926-7.35,5.926c-4.058,0-7.348-2.653-7.348-5.926
				c0-3.273,3.29-5.927,7.348-5.927C57.761-28.934,61.051-26.28,61.051-23.007z"/>
			<path fill="#FFFFFF" stroke="#000000" d="M64.863-23.904"/>
		</g>
	</g>
</pattern>
<pattern  x="10.202" y="91.249" width="132.126" height="130.077" patternUnits="userSpaceOnUse" id="talbrwn" viewBox="0 -130.077 132.126 130.077" overflow="visible">
	<g>
		<polygon fill="none" points="0,0 132.126,0 132.126,-130.077 0,-130.077 		"/>
		<polygon fill="#593D16" points="0,-0.129 0.125,-128.813 132.125,-128.685 132,0 		"/>
		<polygon fill="#CA904F" points="0.07,-72.077 0.102,-105.458 132.102,-105.331 132.069,-71.948 		"/>
		<polygon fill="#845B24" points="0.082,-84.964 0.126,-130.077 132.126,-129.949 132.082,-84.837 		"/>
	</g>
</pattern>
<ellipse cx="426.702" cy="418.749" rx="60.5" ry="100.5"/>
<ellipse cx="429.054" cy="215.749" rx="152.176" ry="195.5"/>
<pattern  id="SVGID_1_" xlink:href="#talbrwn" patternTransform="matrix(0.4574 -0.547 0.5674 0.4223 137.1309 -9287.4189)">
</pattern>
<path fill="url(#SVGID_1_)" d="M-338.14,439.211c0,0-54.922,14.789-102.637-15.141c-5.363-3.367-20.02-13.818-26.804-18.686
	c-15.583-11.174-44.319-37.783-64.354-91.693c0,0,56.358-18.779,126.209,22.273C-405.726,335.965-333.786,381.188-338.14,439.211z"
	/>
<path fill="#845B24" d="M-364.531,360.295c-50.288,54.984,68.724,183.373,153.501,183.373c84.775,0,200.794-123.486,153.5-183.373
	c-47.294-59.885-68.725-183.369-153.5-183.369C-295.808,176.926-314.243,305.317-364.531,360.295z"/>
<ellipse fill="#593D16" cx="-211.543" cy="211.1" rx="24.315" ry="18.025"/>
<path fill="#845B24" d="M-320.601-189.132c0,0,36.261-56.399,26.603-67.041c-9.655-10.643-81.999,26.692-81.999,26.692
	L-320.601-189.132z"/>
<path fill="#845B24" d="M-446.232-229.225c0,0-65.602-22.543-83.264-18.932c-17.663,3.609,36.066,65.693,36.066,65.693
	L-446.232-229.225z"/>
<path fill="#593D16" d="M-86.544,119.885c0,16.38-24.36,29.657-54.408,29.657c-30.051,0-54.412-13.277-54.412-29.657
	s0-59.318,54.412-29.658C-86.544,119.885-86.544,103.505-86.544,119.885z"/>
<path fill="#593D16" d="M-328.311,119.885c0,16.378,26.141,29.657,58.385,29.657s58.381-13.279,58.381-29.657
	c0-16.38,0-59.318-58.381-29.661C-328.311,119.885-328.311,103.505-328.311,119.885z"/>
<polygon fill="#593D16" points="-238.354,197.387 -236.09,189.364 -333.246,168.118 -335.51,176.143 "/>
<path fill="#CA904F" d="M-340.348,576.391c-13.247-12.926-2.796-40.232,23.34-60.986c26.141-20.758,58.07-27.109,71.316-14.188
	c13.249,12.928,47.976,46.807-23.34,60.988C-340.348,576.391-327.1,589.315-340.348,576.391z"/>
<path fill="#CA904F" d="M-80.558,570.516c11.897-13.404,0.033-39.066-26.501-57.316c-26.538-18.252-57.701-22.18-69.597-8.777
	c-11.902,13.406-43.094,48.545,26.501,57.32C-80.558,570.516-92.456,583.92-80.558,570.516z"/>
<pattern  id="SVGID_2_" xlink:href="#sm_flows" patternTransform="matrix(1.0139 0 0 1.1192 -83.1353 909.6455)">
</pattern>
<path fill="url(#SVGID_2_)" d="M-281.624,371.346c0,53.832,32.072,97.473,71.636,97.473c39.568,0,71.641-43.641,71.641-97.473
	c0-53.834-32.072-97.474-71.641-97.474C-249.552,273.873-281.624,317.512-281.624,371.346z"/>
<g>
	<path fill="#CA904F" d="M-307.643,252.018c12.358,8.639,11.931,27.268-0.951,41.611c-12.884,14.346-33.346,18.965-45.703,10.328
		c-12.357-8.641-11.933-27.27,0.949-41.613C-340.464,248-319.999,243.377-307.643,252.018z"/>
	<polygon fill="#CA904F" points="-370.962,237.513 -343.634,245.389 -360.897,263.143 	"/>
	<polygon fill="#CA904F" points="-325.864,218.143 -314.071,241.276 -340.577,241.964 	"/>
	<polygon fill="#CA904F" points="-393.535,275.105 -365.917,268.059 -368.876,291.307 	"/>
</g>
<g>
	<path fill="#CA904F" d="M-67.001,294.485c-11.587,9.43-32.439,6.211-46.572-7.191c-14.136-13.396-16.197-31.903-4.609-41.332
		c11.589-9.428,32.44-6.209,46.574,7.19C-57.474,266.553-55.413,285.056-67.001,294.485z"/>
	<polygon fill="#CA904F" points="-41.036,241.624 -54.056,264.192 -71.351,246.459 	"/>
	<polygon fill="#CA904F" points="-26.185,283.815 -53.957,290.538 -50.678,267.375 	"/>
	<polygon fill="#CA904F" points="-79.792,216.242 -76.105,241.342 -101.753,235.213 	"/>
</g>
<polygon fill="#593D16" points="-247.505,210.336 -247.631,202.069 -312.015,202.834 -311.887,211.102 "/>
<polygon fill="#593D16" points="-80.553,175.487 -82.954,167.495 -179.735,190.018 -177.337,198.012 "/>
<polygon fill="#593D16" points="-111.071,210.336 -111.198,202.069 -175.582,202.834 -175.454,211.102 "/>
<path fill="#D7D03D" d="M-283.83,129.223c0,0,15.308-55.153,50.737,4.861"/>
<path fill="#D7D03D" d="M-182.567,129.223c0,0,15.309-55.153,50.738,4.861"/>
<ellipse fill="#190C0C" cx="-258.461" cy="120.086" rx="11.232" ry="12.461"/>
<path fill="#CA904F" d="M-514.774-169.766c-26.879,12.987,49.477,79.526,110.507,79.526c61.032,0,140.372-72.226,110.506-79.526
	c-29.867-7.301-49.475-79.523-110.506-79.523C-465.298-249.289-487.894-182.75-514.774-169.766z"/>
<path fill="#F7F372" stroke="#D4D8DD" stroke-width="2.3608" stroke-miterlimit="10" d="M58.343,4.471
	c30.736,0,55.613,22.758,55.613,50.798c0,28.117-24.877,50.897-55.613,50.897c-30.68,0-55.6-22.78-55.6-50.897
	C2.743,27.229,27.663,4.471,58.343,4.471z"/>
<path fill="#F7F372" stroke="#D4D8DD" stroke-width="2.3608" stroke-miterlimit="10" d="M173.742,4.471
	c30.69,0,55.586,22.758,55.586,50.798c0,28.117-24.896,50.897-55.586,50.897c-30.726,0-55.631-22.78-55.631-50.897
	C118.111,27.229,143.017,4.471,173.742,4.471z"/>
<path d="M85.735-146.626c16.537,0,29.924,12.502,29.924,27.957c0,15.467-13.387,28.016-29.924,28.016
	c-16.512,0-29.895-12.549-29.895-28.016C55.841-134.124,69.224-146.626,85.735-146.626z"/>
<path d="M193.106-140.626c16.537,0,29.927,12.502,29.927,27.957c0,15.467-13.39,28.016-29.927,28.016
	c-16.508,0-29.873-12.549-29.873-28.016C163.233-128.124,176.599-140.626,193.106-140.626z"/>
<pattern  id="SVGID_3_" xlink:href="#kbk" patternTransform="matrix(1 0 0 1 35.748 76)">
</pattern>
<ellipse fill="url(#SVGID_3_)" cx="426.202" cy="309.249" rx="70" ry="91"/>
<path fill="#FF9B15" d="M355.759-26.583c-11.874,0-21.5,4.474-21.5,9.993c0,2.134,1.443,4.11,3.895,5.733l18.71,41.897
	l16.339-41.792c2.55-1.643,4.057-3.659,4.057-5.839C377.259-22.109,367.633-26.583,355.759-26.583z"/>
<ellipse fill="#F7F372" stroke="#D4D8DD" stroke-width="2.3608" stroke-miterlimit="10" cx="371.202" cy="396.749" rx="8" ry="22.5"/>
<ellipse fill="#F7F372" stroke="#D4D8DD" stroke-width="2.3608" stroke-miterlimit="10" cx="382.202" cy="396.749" rx="8" ry="22.5"/>
<ellipse fill="#F7F372" stroke="#D4D8DD" stroke-width="2.3608" stroke-miterlimit="10" cx="394.202" cy="397.249" rx="8" ry="22.5"/>
<ellipse fill="#F7F372" stroke="#D4D8DD" stroke-width="2.3608" stroke-miterlimit="10" cx="470.202" cy="396.749" rx="8" ry="22.5"/>
<ellipse fill="#F7F372" stroke="#D4D8DD" stroke-width="2.3608" stroke-miterlimit="10" cx="481.202" cy="396.749" rx="8" ry="22.5"/>
<ellipse fill="#F7F372" stroke="#D4D8DD" stroke-width="2.3608" stroke-miterlimit="10" cx="493.202" cy="397.249" rx="8" ry="22.5"/>
<path fill="#190C0C" d="M30.054,57.246c0,13.256,12.792,24.003,28.575,24.003c15.778,0,28.573-10.747,28.573-24.003
	c0-13.255-12.794-23.997-28.573-23.997C42.847,33.249,30.054,43.99,30.054,57.246z"/>
<linearGradient id="SVGID_4_" gradientUnits="userSpaceOnUse" x1="56.5044" y1="25.4463" x2="56.2764" y2="-6.2039" gradientTransform="matrix(0.9996 -0.0072 -0.0072 0.8815 1.6435 20.131)">
	<stop  offset="0" style="stop-color:#BCBEC0"/>
	<stop  offset="1" style="stop-color:#000000"/>
</linearGradient>
<path fill="url(#SVGID_4_)" d="M0,50.927c0,0,2.747-45.657,56.18-49.314c0,0,47.7-7.85,59.704,47.517L0,50.927z"/>
<path fill="#190C0C" d="M146.054,54.246c0,13.256,12.793,24.003,28.576,24.003c15.777,0,28.572-10.747,28.572-24.003
	c0-13.255-12.795-23.997-28.572-23.997C158.847,30.249,146.054,40.99,146.054,54.246z"/>
<linearGradient id="SVGID_5_" gradientUnits="userSpaceOnUse" x1="171.1123" y1="28.6802" x2="170.5043" y2="-26.6729" gradientTransform="matrix(1.0198 0.012 -0.025 0.8923 0.6711 21.743)">
	<stop  offset="0" style="stop-color:#BCBEC0"/>
	<stop  offset="0.7104" style="stop-color:#000000"/>
</linearGradient>
<path fill="url(#SVGID_5_)" d="M115.331,49.077c0,0,3.692-46.16,58.312-48.794c0,0,48.779-7.045,59.926,49.24L115.331,49.077z"/>
</svg>
