<?xml version="1.0" encoding="utf-8"?>
<!-- Generator: Adobe Illustrator 16.0.0, SVG Export Plug-In . SVG Version: 6.00 Build 0)  -->
<!DOCTYPE svg PUBLIC "-//W3C//DTD SVG 1.1//EN" "http://www.w3.org/Graphics/SVG/1.1/DTD/svg11.dtd">
<svg version="1.1" id="Layer_1" xmlns="http://www.w3.org/2000/svg" xmlns:xlink="http://www.w3.org/1999/xlink" x="0px" y="0px"
	 width="182.427px" height="195.379px" viewBox="0 0 182.427 195.379" enable-background="new 0 0 182.427 195.379"
	 xml:space="preserve">
<path fill="#808184" d="M6.624,97.689c-27.805,29.292,38,97.69,84.872,97.69c46.874,0,111.023-65.786,84.874-97.69
	C150.22,65.785,138.37,0,91.496,0C44.623,0,34.428,68.398,6.624,97.689z"/>
<path fill="#B5B5AA" d="M-58.047-116.329c-18.615,8.665,34.264,53.066,76.532,53.066c42.269,0,97.216-48.194,76.53-53.066
	c-20.682-4.872-34.262-53.065-76.53-53.065C-23.783-169.394-39.431-124.994-58.047-116.329z"/>
<ellipse fill="#231F20" cx="-214.787" cy="9.206" rx="13.444" ry="9.604"/>
<path fill="#808184" d="M75.223-132.636c0,0,21.844-32.734,16.026-38.911s-49.397,15.493-49.397,15.493L75.223-132.636z"/>
<path fill="#808184" d="M-8.728-156.167c0,0-39.52-13.085-50.159-10.989c-10.64,2.095,21.727,38.13,21.727,38.13L-8.728-156.167z"/>
<polygon fill="#231F20" points="-229.612,1.9 -228.359,-2.374 -282.077,-13.691 -283.33,-9.417 "/>
<g>
	<path fill="#231F20" d="M84.328-129.388c0,8.726-13.47,15.8-30.084,15.8c-16.615,0-30.084-7.074-30.084-15.8
		c0-8.727,0-31.601,30.084-15.801C84.328-129.388,84.328-138.115,84.328-129.388z"/>
	<path fill="#231F20" d="M-49.35-129.389c0,8.727,14.453,15.801,32.282,15.801s32.28-7.074,32.28-15.801c0-8.726,0-31.6-32.28-15.8
		C-49.35-129.389-49.35-138.115-49.35-129.389z"/>
	<ellipse fill="#EFEC83" cx="48.034" cy="-132.102" rx="9.522" ry="8.076"/>
	<ellipse fill="#EFEC83" cx="-7.546" cy="-132.102" rx="9.522" ry="8.076"/>
	<ellipse fill="#231F20" cx="48.033" cy="-132.102" rx="6.21" ry="4.688"/>
	<ellipse fill="#231F20" cx="-7.546" cy="-132.102" rx="6.209" ry="4.688"/>
</g>
<path fill="#231F20" d="M-286.004,203.812c-7.325-6.885-1.548-21.434,12.904-32.49c14.452-11.059,32.107-14.442,39.431-7.557
	c7.326,6.885,26.528,24.936-12.904,32.492C-286.004,203.812-278.68,210.698-286.004,203.812z"/>
<path fill="#231F20" d="M-142.361,200.684c6.577-7.143,0.017-20.813-14.654-30.535c-14.674-9.725-31.904-11.817-38.482-4.678
	c-6.581,7.143-23.827,25.862,14.654,30.536C-142.361,200.684-148.942,207.825-142.361,200.684z"/>
<ellipse fill="#FFFFFF" cx="92.213" cy="97.95" rx="37.718" ry="48.743"/>
<g>
	<path fill="#231F20" d="M-267.922,31.004c6.833,4.603,6.598,14.528-0.526,22.168c-7.124,7.642-18.438,10.104-25.271,5.502
		c-6.831-4.603-6.597-14.527,0.527-22.168C-286.068,28.866-274.755,26.402-267.922,31.004z"/>
	<polygon fill="#231F20" points="-302.934,23.277 -287.823,27.473 -297.367,36.933 	"/>
	<polygon fill="#231F20" points="-277.996,12.96 -271.475,25.282 -286.13,25.648 	"/>
	<polygon fill="#231F20" points="-315.413,43.304 -300.142,39.552 -301.778,51.936 	"/>
</g>
<g>
	<path fill="#231F20" d="M-134.867,53.629c-6.406,5.023-17.938,3.308-25.751-3.83c-7.815-7.138-8.955-16.998-2.549-22.021
		c6.408-5.023,17.937-3.309,25.752,3.83C-129.599,38.748-128.46,48.605-134.867,53.629z"/>
	<polygon fill="#231F20" points="-120.511,25.467 -127.708,37.49 -137.272,28.044 	"/>
	<polygon fill="#231F20" points="-112.298,47.943 -127.655,51.525 -125.841,39.186 	"/>
	<polygon fill="#231F20" points="-141.938,11.945 -139.9,25.317 -154.082,22.053 	"/>
</g>
<polygon fill="#231F20" points="-234.669,8.799 -234.739,4.396 -270.339,4.802 -270.268,9.206 "/>
<polygon fill="#231F20" points="-142.359,-9.767 -143.688,-14.024 -197.201,-2.024 -195.874,2.233 "/>
<polygon fill="#231F20" points="-159.234,8.799 -159.304,4.396 -194.904,4.802 -194.833,9.206 "/>
<path fill="#FFFFFF" stroke="#000000" stroke-width="0.5247" d="M-117.333,47.292"/>
</svg>
