<?xml version="1.0" encoding="utf-8"?>
<!-- Generator: Adobe Illustrator 16.0.0, SVG Export Plug-In . SVG Version: 6.00 Build 0)  -->
<!DOCTYPE svg PUBLIC "-//W3C//DTD SVG 1.1//EN" "http://www.w3.org/Graphics/SVG/1.1/DTD/svg11.dtd">
<svg version="1.1" id="Layer_1" xmlns="http://www.w3.org/2000/svg" xmlns:xlink="http://www.w3.org/1999/xlink" x="0px" y="0px"
	 width="161.404px" height="109.393px" viewBox="0 0 161.404 109.393" enable-background="new 0 0 161.404 109.393"
	 xml:space="preserve">
<path fill="#808184" d="M-308.489,58.344c-27.805,29.292,38,97.69,84.872,97.69c46.874,0,111.023-65.786,84.874-97.69
	c-26.149-31.904-38-97.689-84.874-97.689C-270.489-39.345-280.684,29.053-308.489,58.344z"/>
<path fill="#B5B5AA" d="M3.84,56.326c-18.615,8.665,34.264,53.066,76.532,53.066c42.269,0,97.216-48.194,76.53-53.066
	c-20.682-4.872-34.262-53.065-76.53-53.065C38.104,3.261,22.457,47.661,3.84,56.326z"/>
<ellipse fill="#231F20" cx="-223.899" cy="-21.14" rx="13.444" ry="9.604"/>
<path fill="#808184" d="M137.111,40.019c0,0,21.844-32.734,16.026-38.911S103.74,16.601,103.74,16.601L137.111,40.019z"/>
<path fill="#808184" d="M53.16,16.487c0,0-39.52-13.085-50.159-10.989c-10.64,2.095,21.727,38.13,21.727,38.13L53.16,16.487z"/>
<path fill="#231F20" d="M-154.785-69.733c0,8.726-13.47,15.8-30.084,15.8c-16.615,0-30.084-7.074-30.084-15.8
	c0-8.727,0-31.601,30.084-15.801C-154.785-69.733-154.785-78.46-154.785-69.733z"/>
<path fill="#231F20" d="M-288.462-69.734c0,8.727,14.453,15.801,32.282,15.801s32.28-7.074,32.28-15.801c0-8.726,0-31.6-32.28-15.8
	C-288.462-69.734-288.462-78.46-288.462-69.734z"/>
<polygon fill="#231F20" points="-238.725,-28.445 -237.472,-32.719 -291.189,-44.037 -292.442,-39.763 "/>
<ellipse fill="#EFEC83" cx="-191.078" cy="-72.447" rx="9.522" ry="8.076"/>
<ellipse fill="#EFEC83" cx="-246.658" cy="-72.447" rx="9.522" ry="8.076"/>
<ellipse fill="#231F20" cx="-191.08" cy="-72.447" rx="6.21" ry="4.687"/>
<ellipse fill="#231F20" cx="-246.658" cy="-72.447" rx="6.209" ry="4.687"/>
<path fill="#231F20" d="M-295.116,173.467c-7.325-6.885-1.548-21.434,12.904-32.49c14.452-11.059,32.107-14.442,39.431-7.557
	c7.326,6.885,26.528,24.936-12.904,32.492C-295.116,173.467-287.792,180.353-295.116,173.467z"/>
<path fill="#231F20" d="M-151.473,170.339c6.577-7.143,0.017-20.813-14.654-30.535c-14.674-9.725-31.904-11.817-38.482-4.678
	c-6.581,7.143-23.827,25.862,14.654,30.536C-151.473,170.339-158.054,177.479-151.473,170.339z"/>
<ellipse fill="#FFFFFF" cx="-223.899" cy="59.604" rx="37.718" ry="48.743"/>
<g>
	<path fill="#231F20" d="M-277.034,0.659c6.833,4.603,6.598,14.528-0.526,22.168c-7.124,7.642-18.438,10.104-25.271,5.502
		c-6.831-4.603-6.597-14.527,0.527-22.168C-295.181-1.479-283.868-3.943-277.034,0.659z"/>
	<polygon fill="#231F20" points="-312.046,-7.068 -296.935,-2.873 -306.479,6.587 	"/>
	<polygon fill="#231F20" points="-287.108,-17.385 -280.587,-5.063 -295.242,-4.697 	"/>
	<polygon fill="#231F20" points="-324.525,12.959 -309.254,9.207 -310.891,21.591 	"/>
</g>
<g>
	<path fill="#231F20" d="M-143.979,23.284c-6.406,5.023-17.938,3.308-25.751-3.83c-7.815-7.138-8.955-16.998-2.549-22.021
		c6.408-5.023,17.937-3.309,25.752,3.83C-138.711,8.403-137.573,18.26-143.979,23.284z"/>
	<polygon fill="#231F20" points="-129.624,-4.878 -136.82,7.145 -146.384,-2.301 	"/>
	<polygon fill="#231F20" points="-121.411,17.598 -136.767,21.18 -134.954,8.841 	"/>
	<polygon fill="#231F20" points="-151.05,-18.4 -149.012,-5.028 -163.194,-8.292 	"/>
</g>
<polygon fill="#231F20" points="-243.782,-21.546 -243.852,-25.95 -279.452,-25.543 -279.38,-21.139 "/>
<polygon fill="#231F20" points="-151.471,-40.112 -152.8,-44.37 -206.313,-32.37 -204.986,-28.112 "/>
<polygon fill="#231F20" points="-168.346,-21.546 -168.417,-25.95 -204.016,-25.543 -203.945,-21.139 "/>
<path fill="#FFFFFF" stroke="#000000" stroke-width="0.5247" d="M-126.446,16.946"/>
</svg>
