<?xml version="1.0" encoding="utf-8"?>
<!-- Generator: Adobe Illustrator 16.0.0, SVG Export Plug-In . SVG Version: 6.00 Build 0)  -->
<!DOCTYPE svg PUBLIC "-//W3C//DTD SVG 1.1//EN" "http://www.w3.org/Graphics/SVG/1.1/DTD/svg11.dtd">
<svg version="1.1" id="Layer_1" xmlns="http://www.w3.org/2000/svg" xmlns:xlink="http://www.w3.org/1999/xlink" x="0px" y="0px"
	 width="299.417px" height="159.3px" viewBox="0 0 299.417 159.3" enable-background="new 0 0 299.417 159.3" xml:space="preserve">
<path fill="#EC1C24" stroke="#EC1C24" stroke-width="0.1296" d="M336.548,96.527c0,0,2.834,1.892,5.13-0.164
	C341.678,96.363,339.205,97.376,336.548,96.527z"/>
<g>
	<g>
		<g>
			<path fill="#231F20" d="M383.287,109.439c-0.415-0.92-0.772-1.862-1.074-2.826c-0.074-0.236-0.458-0.171-0.383,0.067
				c0.312,0.997,0.677,1.972,1.105,2.925C383.039,109.834,383.39,109.668,383.287,109.439L383.287,109.439z"/>
		</g>
	</g>
	<ellipse fill="#712E99" cx="381.697" cy="106.312" rx="1.144" ry="1.191"/>
</g>
<g>
	<g>
		<g>
			<path fill="#231F20" d="M385.695,109.321c0.659-1.202,1.188-2.457,1.624-3.757c0.081-0.242-0.29-0.379-0.371-0.137
				c-0.424,1.267-0.934,2.495-1.577,3.667C385.25,109.316,385.572,109.545,385.695,109.321L385.695,109.321z"/>
		</g>
	</g>
	<ellipse fill="#712E99" cx="386.698" cy="106.298" rx="1.163" ry="1.211"/>
</g>
<g>
	<ellipse fill="#BC9F24" cx="343.991" cy="120.836" rx="5.375" ry="2.203"/>
	<path fill="#BEA1D6" stroke="#231F20" stroke-width="0.1296" d="M347.898,116.712c0.02,1.896-1.784,3.466-4.03,3.505
		c-2.245,0.039-4.082-1.467-4.101-3.363c-0.021-1.896,1.784-3.465,4.029-3.504C346.042,113.311,347.878,114.817,347.898,116.712z"/>
	<g>
		<path fill="#FFFFFF" stroke="#FFFFFF" stroke-width="0.1296" d="M346.155,115.574c0.006,0.531-0.536,0.971-1.211,0.982
			c-0.675,0.011-1.227-0.409-1.232-0.939c-0.005-0.531,0.537-0.97,1.212-0.981C345.599,114.623,346.15,115.043,346.155,115.574z"/>
		<path fill="#231F20" d="M345.5,115.792c0.004,0.443-0.317,0.809-0.718,0.815c-0.4,0.008-0.729-0.347-0.734-0.79
			c-0.005-0.444,0.316-0.81,0.717-0.816C345.166,114.994,345.495,115.348,345.5,115.792z"/>
	</g>
	<g>
		<path fill="#FFFFFF" stroke="#FFFFFF" stroke-width="0.1296" d="M343.775,115.633c0.005,0.53-0.537,0.97-1.212,0.981
			c-0.674,0.012-1.226-0.408-1.232-0.938c-0.005-0.53,0.537-0.97,1.211-0.981C343.218,114.682,343.77,115.103,343.775,115.633z"/>
		<path fill="#231F20" d="M343.119,115.852c0.005,0.443-0.317,0.809-0.718,0.816c-0.401,0.006-0.729-0.348-0.734-0.791
			c-0.005-0.444,0.316-0.81,0.717-0.816C342.786,115.053,343.115,115.408,343.119,115.852z"/>
	</g>
	<g>
		<g>
			<path fill="#BC9F24" d="M350.35,113.081c0.566,0.58-2.322,1.853-6.642,1.872c-4.319-0.02-7.207-1.292-6.641-1.872
				c0.537-0.6,3.425-0.872,6.641-0.905C346.924,112.208,349.812,112.481,350.35,113.081z"/>
			<path fill="#BC9F24" d="M340.891,113.888c0.259-0.042,0.635-5.881,0.564-6.79c-0.019-0.002,1.228-0.842,1.686-0.04
				c0.008-0.008,1.337,0.347,1.586-0.038c0.253-0.405,1.651-0.366,1.612,0.295c-0.423,0.627,0.343,6.51,0.69,6.536
				C344.983,114.008,342.937,114.02,340.891,113.888z"/>
			<path fill="#564912" d="M346.904,113.355c-1.979,0.175-3.979,0.228-6.002,0.144c0.153-0.617,0.274-1.231,0.363-1.842
				c1.74,0.009,3.466-0.038,5.181-0.124C346.559,112.138,346.711,112.745,346.904,113.355z"/>
		</g>
	</g>
	<path fill="#BA3A2A" d="M345.178,119.611c-1.187,0.482-2.241,0.304-3.29-0.307h-1.163l3.263,4.131l3.263-4.131h-1.508
		C345.562,119.422,345.376,119.53,345.178,119.611z"/>
	<path fill="#BA3A2A" d="M341.931,119.315l-1.837-0.657l-0.059,0.165c-0.087,0.261-0.184,0.518-0.278,0.777l2.943,1.052l0.173-0.485
		C342.532,119.945,342.22,119.658,341.931,119.315z"/>
	<path fill="#BA3A2A" d="M347.125,118.404l-2.073,1.294c-0.09,0.194-0.191,0.385-0.317,0.559c-0.025,0.034-0.052,0.062-0.078,0.095
		l0.346,0.555l2.651-1.653L347.125,118.404z"/>
	<polygon fill="#F7EB14" points="341.616,120.62 340.884,120.168 340.098,120.515 340.301,119.68 339.728,119.04 340.585,118.974 
		341.018,118.231 341.345,119.026 342.185,119.208 341.529,119.764 	"/>
	<path fill="#EC1C24" stroke="#EC1C24" stroke-width="0.107" d="M342.173,118.089c0,0,1.941,1.905,3.497-0.14
		C345.67,117.95,343.989,118.952,342.173,118.089z"/>
</g>
<path fill="#110F08" d="M339.179,102.116c0,0,0.376,0.809,0.992,0.488c0.617-0.322,0.412-0.342,0.412-0.342s0.137,0.391,0.787,0.342
	c0.65-0.049,0.958-0.279,0.958-0.488c0-0.207-1.095,0.278-1.335,0c-0.239-0.275-0.479-0.104-0.958-0.053
	C339.555,102.113,339.179,102.116,339.179,102.116z"/>
<ellipse fill="#8B1FEA" cx="342.616" cy="104.995" rx="0.5" ry="0.562"/>
<ellipse fill="#DD4AC1" cx="358.991" cy="126.836" rx="5.375" ry="2.203"/>
<path fill="#BEA1D6" stroke="#231F20" stroke-width="0.1296" d="M363.148,122.275c0.02,1.896-1.784,3.466-4.03,3.505
	c-2.245,0.039-4.082-1.467-4.101-3.363c-0.021-1.896,1.784-3.465,4.029-3.504C361.292,118.874,363.128,120.379,363.148,122.275z"/>
<g>
	<g>
		<path fill="#FFFFFF" stroke="#FFFFFF" stroke-width="0.1296" d="M374.165,121.123c0.006,0.531-0.537,0.971-1.212,0.982
			c-0.675,0.011-1.227-0.409-1.232-0.939c-0.005-0.531,0.537-0.97,1.212-0.981C373.608,120.171,374.159,120.592,374.165,121.123z"/>
		<path fill="#231F20" d="M373.509,121.341c0.004,0.443-0.316,0.809-0.719,0.815c-0.4,0.008-0.729-0.347-0.733-0.79
			c-0.005-0.444,0.316-0.81,0.718-0.816C373.175,120.542,373.504,120.897,373.509,121.341z"/>
	</g>
	<g>
		<path fill="#FFFFFF" stroke="#FFFFFF" stroke-width="0.1296" d="M371.949,121.52c0.005,0.53-0.536,0.97-1.212,0.981
			c-0.674,0.012-1.227-0.408-1.232-0.938c-0.005-0.53,0.537-0.97,1.212-0.981C371.392,120.569,371.943,120.99,371.949,121.52z"/>
		<path fill="#231F20" d="M371.293,121.739c0.005,0.443-0.317,0.809-0.718,0.816c-0.4,0.006-0.729-0.348-0.734-0.791
			c-0.004-0.444,0.316-0.81,0.718-0.816C370.96,120.94,371.288,121.294,371.293,121.739z"/>
	</g>
</g>
<g>
	<g>
		<path fill="#BC9F24" d="M285.115,118.363c4.768,5.593-5.753,13.525-30.199,20.697c-24.13,7.062-62.184,13.365-105.213,13.192
			c-43.03,0.172-81.081-6.131-105.208-13.193c-24.442-7.172-34.96-15.104-30.193-20.696c10.942-10.853,69.83-15.779,135.402-16.364
			C215.275,102.584,274.173,107.511,285.115,118.363z"/>
		<path fill="#BC9F24" d="M92.365,132.641c-0.519-0.014,6.849-27.057,8.719-55.527c2.865-28.585,0.231-58.597,2.674-67.187
			c-0.391-0.041,25.048-15.158,34.383-0.632c0.168-0.14,27.255,6.322,32.332-0.637c5.162-7.333,33.686-6.772,32.887,5.197
			c-0.553,5.913-3.776,35.026,0.49,63.124c3.085,28.023,13.661,55.03,13.438,55.025C175.647,134.809,134.006,135.022,92.365,132.641
			z"/>
		<path fill="#564912" d="M214.864,123.33c-40.344,3.165-81.127,4.134-122.369,2.614c3.116-11.171,5.584-22.288,7.384-33.351
			c35.476,0.163,70.682-0.678,105.637-2.25C207.827,101.302,210.935,112.298,214.864,123.33z"/>
	</g>
</g>
<g>
	<g>
		<path fill="#BA3A2A" d="M371.053,106.423c-1.187,0.482-2.241,0.304-3.29-0.307h-1.162l3.263,4.131l3.263-4.131h-1.508
			C371.438,106.235,371.251,106.342,371.053,106.423z"/>
		<path fill="#BA3A2A" d="M367.806,106.127l-1.838-0.657l-0.059,0.165c-0.088,0.261-0.184,0.518-0.278,0.777l2.944,1.052
			l0.172-0.485C368.407,106.757,368.095,106.47,367.806,106.127z"/>
		<path fill="#BA3A2A" d="M373,105.216l-2.073,1.294c-0.09,0.194-0.191,0.385-0.317,0.559c-0.024,0.034-0.052,0.062-0.077,0.095
			l0.346,0.555l2.651-1.653L373,105.216z"/>
	</g>
	<polygon fill="#F7EB14" points="368.616,107.62 367.884,107.168 367.098,107.515 367.301,106.68 366.728,106.04 367.585,105.974 
		368.018,105.231 368.345,106.026 369.185,106.208 368.529,106.764 	"/>
</g>
<path fill="#EC1C24" stroke="#EC1C24" stroke-width="0.107" d="M368.84,129.069c0,0,1.941,1.905,3.497-0.14
	C372.337,128.929,370.655,129.931,368.84,129.069z"/>
<g>
	<path fill="#FFDE7F" stroke="#FFDE7F" stroke-width="0.0137" d="M356.614,119.396c0,0-0.1-2.343-1.192-2.515h0.636
		c0,0,0.601,0.35,0.901,1.716c0,0,2.789-0.611,4.517,0.061c0,0-0.218-0.785,0.529-1.776h0.568c0,0-1.073,0.379-0.716,2.515
		C361.858,119.396,359.391,118.917,356.614,119.396z"/>
	<g>
		<g>
			<path fill="#FFDE7F" stroke="#FFDE7F" stroke-width="0.0137" d="M358.987,116.87c0,0-0.081-0.355-0.343-0.19
				c0,0-0.07,0.247,0.081,0.247c0,0,0.162,0.365-0.05,0.235c0,0-0.113,0.023-0.047,0.13c0,0-0.235-0.083-0.185,0.199
				c0,0,0.02,0.541,0.342,0.225c0,0,0.221,0.022-0.121,0.199c0,0-0.231-0.059-0.322-0.399c0,0,0.01-0.318,0.081-0.437
				c0,0,0-0.108,0.121-0.141c0,0,0.141,0.035,0.01-0.177c0,0-0.07-0.141,0.11-0.247c0,0,0.061-0.105,0.262,0.047
				C358.927,116.561,359.229,116.955,358.987,116.87z"/>
			<path fill="#FFDE7F" stroke="#FFDE7F" stroke-width="0.0137" d="M359.267,116.87c0,0,0.083-0.355,0.35-0.19
				c0,0,0.072,0.247-0.083,0.247c0,0-0.164,0.365,0.052,0.235c0,0,0.116,0.023,0.048,0.13c0,0,0.24-0.083,0.188,0.199
				c0,0-0.021,0.541-0.349,0.225c0,0-0.227,0.022,0.123,0.199c0,0,0.236-0.059,0.329-0.399c0,0-0.011-0.318-0.083-0.437
				c0,0,0-0.108-0.124-0.141c0,0-0.144,0.035-0.01-0.177c0,0,0.071-0.141-0.113-0.247c0,0-0.062-0.105-0.267,0.047
				C359.329,116.561,359.021,116.955,359.267,116.87z"/>
		</g>
		<g>
			<g>
				<path fill="#FFDE7F" d="M358.86,117.95c-0.038,0.004-0.232,0.045-0.161,0.137c0.049,0.064,0.044,0.071,0.146,0.071
					c0.045,0,0.091-0.014,0.133-0.032c0.039-0.017,0.077-0.033,0.116-0.051c0.316-0.145,0.399-0.145,0.249,0.001
					c-0.026,0.006-0.015,0.045,0.011,0.039c0.01-0.002,0.02-0.004,0.03-0.007c0.011-0.002,0.017-0.015,0.015-0.025
					c-0.002-0.009-0.005-0.018-0.007-0.027c-0.006-0.021-0.033-0.018-0.04,0c-0.006,0.018-0.012,0.034-0.018,0.052
					c-0.002,0.007,0,0.016,0.005,0.02c0.118,0.109,0.224,0.054,0.228-0.104c0-0.029-0.051-0.056-0.074-0.059
					c-0.055-0.007-0.108-0.019-0.164-0.006c-0.048,0.002-0.093,0.012-0.136,0.03c-0.104,0.072-0.214,0.072-0.331,0.002
					C358.886,117.988,358.886,117.947,358.86,117.95L358.86,117.95z"/>
			</g>
		</g>
		<path fill="#ED2962" stroke="#FFDE7F" stroke-width="0.0274" d="M359.562,117.617c0,0.078-0.039,0.141-0.087,0.141h-0.084
			c-0.048,0-0.087-0.062-0.087-0.141l0,0c0-0.077,0.039-0.14,0.087-0.14h0.084C359.523,117.477,359.562,117.54,359.562,117.617
			L359.562,117.617z"/>
		<path fill="#ED2962" stroke="#FFDE7F" stroke-width="0.0274" d="M358.966,117.618c0,0.077-0.039,0.141-0.087,0.141h-0.084
			c-0.049,0-0.088-0.063-0.088-0.141l0,0c0-0.078,0.039-0.141,0.088-0.141h0.084C358.927,117.477,358.966,117.54,358.966,117.618
			L358.966,117.618z"/>
		<polygon fill="#ED2962" stroke="#FFDE7F" stroke-width="0.0274" points="359.056,116.765 359.184,116.762 359.253,117.052 
			359.195,117.344 359.067,117.346 358.998,117.057 		"/>
		<g>
			<g>
				<path fill="#FFDE7F" d="M359.085,117.451c0,0.111,0,0.222,0,0.333c0,0.053,0.082,0.053,0.082,0c0-0.111,0-0.222,0-0.333
					C359.167,117.398,359.085,117.398,359.085,117.451L359.085,117.451z"/>
			</g>
		</g>
	</g>
	<g>
		<path fill="#FFDE7F" stroke="#FFDE7F" stroke-width="0.0137" d="M360.8,118.024c0,0,0.041,0.383,0.322,0.087
			c0,0,0.401-0.174-0.047,0.153c0,0-0.247,0.218-0.417-0.242C360.489,117.562,360.8,118.024,360.8,118.024z"/>
		<path fill="#FFDE7F" stroke="#FFDE7F" stroke-width="0.0137" d="M360.396,117.959c0,0-0.236,0.315-0.282-0.079
			c0,0-0.199-0.345-0.048,0.157c0,0,0.063,0.31,0.435-0.011S360.396,117.959,360.396,117.959z"/>
		<g>
			<path fill="#FFDE7F" stroke="#FFDE7F" stroke-width="0.0137" d="M360.779,117.121c0,0,0.033-0.283-0.165-0.202
				c0,0-0.101,0.176-0.008,0.201c0,0,0.014,0.303-0.085,0.169c0,0-0.075-0.001-0.059,0.091c0,0-0.125-0.103-0.16,0.12
				c0,0-0.113,0.413,0.157,0.228c0,0,0.13,0.055-0.12,0.131c0,0-0.128-0.084-0.104-0.357c0,0,0.08-0.239,0.15-0.316
				c0,0,0.026-0.082,0.107-0.087c0,0,0.078,0.051,0.047-0.131c0,0-0.01-0.119,0.125-0.169c0,0,0.062-0.069,0.149,0.08
				C360.813,116.877,360.907,117.225,360.779,117.121z"/>
			<path fill="#FFDE7F" stroke="#FFDE7F" stroke-width="0.0137" d="M360.95,117.167c0,0,0.133-0.255,0.258-0.085
				c0,0-0.014,0.198-0.108,0.173c0,0-0.186,0.249-0.023,0.188c0,0,0.065,0.037-0.001,0.105c0,0,0.167-0.022,0.069,0.183
				c0,0-0.139,0.407-0.266,0.111c0,0-0.144-0.021,0.029,0.172c0,0,0.158-0.004,0.294-0.247c0,0,0.067-0.242,0.051-0.344
				c0,0,0.025-0.083-0.042-0.128c0,0-0.096,0.002,0.035-0.136c0,0,0.077-0.095-0.012-0.206c0,0-0.013-0.091-0.174-0.01
				C361.06,116.944,360.78,117.19,360.95,117.167z"/>
		</g>
		<g>
			<g>
				<g>
					<path fill="#FFDE7F" d="M360.787,117.305c-0.062,0.201-0.125,0.403-0.186,0.605c-0.016,0.051,0.064,0.072,0.079,0.021
						c0.062-0.202,0.124-0.403,0.186-0.605C360.882,117.276,360.803,117.254,360.787,117.305L360.787,117.305z"/>
				</g>
			</g>
			<path fill="#ED2962" stroke="#FFDE7F" stroke-width="0.0137" d="M360.988,117.247c-0.021,0.066-0.104,0.103-0.185,0.08
				c-0.082-0.022-0.132-0.095-0.111-0.161s0.104-0.102,0.185-0.079C360.959,117.109,361.009,117.181,360.988,117.247z"/>
		</g>
	</g>
	<rect x="359.519" y="118.448" fill="#ED2962" width="0.169" height="0.137"/>
	<rect x="358.614" y="118.975" fill="#ED2962" width="0.169" height="0.137"/>
	<rect x="359.519" y="118.975" fill="#ED2962" width="0.169" height="0.137"/>
	<rect x="358.614" y="118.448" fill="#ED2962" width="0.169" height="0.137"/>
	<polygon fill="#ED2962" stroke="#A175B2" stroke-width="0.0411" points="359.222,119.041 359.054,119.043 358.966,118.783 
		359.046,118.519 359.214,118.517 359.302,118.777 	"/>
	<ellipse fill="#ED2962" cx="357.571" cy="118.906" rx="0.157" ry="0.124"/>
	<ellipse fill="#ED2962" cx="360.539" cy="118.85" rx="0.158" ry="0.125"/>
	<g>
		<path fill="#ED2962" d="M359.122,116.41c0.012-0.015-0.134-0.147-0.255-0.18c-0.082-0.047-0.311-0.13-0.143-0.259
			c0.195-0.146,0.425,0.039,0.396,0.037c-0.03,0.005,0.2-0.191,0.398-0.047c0.03-0.004,0.187,0.151-0.142,0.267
			c-0.01,0.004-0.177,0.088-0.233,0.23C359.137,116.441,359.13,116.424,359.122,116.41z"/>
		<path fill="none" stroke="#FFDE7F" stroke-width="0.0274" d="M359.122,116.41c0.012-0.015-0.134-0.147-0.255-0.18
			c-0.082-0.047-0.311-0.13-0.143-0.259c0.195-0.146,0.425,0.039,0.396,0.037c-0.03,0.005,0.2-0.191,0.398-0.047
			c0.03-0.004,0.187,0.151-0.142,0.267c-0.01,0.004-0.177,0.088-0.233,0.23C359.137,116.441,359.13,116.424,359.122,116.41z"/>
	</g>
	<g>
		<path fill="#FFDE7F" stroke="#FFDE7F" stroke-width="0.0137" d="M357.776,117.915c0,0,0.2,0.33,0.329-0.059
			c0,0,0.288-0.327,0.022,0.16c0,0-0.13,0.302-0.48-0.041C357.297,117.631,357.776,117.915,357.776,117.915z"/>
		<path fill="#FFDE7F" stroke="#FFDE7F" stroke-width="0.0137" d="M357.383,118.03c0,0-0.079,0.386-0.289,0.049
			c0,0-0.327-0.227,0.023,0.163c0,0,0.189,0.253,0.388-0.195S357.383,118.03,357.383,118.03z"/>
		<g>
			<path fill="#FFDE7F" stroke="#FFDE7F" stroke-width="0.0137" d="M357.371,117.107c0,0-0.09-0.27-0.235-0.111
				c0,0-0.016,0.201,0.078,0.185c0,0,0.142,0.269-0.005,0.19c0,0-0.068,0.031-0.015,0.106c0,0-0.156-0.039-0.093,0.178
				c0,0,0.074,0.422,0.239,0.137c0,0,0.141-0.005-0.053,0.171c0,0-0.151-0.021-0.247-0.278c0,0-0.029-0.25,0.001-0.351
				c0,0-0.012-0.085,0.06-0.123c0,0,0.092,0.012-0.014-0.14c0,0-0.06-0.104,0.042-0.207c0,0,0.026-0.09,0.168,0.009
				C357.298,116.873,357.532,117.148,357.371,117.107z"/>
			<path fill="#FFDE7F" stroke="#FFDE7F" stroke-width="0.0137" d="M357.547,117.077c0,0,0.011-0.287,0.197-0.188
				c0,0,0.073,0.187-0.023,0.203c0,0-0.062,0.305,0.059,0.179c0,0,0.075,0.006,0.044,0.097c0,0,0.141-0.091,0.141,0.137
				c0,0,0.048,0.427-0.193,0.214c0,0-0.139,0.042,0.099,0.143c0,0,0.142-0.071,0.161-0.35c0,0-0.042-0.248-0.1-0.333
				c0,0-0.013-0.085-0.093-0.097c0,0-0.086,0.043-0.026-0.138c0,0,0.029-0.118-0.098-0.182c0,0-0.051-0.076-0.162,0.066
				C357.55,116.829,357.402,117.17,357.547,117.077z"/>
		</g>
		<g>
			<g>
				<path fill="#FFDE7F" d="M357.458,117.275c0.03,0.209,0.06,0.418,0.09,0.627c0.007,0.053,0.087,0.03,0.079-0.021
					c-0.03-0.209-0.06-0.418-0.09-0.627C357.53,117.201,357.451,117.223,357.458,117.275L357.458,117.275z"/>
			</g>
		</g>
		<path fill="#ED2962" stroke="#FFDE7F" stroke-width="0.0137" d="M357.615,117.133c0.01,0.068-0.05,0.136-0.134,0.15
			c-0.083,0.015-0.159-0.029-0.169-0.098c-0.01-0.068,0.05-0.137,0.134-0.151C357.529,117.02,357.605,117.064,357.615,117.133z"/>
	</g>
	<g>
		<path fill="#ED2962" d="M362.189,116.662c0.009-0.013-0.092-0.129-0.183-0.159c-0.062-0.043-0.24-0.119-0.115-0.222
			c0.146-0.119,0.318,0.039,0.296,0.037c-0.022,0.003,0.148-0.162,0.297-0.046c0.024-0.003,0.137,0.121-0.114,0.229
			c-0.007,0.004-0.132,0.079-0.168,0.202C362.199,116.688,362.195,116.675,362.189,116.662z"/>
		<path fill="none" stroke="#A175B2" stroke-width="0.0411" d="M362.189,116.662c0.009-0.013-0.092-0.129-0.183-0.159
			c-0.062-0.043-0.24-0.119-0.115-0.222c0.146-0.119,0.318,0.039,0.296,0.037c-0.022,0.003,0.148-0.162,0.297-0.046
			c0.024-0.003,0.137,0.121-0.114,0.229c-0.007,0.004-0.132,0.079-0.168,0.202C362.199,116.688,362.195,116.675,362.189,116.662z"/>
	</g>
	<g>
		<path fill="#ED2962" d="M355.936,116.662c0.009-0.013-0.092-0.129-0.184-0.159c-0.061-0.043-0.239-0.118-0.114-0.222
			c0.146-0.119,0.318,0.039,0.296,0.037c-0.022,0.003,0.148-0.162,0.298-0.046c0.023-0.003,0.136,0.121-0.115,0.229
			c-0.007,0.004-0.132,0.079-0.168,0.202C355.946,116.688,355.941,116.675,355.936,116.662z"/>
		<path fill="none" stroke="#A175B2" stroke-width="0.0411" d="M355.936,116.662c0.009-0.013-0.092-0.129-0.184-0.159
			c-0.061-0.043-0.239-0.118-0.114-0.222c0.146-0.119,0.318,0.039,0.296,0.037c-0.022,0.003,0.148-0.162,0.298-0.046
			c0.023-0.003,0.136,0.121-0.115,0.229c-0.007,0.004-0.132,0.079-0.168,0.202C355.946,116.688,355.941,116.675,355.936,116.662z"/>
	</g>
</g>
<g>
	
		<ellipse fill="#F9B2F9" stroke="#D4D8DD" stroke-width="0.0793" stroke-miterlimit="10" cx="357.076" cy="121.915" rx="1.869" ry="1.708"/>
	
		<ellipse fill="#F9B2F9" stroke="#D4D8DD" stroke-width="0.0793" stroke-miterlimit="10" cx="360.954" cy="121.915" rx="1.868" ry="1.708"/>
	<ellipse cx="357.089" cy="121.917" rx="1.005" ry="0.94"/>
	<ellipse cx="360.966" cy="121.917" rx="1.005" ry="0.94"/>
	<ellipse fill="#FFFFFF" cx="357.426" cy="122.54" rx="0.132" ry="0.119"/>
	<ellipse fill="#FFFFFF" cx="361.329" cy="122.42" rx="0.132" ry="0.119"/>
	
		<linearGradient id="SVGID_1_" gradientUnits="userSpaceOnUse" x1="353.9937" y1="119.0737" x2="357.8887" y2="119.0737" gradientTransform="matrix(1.0196 -0.0112 -0.0112 0.8356 -4.5132 25.4373)">
		<stop  offset="0" style="stop-color:#FFFFFF"/>
		<stop  offset="0.3148" style="stop-color:#5E00BF"/>
		<stop  offset="1" style="stop-color:#000000"/>
	</linearGradient>
	<path fill="url(#SVGID_1_)" d="M355.075,121.754c0,0,0.1-1.454,1.933-1.577c0,0,1.635-0.258,2.039,1.504L355.075,121.754z"/>
	
		<linearGradient id="SVGID_2_" gradientUnits="userSpaceOnUse" x1="358.459" y1="119.2554" x2="362.3535" y2="119.2554" gradientTransform="matrix(0.9996 -0.0072 -0.0072 0.8815 1.5303 18.4304)">
		<stop  offset="0" style="stop-color:#FFFFFF"/>
		<stop  offset="0.3148" style="stop-color:#5E00BF"/>
		<stop  offset="1" style="stop-color:#000000"/>
	</linearGradient>
	<path fill="url(#SVGID_2_)" d="M358.98,121.801c0,0,0.092-1.534,1.887-1.657c0,0,1.603-0.264,2.006,1.597L358.98,121.801z"/>
	<g>
		<g>
			<g>
				<path fill="#15000C" d="M356.25,121.732c0.102-0.669-0.173-1.183-0.578-1.697c-0.143-0.182-0.396,0.074-0.254,0.254
					c0.313,0.398,0.566,0.821,0.486,1.348C355.87,121.863,356.215,121.96,356.25,121.732L356.25,121.732z"/>
			</g>
		</g>
		<g>
			<g>
				<path fill="#15000C" d="M357.244,121.644c0.09-0.734-0.192-1.269-0.516-1.904c-0.108-0.213-0.427-0.026-0.319,0.186
					c0.293,0.578,0.547,1.052,0.466,1.719C356.846,121.88,357.216,121.877,357.244,121.644L357.244,121.644z"/>
			</g>
		</g>
		<g>
			<g>
				<path fill="#15000C" d="M358.022,121.644c0.086-0.686,0.103-1.38-0.271-1.987c-0.125-0.203-0.444-0.018-0.319,0.186
					c0.338,0.552,0.298,1.185,0.221,1.802C357.623,121.88,357.993,121.877,358.022,121.644L358.022,121.644z"/>
			</g>
		</g>
	</g>
	<g>
		<g>
			<g>
				<path fill="#15000C" d="M362.45,121.516c-0.09-0.501,0.217-0.855,0.54-1.19c0.16-0.165-0.092-0.418-0.252-0.252
					c-0.426,0.441-0.745,0.904-0.631,1.538C362.147,121.837,362.491,121.742,362.45,121.516L362.45,121.516z"/>
			</g>
		</g>
		<g>
			<g>
				<path fill="#15000C" d="M361.374,121.479c-0.088-0.598,0.222-1.003,0.521-1.481c0.126-0.201-0.191-0.386-0.316-0.186
					c-0.368,0.589-0.664,1.049-0.559,1.765C361.055,121.81,361.408,121.71,361.374,121.479L361.374,121.479z"/>
			</g>
		</g>
		<g>
			<g>
				<path fill="#15000C" d="M360.518,121.479c-0.084-0.552-0.098-1.089,0.251-1.557c0.142-0.19-0.177-0.373-0.316-0.186
					c-0.409,0.549-0.387,1.191-0.288,1.84C360.2,121.81,360.554,121.71,360.518,121.479L360.518,121.479z"/>
			</g>
		</g>
	</g>
</g>
<g>
	<circle fill="#25D3C7" cx="359.218" cy="127.141" r="0.772"/>
	<circle fill="#25D3C7" cx="360.623" cy="126.58" r="0.772"/>
	<circle fill="#25D3C7" cx="361.793" cy="125.737" r="0.772"/>
	<circle fill="#25D3C7" cx="357.767" cy="126.767" r="0.772"/>
	<circle fill="#25D3C7" cx="356.503" cy="126.018" r="0.772"/>
</g>
<path fill="#FF0000" d="M496.774,218.379c-1.199-0.42-2.043-1.604-2.101-2.947c-0.037-0.859,0.099-2.678,0.831-3.402
	c0.598-0.594,1.256,0.139,2.065,0.039c0.571-0.07,0.852-0.723,1.599-0.506c1.221,0.354,1.518,2.27,1.574,3.611
	c0.038,0.859-0.241,1.682-0.783,2.316c-0.548,0.641-1.299,1.014-2.112,1.047C497.48,218.553,497.12,218.5,496.774,218.379z
	 M498.464,213.301c-0.357-0.072-0.388,0.264-0.845,0.328c-0.372,0.055-0.958-0.373-1.206-0.098c-0.251,0.277-0.258,0.805-0.23,1.193
	c0.043,0.604,0.453,1.143,1.021,1.342c0.162,0.057,0.328,0.084,0.498,0.08c0.375-0.006,0.72-0.16,0.968-0.436
	c0.251-0.279,0.374-0.646,0.347-1.033C498.976,214.075,499.032,213.5,498.464,213.301z"/>
<circle fill="#231C1C" cx="343.783" cy="131.057" r="0.625"/>
<path fill="#EF35BF" d="M358.883,125.189c-0.306-0.108-0.522-0.411-0.537-0.752c-0.01-0.219,0.026-0.683,0.213-0.867
	c0.152-0.152,0.32,0.034,0.526,0.008c0.146-0.018,0.217-0.183,0.408-0.126c0.311,0.088,0.387,0.576,0.401,0.918
	c0.01,0.221-0.062,0.431-0.199,0.593c-0.14,0.163-0.333,0.258-0.539,0.266C359.062,125.232,358.97,125.22,358.883,125.189z
	 M359.313,123.894c-0.091-0.019-0.099,0.066-0.215,0.082c-0.095,0.015-0.245-0.095-0.308-0.023
	c-0.064,0.068-0.066,0.204-0.059,0.303c0.011,0.154,0.116,0.292,0.26,0.344c0.042,0.014,0.084,0.02,0.128,0.02
	c0.095-0.001,0.184-0.041,0.247-0.111c0.064-0.07,0.096-0.165,0.088-0.264C359.444,124.089,359.458,123.944,359.313,123.894z"/>
<g>
	
		<ellipse fill="#F9B2F9" stroke="#D4D8DD" stroke-width="0.0793" stroke-miterlimit="10" cx="351.076" cy="117.915" rx="1.869" ry="1.708"/>
	
		<ellipse fill="#F9B2F9" stroke="#D4D8DD" stroke-width="0.0793" stroke-miterlimit="10" cx="354.954" cy="117.915" rx="1.868" ry="1.708"/>
	<ellipse cx="351.089" cy="117.917" rx="1.005" ry="0.94"/>
	<ellipse cx="354.966" cy="117.917" rx="1.005" ry="0.94"/>
	<ellipse fill="#FFFFFF" cx="351.426" cy="118.54" rx="0.132" ry="0.119"/>
	<ellipse fill="#FFFFFF" cx="355.329" cy="118.42" rx="0.132" ry="0.119"/>
	
		<linearGradient id="SVGID_3_" gradientUnits="userSpaceOnUse" x1="348.0552" y1="114.2075" x2="351.9502" y2="114.2075" gradientTransform="matrix(1.0196 -0.0112 -0.0112 0.8356 -4.5132 25.4373)">
		<stop  offset="0" style="stop-color:#FFFFFF"/>
		<stop  offset="0.3148" style="stop-color:#5E00BF"/>
		<stop  offset="1" style="stop-color:#000000"/>
	</linearGradient>
	<path fill="url(#SVGID_3_)" d="M349.075,117.754c0,0,0.1-1.454,1.933-1.577c0,0,1.635-0.258,2.039,1.504L349.075,117.754z"/>
	
		<linearGradient id="SVGID_4_" gradientUnits="userSpaceOnUse" x1="352.4229" y1="114.6685" x2="356.3184" y2="114.6685" gradientTransform="matrix(0.9996 -0.0072 -0.0072 0.8815 1.5303 18.4304)">
		<stop  offset="0" style="stop-color:#FFFFFF"/>
		<stop  offset="0.3148" style="stop-color:#5E00BF"/>
		<stop  offset="1" style="stop-color:#000000"/>
	</linearGradient>
	<path fill="url(#SVGID_4_)" d="M352.98,117.801c0,0,0.092-1.534,1.887-1.657c0,0,1.603-0.264,2.006,1.597L352.98,117.801z"/>
	<g>
		<g>
			<g>
				<path fill="#15000C" d="M350.25,117.732c0.102-0.669-0.173-1.183-0.578-1.697c-0.143-0.182-0.396,0.074-0.254,0.254
					c0.313,0.398,0.566,0.821,0.486,1.348C349.87,117.863,350.215,117.96,350.25,117.732L350.25,117.732z"/>
			</g>
		</g>
		<g>
			<g>
				<path fill="#15000C" d="M351.244,117.644c0.09-0.734-0.192-1.269-0.516-1.904c-0.108-0.213-0.427-0.026-0.319,0.186
					c0.293,0.578,0.547,1.052,0.466,1.719C350.846,117.88,351.216,117.877,351.244,117.644L351.244,117.644z"/>
			</g>
		</g>
		<g>
			<g>
				<path fill="#15000C" d="M352.022,117.644c0.086-0.686,0.103-1.38-0.271-1.987c-0.125-0.203-0.444-0.018-0.319,0.186
					c0.338,0.552,0.298,1.185,0.221,1.802C351.623,117.88,351.993,117.877,352.022,117.644L352.022,117.644z"/>
			</g>
		</g>
	</g>
	<g>
		<g>
			<g>
				<path fill="#15000C" d="M356.45,117.516c-0.09-0.501,0.217-0.855,0.54-1.19c0.16-0.165-0.092-0.418-0.252-0.252
					c-0.426,0.441-0.745,0.904-0.631,1.538C356.147,117.837,356.491,117.742,356.45,117.516L356.45,117.516z"/>
			</g>
		</g>
		<g>
			<g>
				<path fill="#15000C" d="M355.374,117.479c-0.088-0.598,0.222-1.003,0.521-1.481c0.126-0.201-0.191-0.386-0.316-0.186
					c-0.368,0.589-0.664,1.049-0.559,1.765C355.055,117.81,355.408,117.71,355.374,117.479L355.374,117.479z"/>
			</g>
		</g>
		<g>
			<g>
				<path fill="#15000C" d="M354.518,117.479c-0.084-0.552-0.098-1.089,0.251-1.557c0.142-0.19-0.177-0.373-0.316-0.186
					c-0.409,0.549-0.387,1.191-0.288,1.84C354.2,117.81,354.554,117.71,354.518,117.479L354.518,117.479z"/>
			</g>
		</g>
	</g>
</g>
</svg>
