<?xml version="1.0" encoding="utf-8"?>
<!-- Generator: Adobe Illustrator 16.0.0, SVG Export Plug-In . SVG Version: 6.00 Build 0)  -->
<!DOCTYPE svg PUBLIC "-//W3C//DTD SVG 1.1//EN" "http://www.w3.org/Graphics/SVG/1.1/DTD/svg11.dtd">
<svg version="1.1" id="Layer_1" xmlns="http://www.w3.org/2000/svg" xmlns:xlink="http://www.w3.org/1999/xlink" x="0px" y="0px"
	 width="76.636px" height="37.607px" viewBox="0 0 76.636 37.607" enable-background="new 0 0 76.636 37.607" xml:space="preserve">
<path fill="#DD4AC1" d="M76.374,95.675c0,9.993-15.486,18.111-34.594,18.111c-19.103,0-34.591-8.118-34.591-18.111
	c0-10.01,15.488-18.11,34.591-18.11C60.887,77.565,76.374,85.666,76.374,95.675z"/>
<path fill="#BEA1D6" stroke="#231F20" stroke-width="1.0653" d="M73.558,58.179C73.716,73.766,58.89,86.668,40.43,86.988
	C21.976,87.31,6.88,74.93,6.719,59.34C6.55,43.752,21.382,30.86,39.836,30.538C58.296,30.216,73.387,42.595,73.558,58.179z"/>
<path fill="#F7F372" stroke="#D4D8DD" stroke-width="0.652" stroke-miterlimit="10" d="M23.641,41.175
	c8.49,0,15.361,6.286,15.361,14.03c0,7.766-6.871,14.058-15.361,14.058c-8.473,0-15.356-6.292-15.356-14.058
	C8.285,47.461,15.167,41.175,23.641,41.175z"/>
<path fill="#F7F372" stroke="#D4D8DD" stroke-width="0.652" stroke-miterlimit="10" d="M55.514,41.175
	c8.477,0,15.353,6.286,15.353,14.03c0,7.766-6.876,14.058-15.353,14.058c-8.486,0-15.365-6.292-15.365-14.058
	C40.149,47.461,47.028,41.175,55.514,41.175z"/>
<path d="M23.75,47.501c4.567,0,8.265,3.453,8.265,7.722c0,4.272-3.698,7.738-8.265,7.738c-4.561,0-8.257-3.466-8.257-7.738
	C15.493,50.954,19.189,47.501,23.75,47.501z"/>
<path d="M55.615,47.501c4.567,0,8.266,3.453,8.266,7.722c0,4.272-3.698,7.738-8.266,7.738c-4.56,0-8.251-3.466-8.251-7.738
	C47.364,50.954,51.055,47.501,55.615,47.501z"/>
<path fill="#FFFFFF" d="M26.515,59.374c0.599,0,1.084,0.442,1.084,0.97c0,0.547-0.485,0.99-1.084,0.99
	c-0.594,0-1.087-0.443-1.087-0.99C25.427,59.816,25.92,59.374,26.515,59.374z"/>
<path fill="#FFFFFF" d="M58.602,58.394c0.597,0,1.084,0.433,1.084,0.979c0,0.53-0.487,0.97-1.084,0.97
	c-0.601,0-1.091-0.439-1.091-0.97C57.511,58.827,58.001,58.394,58.602,58.394z"/>
<linearGradient id="SVGID_1_" gradientUnits="userSpaceOnUse" x1="6.3262" y1="41.6401" x2="38.3433" y2="41.6401" gradientTransform="matrix(1.0196 -0.0112 -0.0112 0.8356 1.2916 12.7344)">
	<stop  offset="0" style="stop-color:#FFFFFF"/>
	<stop  offset="0.3148" style="stop-color:#5E00BF"/>
	<stop  offset="1" style="stop-color:#000000"/>
</linearGradient>
<path fill="url(#SVGID_1_)" d="M7.189,53.9c0,0,0.822-11.953,15.891-12.966c0,0,13.438-2.118,16.756,12.362L7.189,53.9z"/>
<linearGradient id="SVGID_2_" gradientUnits="userSpaceOnUse" x1="38.6694" y1="43.3345" x2="70.687" y2="43.3345" gradientTransform="matrix(0.9996 -0.0072 -0.0072 0.8815 1.004 9.5599)">
	<stop  offset="0" style="stop-color:#FFFFFF"/>
	<stop  offset="0.3148" style="stop-color:#5E00BF"/>
	<stop  offset="1" style="stop-color:#000000"/>
</linearGradient>
<path fill="url(#SVGID_2_)" d="M39.29,54.283c0,0,0.759-12.61,15.517-13.621c0,0,13.175-2.168,16.49,13.124L39.29,54.283z"/>
<g>
	<path fill="#25D3C7" d="M47.598,98.179c0,3.506-2.846,6.358-6.349,6.358c-3.508,0-6.349-2.853-6.349-6.358
		c0-3.507,2.841-6.343,6.349-6.343C44.752,91.836,47.598,94.672,47.598,98.179z"/>
	<path fill="#25D3C7" d="M59.142,93.565c0,3.507-2.839,6.349-6.349,6.349c-3.511,0-6.35-2.842-6.35-6.349
		c0-3.511,2.839-6.353,6.35-6.353C56.303,87.212,59.142,90.054,59.142,93.565z"/>
	<path fill="#25D3C7" d="M68.763,86.635c0,3.507-2.839,6.349-6.35,6.349c-3.503,0-6.349-2.842-6.349-6.349s2.846-6.343,6.349-6.343
		C65.924,80.292,68.763,83.128,68.763,86.635z"/>
	<path fill="#25D3C7" d="M35.667,95.105c0,3.507-2.842,6.349-6.347,6.349c-3.507,0-6.349-2.842-6.349-6.349
		c0-3.51,2.842-6.349,6.349-6.349C32.825,88.756,35.667,91.595,35.667,95.105z"/>
	<path fill="#25D3C7" d="M25.278,88.947c0,3.5-2.846,6.35-6.349,6.35c-3.509,0-6.351-2.85-6.351-6.35
		c0-3.506,2.842-6.342,6.351-6.342C22.432,82.605,25.278,85.441,25.278,88.947z"/>
</g>
<path fill="#ED4C37" d="M38.491,82.131c-2.515-0.893-4.29-3.379-4.409-6.181c-0.081-1.799,0.211-5.61,1.75-7.128
	c1.249-1.255,2.629,0.279,4.324,0.064c1.197-0.145,1.788-1.504,3.355-1.037c2.557,0.725,3.181,4.738,3.295,7.547
	c0.088,1.815-0.503,3.54-1.631,4.872c-1.154,1.339-2.731,2.121-4.43,2.185C39.967,82.484,39.209,82.39,38.491,82.131z
	 M42.028,71.488c-0.752-0.154-0.812,0.547-1.765,0.674c-0.779,0.121-2.014-0.778-2.534-0.194c-0.525,0.563-0.542,1.678-0.482,2.49
	c0.092,1.269,0.951,2.399,2.136,2.825c0.35,0.114,0.695,0.161,1.051,0.161c0.782-0.007,1.51-0.339,2.03-0.916
	c0.523-0.577,0.785-1.355,0.725-2.168C43.109,73.091,43.222,71.897,42.028,71.488z"/>
<g>
	<path fill="#FFDE7F" stroke="#FFDE7F" stroke-width="0.1469" d="M12.78,37.514c0,0-1.072-25.11-12.769-26.948h6.812
		c0,0,6.438,3.74,9.649,18.391c0,0,29.864-6.55,48.38,0.641c0,0-2.339-8.402,5.668-19.032h6.091c0,0-11.497,4.062-7.668,26.948
		C68.944,37.514,42.521,32.36,12.78,37.514z"/>
	<g>
		<g>
			<path fill="#FFDE7F" stroke="#FFDE7F" stroke-width="0.1469" d="M38.189,10.437c0,0-0.861-3.805-3.671-2.023
				c0,0-0.75,2.634,0.871,2.634c0,0,1.731,3.91-0.54,2.53c0,0-1.213,0.255-0.503,1.379c0,0-2.521-0.876-1.973,2.134
				c0,0,0.211,5.795,3.664,2.409c0,0,2.368,0.249-1.297,2.134c0,0-2.48-0.634-3.451-4.272c0,0,0.107-3.409,0.866-4.686
				c0,0,0-1.147,1.293-1.502c0,0,1.505,0.369,0.113-1.886c0,0-0.755-1.51,1.179-2.658c0,0,0.649-1.131,2.809,0.507
				C37.548,7.139,40.78,11.36,38.189,10.437z"/>
			<path fill="#FFDE7F" stroke="#FFDE7F" stroke-width="0.1469" d="M41.196,10.437c0,0,0.879-3.805,3.745-2.023
				c0,0,0.771,2.634-0.886,2.634c0,0-1.759,3.91,0.554,2.53c0,0,1.241,0.255,0.513,1.379c0,0,2.574-0.876,2.014,2.134
				c0,0-0.215,5.795-3.734,2.409c0,0-2.427,0.249,1.318,2.134c0,0,2.53-0.634,3.523-4.272c0,0-0.114-3.409-0.886-4.686
				c0,0,0-1.147-1.319-1.502c0,0-1.54,0.369-0.104-1.886c0,0,0.762-1.51-1.215-2.658c0,0-0.664-1.131-2.866,0.507
				C41.853,7.139,38.551,11.36,41.196,10.437z"/>
		</g>
		<g>
			<g>
				<path fill="#FFDE7F" d="M36.83,22.016c-0.629-0.056-1.426,0.139-1.669,0.814c-0.176,0.489-0.055,1.075,0.496,1.268
					c1.186,0.416,2.414-0.153,3.487-0.648c1-0.461,1.897-0.831,3.006-0.924c0.293-0.024,0.584-0.02,0.877-0.008
					c0.934-0.004,0.902,0.534-0.093,1.617c-0.491-0.078-0.652-0.336-0.481-0.776c-0.123-0.032-0.246-0.065-0.369-0.097
					c0.073,0.164,0.064,0.197-0.028,0.097c-0.283-0.025-0.28,0.416,0,0.44c0.222,0.02,0.237,0.006,0.43-0.117
					c0.083-0.054,0.129-0.151,0.102-0.249c-0.029-0.095-0.055-0.191-0.077-0.289c-0.043-0.168-0.249-0.204-0.369-0.097
					c-0.69,0.619,0.022,1.274,0.677,1.513c0.86,0.313,1.925-0.708,1.631-1.594c-0.395-1.189-2.036-0.921-3.006-0.805
					c-0.886,0.106-1.723,0.535-2.52,0.908c-0.616,0.288-1.228,0.529-1.89,0.683c-1.597,0.371-1.567-1.417-0.203-1.296
					C37.113,22.481,37.111,22.041,36.83,22.016L36.83,22.016z"/>
			</g>
		</g>
		<path fill="#ED2962" stroke="#FFDE7F" stroke-width="0.2938" d="M44.35,18.451c0,0.839-0.416,1.507-0.933,1.507h-0.906
			c-0.517,0-0.937-0.668-0.937-1.507l0,0c0-0.839,0.42-1.503,0.937-1.503h0.906C43.934,16.947,44.35,17.612,44.35,18.451
			L44.35,18.451z"/>
		<path fill="#ED2962" stroke="#FFDE7F" stroke-width="0.2938" d="M37.971,18.451c0,0.839-0.417,1.507-0.936,1.507h-0.899
			c-0.521,0-0.943-0.668-0.943-1.507l0,0c0-0.839,0.421-1.503,0.943-1.503h0.899C37.553,16.947,37.971,17.612,37.971,18.451
			L37.971,18.451z"/>
		<polygon fill="#ED2962" stroke="#FFDE7F" stroke-width="0.2938" points="38.934,9.33 40.296,9.29 41.044,12.404 40.424,15.524 
			39.055,15.544 38.31,12.452 		"/>
		<g>
			<g>
				<path fill="#FFDE7F" d="M39.239,16.675c0,1.185,0,2.369,0,3.554c0,0.568,0.881,0.568,0.881,0c0-1.185,0-2.369,0-3.554
					C40.12,16.107,39.239,16.107,39.239,16.675L39.239,16.675z"/>
			</g>
		</g>
	</g>
	<g>
		<path fill="#FFDE7F" stroke="#FFDE7F" stroke-width="0.1469" d="M57.612,22.8c0,0,0.43,4.101,3.449,0.946
			c0,0,4.299-1.859-0.503,1.631c0,0-2.638,2.346-4.463-2.591C54.276,17.863,57.612,22.8,57.612,22.8z"/>
		<path fill="#FFDE7F" stroke="#FFDE7F" stroke-width="0.1469" d="M53.287,22.108c0,0-2.527,3.396-3.023-0.832
			c0,0-2.128-3.705-0.521,1.678c0,0,0.675,3.322,4.654-0.107C58.38,19.411,53.287,22.108,53.287,22.108z"/>
		<g>
			<path fill="#FFDE7F" stroke="#FFDE7F" stroke-width="0.1469" d="M57.383,13.142c0,0,0.359-3.034-1.765-2.183
				c0,0-1.081,1.886-0.087,2.16c0,0,0.144,3.245-0.917,1.822c0,0-0.802-0.023-0.634,0.963c0,0-1.332-1.091-1.711,1.292
				c0,0-1.215,4.416,1.685,2.426c0,0,1.396,0.587-1.286,1.406c0,0-1.372-0.899-1.117-3.832c0,0,0.859-2.55,1.617-3.386
				c0,0,0.275-0.884,1.142-0.924c0,0,0.835,0.547,0.507-1.396c0,0-0.111-1.277,1.346-1.822c0,0,0.657-0.731,1.597,0.859
				C57.759,10.526,58.752,14.25,57.383,13.142z"/>
			<path fill="#FFDE7F" stroke="#FFDE7F" stroke-width="0.1469" d="M59.219,13.639c0,0,1.43-2.735,2.769-0.921
				c0,0-0.147,2.136-1.154,1.861c0,0-1.986,2.658-0.255,2.017c0,0,0.704,0.393-0.007,1.124c0,0,1.781-0.249,0.734,1.95
				c0,0-1.486,4.366-2.842,1.188c0,0-1.544-0.208,0.306,1.839c0,0,1.697-0.041,3.154-2.634c0,0,0.725-2.591,0.547-3.685
				c0,0,0.269-0.899-0.457-1.379c0,0-1.026,0.023,0.373-1.439c0,0,0.825-1.025-0.124-2.222c0,0-0.138-0.955-1.873-0.104
				C60.39,11.232,57.397,13.874,59.219,13.639z"/>
		</g>
		<g>
			<g>
				<g>
					<path fill="#FFDE7F" d="M57.476,15.112c-0.672,2.161-1.337,4.323-1.997,6.487c-0.166,0.545,0.685,0.776,0.85,0.234
						c0.66-2.164,1.326-4.326,1.997-6.487C58.495,14.802,57.644,14.571,57.476,15.112L57.476,15.112z"/>
				</g>
			</g>
			<path fill="#ED2962" stroke="#FFDE7F" stroke-width="0.1469" d="M59.628,14.478c-0.218,0.711-1.107,1.107-1.983,0.859
				c-0.879-0.235-1.412-1.006-1.19-1.718c0.218-0.708,1.106-1.086,1.982-0.853C59.317,13.015,59.85,13.786,59.628,14.478z"/>
		</g>
	</g>
	<rect x="43.89" y="27.343" fill="#ED2962" width="1.809" height="1.46"/>
	<rect x="34.197" y="32.994" fill="#ED2962" width="1.806" height="1.463"/>
	<rect x="43.89" y="32.994" fill="#ED2962" width="1.809" height="1.463"/>
	<rect x="34.197" y="27.343" fill="#ED2962" width="1.806" height="1.46"/>
	<polygon fill="#ED2962" stroke="#A175B2" stroke-width="0.4407" points="40.712,33.702 38.907,33.726 37.968,30.94 38.827,28.115 
		40.625,28.098 41.565,30.877 	"/>
	<path fill="#ED2962" d="M24.712,32.256c0,0.738-0.758,1.326-1.689,1.326c-0.923,0-1.681-0.587-1.681-1.326
		c0-0.745,0.758-1.355,1.681-1.355C23.954,30.9,24.712,31.511,24.712,32.256z"/>
	<path fill="#ED2962" d="M56.504,31.655c0,0.755-0.759,1.339-1.691,1.339s-1.685-0.584-1.685-1.339c0-0.731,0.752-1.342,1.685-1.342
		S56.504,30.924,56.504,31.655z"/>
	<g>
		<path fill="#ED2962" d="M39.644,5.533c0.12-0.167-1.436-1.581-2.745-1.941c-0.883-0.503-3.314-1.384-1.517-2.762
			c2.082-1.567,4.547,0.416,4.237,0.394c-0.318,0.046,2.14-2.054,4.268-0.508c0.312-0.037,2.007,1.627-1.506,2.855
			c-0.106,0.044-1.912,0.947-2.511,2.472C39.803,5.862,39.728,5.692,39.644,5.533z"/>
		<path fill="none" stroke="#FFDE7F" stroke-width="0.2938" d="M39.644,5.533c0.12-0.167-1.436-1.581-2.745-1.941
			c-0.883-0.503-3.314-1.384-1.517-2.762c2.082-1.567,4.547,0.416,4.237,0.394c-0.318,0.046,2.14-2.054,4.268-0.508
			c0.312-0.037,2.007,1.627-1.506,2.855c-0.106,0.044-1.912,0.947-2.511,2.472C39.803,5.862,39.728,5.692,39.644,5.533z"/>
	</g>
	<g>
		<path fill="#FFDE7F" stroke="#FFDE7F" stroke-width="0.1469" d="M25.223,21.635c0,0,2.143,3.534,3.523-0.634
			c0,0,3.087-3.49,0.242,1.718c0,0-1.398,3.245-5.143-0.443C20.097,18.602,25.223,21.635,25.223,21.635z"/>
		<path fill="#FFDE7F" stroke="#FFDE7F" stroke-width="0.1469" d="M21.016,22.863c0,0-0.842,4.145-3.094,0.52
			c0,0-3.505-2.422,0.248,1.762c0,0,2.023,2.705,4.158-2.091C24.464,18.243,21.016,22.863,21.016,22.863z"/>
		<g>
			<path fill="#FFDE7F" stroke="#FFDE7F" stroke-width="0.1469" d="M20.884,12.991c0,0-0.96-2.882-2.52-1.189
				c0,0-0.173,2.153,0.839,1.968c0,0,1.52,2.882-0.052,2.047c0,0-0.735,0.339-0.158,1.131c0,0-1.673-0.416-0.995,1.903
				c0,0,0.791,4.52,2.565,1.459c0,0,1.509-0.04-0.57,1.846c0,0-1.623-0.228-2.641-2.993c0,0-0.317-2.678,0.012-3.738
				c0,0-0.129-0.926,0.637-1.326c0,0,0.992,0.128-0.144-1.501c0,0-0.643-1.107,0.446-2.215c0,0,0.277-0.965,1.802,0.104
				C20.105,10.486,22.61,13.432,20.884,12.991z"/>
			<path fill="#FFDE7F" stroke="#FFDE7F" stroke-width="0.1469" d="M22.766,12.661c0,0,0.121-3.083,2.111-2.014
				c0,0,0.778,2.014-0.251,2.174c0,0-0.663,3.267,0.625,1.925c0,0,0.802,0.067,0.473,1.03c0,0,1.509-0.963,1.509,1.459
				c0,0,0.518,4.584-2.071,2.306c0,0-1.485,0.439,1.064,1.526c0,0,1.517-0.771,1.718-3.745c0,0-0.449-2.654-1.072-3.577
				c0,0-0.136-0.901-0.999-1.029c0,0-0.919,0.465-0.282-1.485c0,0,0.309-1.253-1.052-1.943c0,0-0.542-0.819-1.733,0.715
				C22.807,10.004,21.212,13.666,22.766,12.661z"/>
		</g>
		<g>
			<g>
				<path fill="#FFDE7F" d="M21.82,14.786c0.322,2.236,0.64,4.473,0.966,6.708c0.082,0.561,0.931,0.321,0.85-0.234
					c-0.326-2.235-0.644-4.472-0.966-6.708C22.589,13.991,21.74,14.23,21.82,14.786L21.82,14.786z"/>
			</g>
		</g>
		<path fill="#ED2962" stroke="#FFDE7F" stroke-width="0.1469" d="M23.496,13.263c0.106,0.731-0.534,1.47-1.433,1.614
			c-0.891,0.167-1.701-0.312-1.81-1.044c-0.104-0.738,0.535-1.47,1.433-1.614C22.582,12.051,23.389,12.533,23.496,13.263z"/>
	</g>
	<g>
		<path fill="#ED2962" d="M72.496,8.207c0.096-0.13-0.993-1.362-1.97-1.698c-0.669-0.456-2.563-1.272-1.231-2.357
			c1.562-1.279,3.426,0.392,3.188,0.375c-0.24,0.038,1.598-1.728,3.188-0.471c0.254-0.031,1.468,1.278-1.217,2.44
			c-0.08,0.038-1.43,0.852-1.813,2.164C72.598,8.5,72.55,8.349,72.496,8.207z"/>
		<path fill="none" stroke="#A175B2" stroke-width="0.4407" d="M72.496,8.207c0.096-0.13-0.993-1.362-1.97-1.698
			c-0.669-0.456-2.563-1.272-1.231-2.357c1.562-1.279,3.426,0.392,3.188,0.375c-0.24,0.038,1.598-1.728,3.188-0.471
			c0.254-0.031,1.468,1.278-1.217,2.44c-0.08,0.038-1.43,0.852-1.813,2.164C72.598,8.5,72.55,8.349,72.496,8.207z"/>
	</g>
	<g>
		<path fill="#ED2962" d="M5.517,8.207c0.095-0.129-0.986-1.364-1.974-1.696C2.888,6.052,0.972,5.24,2.33,4.149
			c1.563-1.277,3.411,0.396,3.174,0.377C5.263,4.565,7.102,2.799,8.691,4.055c0.255-0.031,1.471,1.279-1.218,2.439
			C7.392,6.532,6.044,7.347,5.663,8.659C5.621,8.5,5.573,8.349,5.517,8.207z"/>
		<path fill="none" stroke="#A175B2" stroke-width="0.4407" d="M5.517,8.207c0.095-0.129-0.986-1.364-1.974-1.696
			C2.888,6.052,0.972,5.24,2.33,4.149c1.563-1.277,3.411,0.396,3.174,0.377C5.263,4.565,7.102,2.799,8.691,4.055
			c0.255-0.031,1.471,1.279-1.218,2.439C7.392,6.532,6.044,7.347,5.663,8.659C5.621,8.5,5.573,8.349,5.517,8.207z"/>
	</g>
</g>
</svg>
