<?xml version="1.0" encoding="utf-8"?>
<!-- Generator: Adobe Illustrator 16.0.0, SVG Export Plug-In . SVG Version: 6.00 Build 0)  -->
<!DOCTYPE svg PUBLIC "-//W3C//DTD SVG 1.1//EN" "http://www.w3.org/Graphics/SVG/1.1/DTD/svg11.dtd">
<svg version="1.1" id="Layer_1" xmlns="http://www.w3.org/2000/svg" xmlns:xlink="http://www.w3.org/1999/xlink" x="0px" y="0px"
	 width="244.621px" height="118.359px" viewBox="12.379 7.363 244.621 118.359"
	 enable-background="new 12.379 7.363 244.621 118.359" xml:space="preserve">
<rect x="47.5" y="94.833" fill="#F9CDF9" stroke="#F83FFF" width="209" height="22"/>
<g>
	<path fill="#F2FF96" d="M68.388,106.789c0.812-0.76,0.008-2.381,0.089-3.978c0.057-1.115,1.032-2.406,0.758-3.866
		c-0.219-1.162-1.733-2.084-2.149-3.438c-0.358-1.164,1.02-3.016,0.522-4.303c-0.447-1.158-0.588-2.568-1.142-3.812
		c-0.51-1.145-1.545-2.141-2.142-3.348c-0.56-1.131-2.244-1.733-2.876-2.914c-0.601-1.118-1.157-2.287-1.82-3.442
		c-0.635-1.106-0.297-2.823-0.986-3.956c-0.667-1.095-1.889-1.881-2.604-2.994c-0.694-1.08-0.753-2.617-1.491-3.712
		c-0.72-1.068-3.149-0.974-3.91-2.049c-0.745-1.054-0.178-3.066-0.959-4.124c-0.75-1.014-1.11-2.325-1.863-3.301
		c-0.771-1-2.836-0.966-3.608-1.923c-0.793-0.985-0.126-3.161-0.917-4.099c-0.817-0.969-3.016-0.729-3.826-1.644
		c-0.844-0.953-1.786-1.76-2.618-2.651c-0.872-0.934-1.075-2.461-1.929-3.323c-0.903-0.912-1.721-1.875-2.598-2.702
		c-0.942-0.887-1.247-2.463-2.151-3.247c-0.987-0.855-2.075-1.606-3.01-2.33c-1.049-0.814-3.447,0.39-4.417-0.249
		c-1.141-0.751-1.597-2.32-2.606-2.811c-1.298-0.632-2.364-1.71-3.403-1.879c-1.476-0.24-2.919,0.498-3.758,1.283
		c-0.812,0.76,0.188,2.197,0.107,3.793c-0.056,1.114-0.721,2.256-0.447,3.715c0.219,1.163-0.544,2.7-0.128,4.053
		c0.359,1.166,1.179,2.291,1.677,3.579c0.447,1.157,0.337,2.643,0.891,3.886c0.51,1.144,1.848,1.973,2.444,3.18
		c0.56,1.131,0.372,2.71,1.003,3.889c0.601,1.12,1.654,2.048,2.317,3.203c0.635,1.105,1.371,2.194,2.06,3.327
		c0.666,1.094,2.681,1.358,3.396,2.472c0.694,1.081,0.682,2.628,1.42,3.722c0.721,1.066,0.2,3.023,0.961,4.1
		c0.745,1.055,2.444,1.45,3.226,2.508c0.75,1.014,1.77,1.803,2.522,2.779c0.771,1,1.912,1.674,2.684,2.632
		c0.793,0.985,0.673,2.694,1.463,3.632c0.817,0.969,2.807,0.885,3.618,1.801c0.844,0.953,1.633,1.881,2.465,2.771
		c0.872,0.935,0.892,2.624,1.746,3.485c0.903,0.912,2.279,1.272,3.156,2.1c0.941,0.889,1.583,2.01,2.488,2.793
		c0.987,0.855,1.442,2.281,2.376,3.005c1.049,0.813,2.65,0.729,3.62,1.368c1.141,0.751,1.535,2.656,2.544,3.148
		c1.298,0.631,2.898,0.279,3.938,0.449C65.996,107.607,67.549,107.576,68.388,106.789z"/>
</g>
<g>
	<path fill="#F4B6FF" d="M69.081,93.636c9.966,1.789,1.454,6.963,10.338,14.754c-4.413-6.456-6.661-4.9-6.07-3.492
		c5.268-12.998,4.953-19.791,6.939-18.166c-8.17,9.941-8.802-4.35-8.339,9.357c3.638-16.152,4.687-3.9,1.164-18.608
		c0.09,9.272,1.487,12.487-1.494,3.323c6.701,6.883,1.618-0.637,0.826-2.891c3.014-3.218,0.387-3.776-0.979-3.789
		c-0.414,0.729,2.36-0.951,1.123-5.125c-4.776-4.13-2.925-1.587-5.007-3.906c6.481-3.636,2.307-0.925,1.224,6.328
		c-0.77-17.803-4.24-2.242,0.234-12.792c-1.718-7.561,4.586-8.344,2.327,0.134c-4.672-9.581-8.786-7.666-6.763-9.633
		c5.12,4.498,1.616,3.886,0.802,6.341c-0.843-13.895-5.613-5.907,0.775-16.465c1.137,2.024-0.007,12.77-4.961,6.075
		c3.529,1.013,4.639-13.685-2.215,1.206c3.842-5.337-0.887-15.145,3.293-8.327c-1.966-3.247-6.625-3.916-5.993-10.318
		c-4.425,6.594,2.224,4.578-0.204,3.543c2.271-7.845-2.258-7.183-4.05,3.125c-0.036-16.764,0.507-7.695-4.38-7.302
		c-2.107-8.245,4.544-2.46-0.848-11.135c0.167,1.777-1.679-0.982,1.68-6.083c-6.625,14.491-9.078,13.322-3.162,8.059
		c-7.817-1.681-2.618-0.063-1.865-10.486c-1.443,15.625-3.307,2.569-2.35,18.25c1.853-1.747-0.227-7.855-1.483-3.193
		c0.833-6.897-4.789,4.694-8.014-3.635c-0.42,2.187,3.117,9.388,3.891,7.947c-0.925-3.206-0.559,3.997-0.502,3.375
		c-1.633,8.227,2.888-4.208,3.522,8.696c-3.821-5.586-4.264-6.903,1.868,8.484c-1.462-11.248,1.41-2.219,1.766-4.082
		c-5.936-7.341-6.337,10.771-3.496,8.398c-3.667-3.042,3.983,4.064,0.509,5.359c4.847-11.671,3.995,2.431,3.399-7.086
		c-1.66,5.856-5.309,9.893,3.438,1.417c0.37,10.002-4.095,1.785-7.326,8.494c6.92-3.373,8.417,0.082,7.186-1.256
		c4.447,6.539,0.91,13.388-2.405,11.9c1.601-2.184,7.984-0.73,4.196,7.628c4.326-10.867,0.605-5.124-2.219-10.664
		c0.863,11.64,5.752,2.015,6.288,18.306c5.111-15.371,6.646-6.053-1.342,2.979c0.758,0.37,3.174-11.988,8.335-0.903
		c-7.154,6.773-0.957-6.619,0.37-6.376c-6.208,12.853,3.756,16.071,5.483,14.617c0.63,1.245-3.028-7.536-1.327-0.552
		c3.804,8.771-4.45-4.957-2.47-5.254c4.044,8.363,6.479,15.293,8.398,15.096c2.437-13.428-2.497-7.391,2.619,1.398
		C71.038,98.007,72.18,110.984,69.081,93.636z"/>
</g>
<g>
	<path fill="#F2FF96" d="M69.669,107.873c1.061,0.084,2.935,1.321,3.98,0.215c0.71-0.75-0.565-3.195,0.119-4.433
		c0.534-0.966,3.157-1.053,3.667-2.286c0.436-1.054-0.143-2.615,0.27-3.849c0.369-1.101,1.062-2.177,1.409-3.407
		c0.318-1.129-0.288-2.546,0.01-3.775c0.278-1.148,2.247-1.965,2.505-3.194c0.244-1.164-0.185-2.515,0.039-3.744
		c0.214-1.175,0.006-2.456,0.201-3.688c0.187-1.183,0.851-2.326,1.019-3.557c0.163-1.191,0.267-2.419,0.41-3.65
		c0.139-1.195-0.479-2.491-0.359-3.723c0.117-1.204-0.288-2.458-0.19-3.69c0.095-1.207,1.243-2.349,1.318-3.581
		c0.076-1.238,0.748-2.445,0.802-3.661c0.054-1.241-0.592-2.504-0.56-3.719c0.032-1.244-1.501-2.489-1.493-3.701
		c0.009-1.247,0.924-2.46,0.909-3.669c-0.016-1.249,0.464-2.485,0.423-3.69c-0.043-1.253-1.051-2.429-1.12-3.629
		c-0.072-1.257-0.503-2.432-0.604-3.625c-0.106-1.26,1.483-2.641,1.347-3.823c-0.146-1.266-0.205-2.519-0.383-3.686
		c-0.194-1.271-2.158-2.158-2.39-3.302c-0.259-1.28,1.082-2.839,0.778-3.945c-0.355-1.294-1.839-2.083-2.25-3.115
		c-0.525-1.316-1.491-1.918-2.1-2.762c-0.895-1.24-0.881-2.183-1.934-2.265c-1.06-0.083-2.5-0.428-3.545,0.679
		c-0.71,0.751-1.099,2.092-1.782,3.328c-0.534,0.966,0.171,2.594-0.339,3.829c-0.436,1.053-2.092,1.7-2.505,2.932
		c-0.369,1.1-0.235,2.413-0.583,3.645c-0.318,1.129-1.393,2.111-1.69,3.342c-0.278,1.148,0.711,2.615,0.453,3.844
		c-0.244,1.164-0.106,2.406-0.33,3.636c-0.214,1.175-1.822,2.127-2.017,3.359c-0.187,1.183,0.577,2.522,0.409,3.752
		c-0.163,1.191-1.691,2.228-1.834,3.459c-0.139,1.196,1.621,2.604,1.501,3.834c-0.117,1.203-1.14,2.326-1.238,3.558
		c-0.095,1.208-1.542,2.337-1.617,3.569c-0.076,1.238,0.509,2.512,0.456,3.729c-0.054,1.241-0.938,2.455-0.969,3.669
		c-0.032,1.244,2.065,2.509,2.056,3.723c-0.009,1.247-1.031,2.47-1.015,3.68c0.016,1.249,0.707,2.456,0.748,3.661
		c0.043,1.253-1.794,2.576-1.725,3.775c0.072,1.259,1.828,2.379,1.928,3.572c0.106,1.26-1.178,2.633-1.042,3.814
		c0.146,1.266,0.171,2.545,0.349,3.712c0.194,1.271,0.334,2.556,0.566,3.7c0.259,1.279,1.735,2.238,2.038,3.346
		c0.355,1.295,0.996,2.368,1.407,3.4c0.525,1.316,1.714,1.896,2.323,2.74C68.387,107.447,68.617,107.791,69.669,107.873z"/>
</g>
<path fill="#FA00F4" d="M57.662,104.916c-4.652,4.019-19.22,2.746-21.364-3.981c-3.083-10.03,11.602-6.3,19.102-5.206
	c-5.137-3.684-18.175-14.186-5.076-16.457c11.154-1.904,12.025,8.374,14.098,13.623c3.581-4.477,8.095-19.896,20.63-11.789
	c9.162,5.914-2.183,14.986-9.157,16.777c6.33,3.959,19.529,9.465,10.162,16.007c-6.72,4.563-13.986-2.697-15.651-7.526
	c-4.546,3.329-3.038,10.508-9.458,13.025c-4.738,2.042-10.3,0.586-10.121-3.917c0.575-4.581,5.392-7.8,8.366-11.333"/>
<g>
	<g>
		<path fill="#964DB0" stroke="#FFB1FD" stroke-miterlimit="10" d="M49.892,112.571c0.823-0.044-0.342-0.204-1.214-0.481
			c-0.441-0.121-0.812-0.283-0.868-0.396c-0.024-0.061,0.027-0.107,0.191-0.143c0.161-0.032,0.434-0.057,0.849-0.086
			c-1.145-0.346-2.859-0.406-4.704-0.639c-1.829-0.226-3.816-0.638-5.21-1.347c0.044-0.267,0.267-0.446,0.488-0.612
			c0.226-0.173,0.453-0.342,0.54-0.553c0.089-0.211,0.034-0.475-0.281-0.861c-0.08-0.091-0.173-0.197-0.285-0.308
			c-0.108-0.114-0.235-0.245-0.381-0.382c-0.143-0.133-0.311-0.283-0.484-0.454c-0.177-0.177-0.382-0.347-0.586-0.565
			c-0.155-0.127-0.295-0.25-0.43-0.363c-0.129-0.119-0.248-0.233-0.363-0.34c-0.112-0.102-0.221-0.199-0.32-0.289
			c-0.096-0.094-0.187-0.187-0.278-0.267c-0.357-0.312-0.601-0.548-0.837-0.678c-0.233-0.138-0.412-0.201-0.59-0.208
			c-0.173-0.008-0.34,0.035-0.502,0.083c-0.328,0.101-0.669,0.239-1.169-0.042c-0.236-0.15-0.524-0.4-0.815-0.84
			c-0.138-0.225-0.287-0.491-0.43-0.809c-0.131-0.346-0.232-0.602-0.328-0.984c0,0,0.019,0.063,0.033,0.176
			c0.015,0.113,0.048,0.27,0.084,0.449c0.021,0.107,0.048,0.223,0.08,0.345c0.031,0.127,0.074,0.265,0.117,0.405
			c0.045,0.14,0.093,0.283,0.139,0.431c0.024,0.075,0.047,0.149,0.078,0.228l0.089,0.217c0.131,0.289,0.251,0.582,0.398,0.845
			c0.15,0.261,0.292,0.508,0.42,0.713c0.125,0.216,0.255,0.365,0.333,0.487c0.083,0.109,0.129,0.173,0.129,0.173
			c-0.299-0.183-0.621-0.401-0.917-0.687c-0.151-0.139-0.306-0.289-0.452-0.447c-0.155-0.155-0.282-0.338-0.425-0.518
			c-0.132-0.184-0.279-0.373-0.404-0.582c-0.117-0.201-0.232-0.423-0.351-0.642c-0.051-0.116-0.107-0.228-0.162-0.341
			c-0.049-0.115-0.094-0.227-0.142-0.34c-0.074-0.188-0.156-0.379-0.22-0.586c-0.276-0.826-0.506-1.793-0.517-3.02
			c-0.01-0.604,0.054-1.292,0.228-2.029c0.172-0.736,0.481-1.543,0.963-2.324c0.48-0.787,1.138-1.537,1.879-2.141
			c0.74-0.605,1.54-1.066,2.313-1.41c0.77-0.341,1.509-0.57,2.199-0.74l0.506-0.113c0.17-0.032,0.329-0.061,0.499-0.092l0.121-0.021
			l0.038-0.006l0.067-0.009l0.069-0.009h0.033c0.349-0.021,0.722-0.006,0.916-0.071c0.471,0.274,1.146,0.633,2.014,1.041
			c0.866,0.403,1.925,0.858,3.099,1.312c1.177,0.453,2.471,0.905,3.725,1.285c0.319,0.096,0.631,0.184,0.936,0.27l0.227,0.062
			l0.11,0.026c0.032,0.006,0.103,0.027,0.072,0.015c-0.025-0.034-0.051-0.065-0.086-0.104c-0.139-0.147-0.362-0.35-0.676-0.596
			c-0.281-0.221-0.64-0.482-1.059-0.779c0.227,0.125,0.86,0.472,1.387,0.761c0.606,0.325,1.325,0.685,1.86,0.884
			c0.222-0.035-0.172-0.396-0.731-0.826c-0.562-0.435-1.277-0.932-1.812-1.299c-1.006-0.588-1.603-0.859-2.024-1.002
			c-0.426-0.143-0.675-0.156-0.9-0.15c-0.226,0-0.429,0.017-0.712-0.037c-0.281-0.051-0.652-0.162-1.158-0.377
			c-0.959-0.553-1.864-1-2.446-1.354c-0.293-0.179-0.512-0.33-0.649-0.517c-0.07-0.088-0.119-0.183-0.144-0.293
			c-0.011-0.057-0.019-0.119-0.026-0.178c-0.003-0.039-0.003-0.068,0-0.105l0.008-0.057V87.3v-0.012
			c0-0.013,0.024,0.039,0.028,0.053L41.06,87.32c0,0-0.005-0.098-0.007-0.267c-0.008-0.165-0.008-0.411,0-0.703
			c0.015-0.587,0.076-1.403,0.302-2.25c0.107-0.415,0.266-0.845,0.444-1.22c0.187-0.389,0.396-0.729,0.609-1.004
			c0.209-0.271,0.405-0.476,0.549-0.611c0.143-0.137,0.227-0.203,0.227-0.203c-0.084-0.629,0.086-1.311,0.442-1.896
			c0.348-0.59,0.867-1.09,1.445-1.483c0.578-0.384,1.222-0.668,1.881-0.88c0.659-0.195,1.337-0.323,2.026-0.412
			c1.367-0.148,2.882-0.195,4.589-0.034c0.424,0.047,0.858,0.08,1.309,0.164c0.226,0.034,0.447,0.06,0.674,0.108
			c0.229,0.047,0.46,0.101,0.691,0.15c0.93,0.219,1.9,0.493,2.865,0.902c0.137,0.497,0.713,1.018,1.406,1.646
			c0.168,0.153,0.354,0.315,0.54,0.484c0.177,0.171,0.36,0.352,0.551,0.529c0.163,0.168,0.331,0.338,0.496,0.508
			c0.104,0.1,0.201,0.199,0.304,0.302c0.369,0.372,0.658,0.739,0.813,1.146c0.156,0.406,0.192,0.871,0.059,1.488
			c0.159,0.383,0.113,0.928-0.021,1.609c-0.065,0.339-0.16,0.711-0.271,1.1c-0.06,0.205-0.116,0.398-0.17,0.6
			c-0.069,0.213-0.133,0.431-0.199,0.645c-0.619,2.029-1.379,4.146-1.133,6.643c0.333,1.699,0.421,2.455,0.363,2.691
			c-0.057,0.236-0.256-0.042-0.46-0.344c-0.209-0.294-0.426-0.624-0.493-0.407c-0.068,0.218,0.02,0.974,0.444,2.874
			c-0.319-0.628-0.546-1.271-0.702-1.915c-0.155-0.628-0.238-1.255-0.261-1.856c-0.045-1.199,0.125-2.338,0.295-3.486
			c0.169-1.146,0.347-2.309,0.309-3.471c-0.017-0.586-0.085-1.174-0.238-1.779c-0.165-0.607-0.4-1.236-0.827-1.915
			c0,0-0.071,0.194-0.145,0.386c-0.069,0.205-0.141,0.407-0.141,0.407c-0.476-0.481-0.924-1.254-1.441-2.004
			c-0.094-0.119-0.191-0.245-0.278-0.378l-0.071-0.096l-0.067-0.074l-0.125-0.17c-0.082-0.114-0.17-0.217-0.264-0.315
			c-0.091-0.108-0.178-0.218-0.28-0.31c-0.734-0.784-1.85-1.186-2.585-0.566c-0.242-0.091-0.484-0.123-0.684-0.189
			c-0.205-0.055-0.395-0.092-0.55-0.145c-0.154-0.055-0.295-0.096-0.408-0.143c-0.112-0.047-0.202-0.1-0.271-0.157
			c-0.274-0.228-0.21-0.517-0.034-0.835c0.17-0.316,0.472-0.665,0.545-1.01c0.072-0.342-0.081-0.68-0.918-0.961
			c-0.229,0.17-0.538,0.334-0.89,0.496c-0.352,0.186-0.758,0.356-1.175,0.553c-0.838,0.402-1.779,0.875-2.485,1.451
			c-0.35,0.287-0.631,0.594-0.802,0.896c-0.17,0.299-0.229,0.588-0.189,0.816c0.091,0.467,0.5,0.682,0.994,0.785
			c0,0,0.01-0.043,0.032-0.092c0.031-0.048,0.069-0.136,0.25-0.277c0.176-0.133,0.477-0.293,0.737-0.406
			c0.07-0.027,0.131-0.051,0.186-0.075c0.058-0.021,0.107-0.036,0.155-0.053c0.084-0.032,0.134-0.048,0.134-0.048
			c-0.245,0.109-0.229,0.22-0.168,0.326c0.065,0.109,0.158,0.219,0.105,0.324c-0.322-0.115-0.632-0.057-0.802,0.07
			c-0.096,0.062-0.132,0.148-0.143,0.225c0.011,0.032,0.004,0.07,0.04,0.1c0.015,0.017,0.017,0.027,0.039,0.042l0.029,0.016
			l-0.05-0.024c-0.093-0.049-0.106-0.039,0.019-0.014c0.143,0.038,0.419,0.084,0.781,0.075c0.131,0.009,0.271,0.024,0.41,0.042
			c0.15,0.035,0.289,0.071,0.445,0.123c0.146,0.049,0.3,0.109,0.442,0.166l0.023,0.014c0.003,0.004,0-0.011,0.011,0.006l0.042,0.071
			l0.012,0.021l0.002,0.003l0.006,0.006l0.017,0.017l0.118,0.125c0.077,0.079,0.15,0.159,0.229,0.24
			c0.144,0.158,0.318,0.307,0.466,0.454c0.619,0.59,1.171,1.101,1.461,1.479c0.286,0.371,0.293,0.609-0.115,0.66
			c-0.397,0.057-1.222-0.07-2.37-0.307c-0.53-0.34-1.129-0.984-1.611-1.621c-0.058-0.074-0.117-0.154-0.172-0.236l-0.045-0.057
			l-0.01-0.014l-0.028-0.045c-0.013-0.024-0.016-0.026-0.016-0.026l-0.004-0.005l-0.045-0.051c-0.058-0.062-0.123-0.125-0.183-0.172
			c-0.133-0.106-0.272-0.174-0.455-0.201c-0.318,0.121-0.48,0.326-0.502,0.613c0,0.066,0.008,0.146,0.022,0.227
			c0.035,0.129,0.092,0.25,0.149,0.383c0.117,0.266,0.286,0.544,0.493,0.825c0.405,0.575,0.969,1.196,1.617,1.831
			c0.645,0.636,1.372,1.287,2.02,1.886c1.374,0.716,2.789,1.457,4.271,2.231c1.67,0.879,3.585,1.912,5.648,3.078
			c2.053,1.162,4.259,2.457,6.376,3.785c2.119,1.322,4.153,2.68,5.718,3.834c-0.819-0.072-1.673-0.193-2.51-0.348
			c-0.673-0.141-1.204-0.3-1.718-0.48c-0.144-0.055-0.266-0.099-0.384-0.141c-0.146-0.053-0.281-0.104-0.405-0.15
			c-0.323-0.123-0.588-0.228-0.859-0.33c-1.12-0.44-2.246-0.881-3.826-1.283c-2.104,0.011-4.455-0.285-6.686-0.696
			c-2.242-0.412-4.349-0.95-6.342-1.474c-0.967-0.252-1.935-0.495-2.974-0.771c-0.993-0.244-1.991-0.48-3.008-0.656
			c-1.019-0.168-2.068-0.293-3.182-0.261c-0.144,0-0.28,0.013-0.424,0.022c-0.067,0.006-0.143,0.011-0.21,0.018
			c-0.066,0.006-0.133,0.016-0.199,0.023c-0.128,0.021-0.282,0.041-0.344,0.059c-0.086,0.02-0.168,0.034-0.254,0.059
			c-0.326,0.084-0.645,0.213-0.893,0.373c-0.424-0.015-0.813,0.056-1.119,0.258c-0.317,0.195-0.577,0.559-0.702,1.031
			c-0.139,0.473-0.148,1.032-0.074,1.612c0.032,0.287,0.092,0.593,0.159,0.882c0.02,0.137,0.079,0.26,0.115,0.397l0.063,0.192
			c0.025,0.066,0.057,0.129,0.088,0.194c0.211,0.521,0.539,0.993,0.934,1.446c0.185,0.232,0.412,0.443,0.632,0.666
			c0.111,0.101,0.233,0.203,0.349,0.306l0.173,0.159l0.194,0.146c0.993,0.801,2.125,1.496,3.255,2.229
			c-0.094-0.32,0.084-0.447,0.397-0.454c0.156-0.003,0.356,0.007,0.579,0.046c0.222,0.041,0.467,0.096,0.729,0.157
			c0.128,0.032,0.264,0.065,0.399,0.101c0.134,0.031,0.275,0.065,0.411,0.098c0.276,0.07,0.546,0.142,0.808,0.197
			c0.256,0.067,0.503,0.123,0.714,0.172c0.215,0.047,0.39,0.088,0.524,0.119c0.347,0.264,1.25,0.658,2.39,0.834
			c1.128,0.188,2.495,0.146,3.534-0.25c-0.635,0.15-0.731,0.293-0.771,0.471c-0.046,0.176-0.029,0.375-0.478,0.578
			c1.273-0.315,2.278-0.58,3.13-0.771c0.848-0.181,1.544-0.317,2.158-0.362c0.607-0.078,1.131-0.05,1.565-0.012
			c0.442,0.057,0.8,0.171,1.084,0.289c-0.251,0.26-0.497,0.518-0.732,0.747c-0.236,0.222-0.465,0.426-0.675,0.624
			c-0.216,0.184-0.419,0.359-0.617,0.527c-0.201,0.176-0.384,0.312-0.57,0.469c-0.729,0.6-1.358,1.068-2.048,1.496
			c-0.342,0.205-0.703,0.395-1.1,0.572c-0.386,0.152-0.822,0.316-1.288,0.426C52.471,112.585,51.327,112.688,49.892,112.571z"/>
		<path fill="#964DB0" stroke="#FFB1FD" stroke-miterlimit="10" d="M66.791,82.891c0.134,0.866,0.338,1.159,0.638,1.073
			c0.299-0.075,0.668-0.486,1.056-0.834c0.186-0.178,0.376-0.338,0.559-0.451c0.181-0.115,0.354-0.182,0.502-0.157
			c0.147,0.028,0.268,0.144,0.335,0.399c0.062,0.263,0.078,0.678-0.011,1.371c0.477-0.459,0.901-0.91,1.257-1.316
			c0.185-0.196,0.347-0.396,0.492-0.579c0.151-0.179,0.284-0.347,0.402-0.521c0.503-0.672,0.818-1.324,1.302-2.047
			c-0.212,0.084-0.396,0.156-0.554,0.213c-0.151,0.065-0.28,0.123-0.387,0.166c-0.215,0.088-0.35,0.131-0.425,0.131
			c-0.154,0.01-0.069-0.123,0.054-0.293c0.123-0.17,0.282-0.381,0.277-0.522c-0.008-0.136-0.184-0.22-0.762-0.092
			c0.135-0.128,0.267-0.261,0.411-0.388l0.446-0.371c0.289-0.25,0.643-0.471,0.974-0.694c0.162-0.119,0.354-0.214,0.538-0.315
			l0.557-0.299l0.605-0.251c0.204-0.079,0.404-0.17,0.623-0.228c0.425-0.122,0.855-0.264,1.306-0.325l0.675-0.108
			c0.225-0.029,0.448-0.035,0.674-0.048s0.454-0.03,0.68-0.028l0.668,0.031c0.219,0.021,0.449,0.021,0.66,0.055l0.642,0.104
			c1.696,0.29,3.187,0.88,4.537,1.545l0.959,0.534c0.163,0.095,0.316,0.171,0.482,0.278l0.492,0.33
			c0.169,0.109,0.331,0.213,0.494,0.336l0.501,0.402c0.163,0.141,0.331,0.271,0.49,0.42l0.463,0.469
			c0.618,0.629,1.106,1.348,1.513,2.092c0.354,0.765,0.653,1.561,0.738,2.386c0.074,0.411,0.054,0.825,0.064,1.235
			c-0.008,0.213-0.032,0.414-0.053,0.619c-0.019,0.205-0.043,0.414-0.093,0.615l-0.132,0.604c-0.054,0.204-0.126,0.397-0.19,0.599
			c-0.127,0.405-0.294,0.768-0.464,1.131c-0.084,0.191-0.176,0.348-0.267,0.514l-0.28,0.49c-0.198,0.303-0.395,0.621-0.612,0.908
			c-0.432,0.579-0.886,1.125-1.371,1.629l-0.367,0.375l-0.379,0.356c-0.246,0.243-0.506,0.467-0.769,0.688l-0.195,0.168l-0.094,0.08
			l-0.066,0.051l-0.263,0.199l-0.134,0.104c-0.044,0.034-0.071,0.05-0.107,0.071l-0.212,0.15c-1.368,0.403-2.917,1.077-4.192,1.576
			c-0.399,0.146-0.77,0.292-1.111,0.4L80.3,97.942l-0.033,0.013l-0.015,0.004c-0.007,0-0.007,0.01,0.002,0.01l0.155,0.078
			l0.314,0.154c0.215,0.104,0.434,0.2,0.657,0.295c0.893,0.387,1.829,0.713,2.702,0.969c0.873,0.263,1.69,0.455,2.374,0.564
			c0.176,0.026,0.338,0.053,0.497,0.068c0.038,0.001,0.081,0.015,0.113,0.012l0.046-0.005c0.008,0,0.011-0.006,0.019,0l0.062,0.024
			l0.496,0.215c0.33,0.144,0.664,0.306,1.004,0.467c0.175,0.085,0.353,0.186,0.534,0.279l0.272,0.146l0.135,0.074
			c0.04,0.021,0.105,0.064,0.158,0.1c1.209,1.262,1.578,2.153,1.636,2.647c0.029,0.252-0.046,0.418-0.174,0.521
			c-0.131,0.098-0.312,0.129-0.529,0.129c-0.44-0.006-1.045-0.142-1.623-0.265c-0.608-0.103-1.178-0.202-1.635-0.183
			c0,0,0.076,0.062,0.186,0.178c0.116,0.109,0.276,0.27,0.472,0.471c0.184,0.199,0.395,0.438,0.613,0.698
			c0.198,0.263,0.426,0.546,0.602,0.854c0.195,0.293,0.331,0.613,0.481,0.908c0.098,0.309,0.223,0.588,0.262,0.844
			c0.027,0.123,0.049,0.236,0.074,0.344c0.015,0.102,0.015,0.195,0.019,0.268c0.014,0.149,0.022,0.236,0.022,0.236
			s-0.036-0.087-0.091-0.236c-0.028-0.072-0.056-0.166-0.106-0.267c-0.052-0.099-0.112-0.209-0.178-0.335
			c-0.115-0.242-0.331-0.498-0.526-0.77c-0.242-0.262-0.474-0.531-0.76-0.764c-0.261-0.254-0.58-0.449-0.843-0.646
			c-0.285-0.185-0.539-0.346-0.764-0.467c-0.227-0.117-0.411-0.217-0.543-0.285c-0.13-0.061-0.206-0.099-0.206-0.099
			c-0.415,0.24-0.26,0.704-0.084,1.21c0.183,0.512,0.381,1.109,0.162,1.562c0,0,0.048,0.043,0.104,0.123
			c0.057,0.076,0.132,0.18,0.208,0.283c0.063,0.113,0.125,0.226,0.173,0.308c0.024,0.036,0.037,0.079,0.047,0.104
			c0.013,0.026,0.014,0.038,0.014,0.038c-0.316-0.062-0.611-0.129-0.873-0.194c-0.257-0.071-0.474-0.143-0.686-0.209
			c-0.205-0.07-0.372-0.145-0.536-0.211c-0.153-0.076-0.292-0.147-0.415-0.229c-0.236-0.148-0.423-0.324-0.596-0.529
			c-0.085-0.104-0.172-0.215-0.259-0.337l-0.031-0.049l-0.067-0.067L83.2,106.85c-0.092-0.108-0.174-0.208-0.292-0.327
			c-0.113-0.117-0.223-0.232-0.336-0.35c-0.121-0.119-0.24-0.24-0.361-0.357l-0.045-0.049c-0.012-0.014-0.058-0.047-0.084-0.068
			l-0.189-0.158l-0.354-0.283c-0.233-0.184-0.461-0.373-0.697-0.555c-0.942-0.722-1.887-1.402-2.803-2.033
			c-0.924-0.633-1.802-1.224-2.71-1.758c-0.911-0.537-1.854-1.021-2.901-1.475c2.022,1.13,3.077,1.616,3.581,1.736
			c0.506,0.121,0.479-0.115,0.389-0.406c-0.099-0.299-0.255-0.645-0.123-0.826c0.133-0.174,0.551-0.184,1.505,0.139l-1.648-1.119
			c0.87,0.485,2.614,1.146,4.459,1.844c0.926,0.347,1.865,0.712,2.768,1.115c0.454,0.197,0.892,0.41,1.327,0.637
			c0.197,0.104,0.448,0.255,0.682,0.393c0.233,0.141,0.469,0.295,0.704,0.452c-0.226-0.183-0.443-0.364-0.671-0.536l-0.341-0.262
			c-0.123-0.09-0.198-0.15-0.309-0.227c-0.406-0.293-0.817-0.572-1.239-0.842c-0.838-0.539-1.705-1.039-2.605-1.533
			c-0.901-0.489-1.832-0.975-2.799-1.484l-0.726-0.393l-0.371-0.199l-0.023-0.014c-0.007-0.006-0.016-0.006-0.005-0.01l0.041-0.014
			l0.084-0.026l0.168-0.051c0.438-0.146,0.867-0.331,1.293-0.528c0.72-0.341,1.419-0.752,2.104-1.219
			c0.686-0.469,1.362-0.992,2.014-1.598c0.649-0.586,1.328-1.266,1.855-1.922c0.544-0.664,1.017-1.35,1.397-2.055
			c0.378-0.697,0.665-1.434,0.794-2.105c0.139-0.666,0.139-1.307,0-1.897c-0.045-0.146-0.07-0.288-0.128-0.432
			c-0.059-0.138-0.123-0.269-0.178-0.404c-0.08-0.123-0.155-0.249-0.229-0.374c-0.081-0.117-0.183-0.23-0.27-0.34
			c-0.389-0.426-0.84-0.76-1.316-0.991c0.162-0.021,0.411,0.015,0.602-0.021c0.188-0.032,0.32-0.127,0.212-0.459
			c-0.054-0.059-0.11-0.125-0.167-0.176c-0.071-0.058-0.142-0.106-0.205-0.16c-0.14-0.094-0.273-0.188-0.418-0.266
			c-0.158-0.084-0.32-0.154-0.479-0.214c-0.155-0.063-0.308-0.116-0.491-0.157c-0.35-0.086-0.69-0.146-1.019-0.181
			c-0.33-0.021-0.647,0-0.946,0.024c-0.151,0.017-0.297,0.022-0.436,0.053c-0.142,0.031-0.274,0.064-0.405,0.104
			c-0.255,0.075-0.497,0.135-0.707,0.221c-0.411,0.201-0.748,0.338-0.975,0.481c0,0,0.062-0.028,0.151-0.073
			c0.021-0.015,0.046-0.026,0.076-0.039c0.027-0.01,0.061-0.02,0.091-0.026c0.062-0.021,0.13-0.04,0.202-0.06
			c0.149-0.045,0.297-0.086,0.408-0.117c0.055-0.016,0.107-0.021,0.142-0.024c0.033-0.007,0.053-0.012,0.053-0.012
			c-0.501-0.691-1.567-0.82-2.222-0.482l-0.241,0.125c-0.08,0.042-0.148,0.111-0.216,0.162l-0.102,0.072
			c-0.032,0.028-0.069,0.065-0.101,0.1c-0.061,0.066-0.123,0.117-0.182,0.177c-0.126,0.148-0.244,0.242-0.363,0.397
			c-0.061,0.067-0.126,0.126-0.189,0.187c-0.062,0.076-0.127,0.142-0.198,0.201c-0.063,0-0.128,0.004-0.191,0.004
			c-0.07,0.012-0.136,0.021-0.197,0.033c-0.139,0.021-0.275,0.039-0.407,0.062c-0.271,0.057-0.552,0.127-0.827,0.211
			c-0.141,0.054-0.279,0.105-0.417,0.158l-0.211,0.08c-0.027,0.01-0.082,0.061-0.125,0.088l-0.146,0.101
			c-0.189,0.133-0.375,0.263-0.556,0.407l-0.139,0.105c-0.044,0.03-0.096,0.084-0.144,0.127c-0.089,0.086-0.185,0.18-0.28,0.27
			c-0.186,0.18-0.378,0.361-0.559,0.561c-0.178,0.2-0.35,0.408-0.528,0.627c-0.357,0.43-0.693,0.93-1.044,1.469
			c-0.176,0.277-0.348,0.563-0.528,0.873c-0.183,0.309-0.364,0.619-0.551,0.967c-0.191,0.345-0.38,0.668-0.586,1.043
			c-0.203,0.361-0.405,0.74-0.619,1.145c0,0-0.038-0.375-0.077-0.746c-0.042-0.373-0.082-0.744-0.082-0.744
			s-0.656,0.803-1.317,1.601c-0.611,0.748-1.223,1.489-1.223,1.489c0.591-1.189,0.311-1.437,0.203-1.582
			c0.146-0.705,0.256-0.561,0.649-1.002c-0.005-0.619-0.098-1.137-0.225-1.629c-0.128-0.498-0.294-0.947-0.456-1.386
			c-0.133-0.36-0.293-0.79-0.467-1.261c-0.123-0.344-0.26-0.715-0.394-1.087c0.19-0.028,0.379-0.123,0.517-0.487
			c-0.083-0.066-0.193-0.107-0.312-0.184c-0.026-0.02-0.059-0.045-0.093-0.066l-0.042-0.037c-0.007-0.053-0.016-0.123-0.023-0.191
			c-0.031-0.256-0.047-0.514-0.067-0.771c-0.068-0.962-0.055-1.854,0.037-2.58c0.092-0.738,0.267-1.302,0.445-2.003
			c0.013,0.067,0.003,0.259-0.008,0.563c-0.002,0.125-0.006,0.248-0.01,0.367c-0.003,0.068-0.003,0.143-0.003,0.211
			c0,0.07-0.006,0.166,0,0.215c0.007,0.23,0.021,0.48,0.042,0.732c0.04,0.512,0.101,1.028,0.204,1.422
			c0.1,0.395,0.241,0.66,0.419,0.682C66.332,83.656,66.558,83.414,66.791,82.891z"/>
		<path fill="#964DB0" stroke="#FFB1FD" stroke-miterlimit="10" d="M55.666,82.349c0.218,0.204,0.323,0.396,0.391,0.523
			c0.061,0.142,0.067,0.238,0.038,0.306c-0.06,0.139-0.249,0.146-0.464,0.147c-0.103,0.008-0.227,0.016-0.343,0.021
			c-0.112,0.018-0.226,0.05-0.322,0.091c-0.189,0.069-0.331,0.231-0.375,0.46c0,0-0.075-0.016-0.179-0.057
			c-0.048-0.025-0.123-0.025-0.19-0.049c-0.038-0.013-0.074-0.021-0.108-0.035c-0.042-0.002-0.086-0.008-0.127-0.01
			c-0.159-0.041-0.363-0.041-0.504-0.061c-0.167-0.003-0.274-0.003-0.274-0.003c0-0.243,0.116-0.417,0.315-0.567
			c0.094-0.072,0.201-0.117,0.324-0.177c0.061-0.022,0.13-0.051,0.192-0.071c0.059-0.015,0.127-0.031,0.189-0.05l0.206-0.057
			c0.064-0.011,0.13-0.027,0.196-0.034c0.127-0.027,0.269-0.061,0.388-0.085c0.124-0.024,0.243-0.065,0.357-0.11
			C55.483,82.488,55.583,82.434,55.666,82.349z"/>
		<path fill="#964DB0" stroke="#FFB1FD" stroke-miterlimit="10" d="M72.64,116.791c0.188-0.362,0.047-0.619-0.146-0.865
			c-0.197-0.24-0.428-0.451-0.575-0.774c-0.008-0.022-0.016-0.048-0.025-0.062c-0.337,0.004-0.422,0.416-0.479,0.666
			c-0.01,0.062-0.024,0.117-0.032,0.146c-0.019,0.042-0.033,0.085-0.048,0.131c-0.022,0.043-0.043,0.09-0.064,0.125
			c-0.082,0.148-0.178,0.202-0.342,0.202c-0.22-1.04-0.354-1.929-0.595-2.503c-0.232-0.583-0.563-0.865-0.945-0.886
			c-0.384-0.03-0.802,0.194-1.253,0.512c-0.454,0.317-0.956,0.728-1.517,1.029c0.1-0.433,0.167-1.021,0.26-1.722
			c0.097-0.703,0.208-1.533,0.435-2.342c0.226-0.809,0.553-1.59,0.998-2.213c0.229-0.307,0.473-0.58,0.753-0.791
			c0.139-0.107,0.281-0.203,0.432-0.275c0.146-0.043,0.317-0.047,0.471-0.037c-0.013,0.377,0.098,0.58,0.291,0.714
			c0.051,0.032,0.104,0.062,0.163,0.083c0.028,0.011,0.057,0.02,0.084,0.027l0.049,0.01c0.008,0.008,0.016,0,0.022,0.012
			l0.009,0.047c0.064,0.245,0.125,0.501,0.199,0.752c0.281,1.004,0.679,1.938,0.958,2.514c0.236-0.1,0.355-0.526,0.433-1.045
			c0.041-0.334,0.081-0.629,0.125-0.984c0.062-0.447,0.146-0.883,0.28-1.299c0.123-0.303,0.277-0.488,0.522-0.498
			c0.121,0,0.261,0.047,0.424,0.154c0.166,0.096,0.351,0.25,0.57,0.475c0.213,0.217,0.449,0.48,0.717,0.814
			c0.265,0.307,0.549,0.733,0.911,1.051c0.089,0.096,0.181,0.185,0.271,0.281c0.097,0.076,0.198,0.168,0.306,0.252
			c0.101,0.088,0.208,0.176,0.319,0.271c0.104,0.098,0.228,0.172,0.352,0.256c0.12,0.096,0.24,0.186,0.37,0.277
			c0.056,0.045,0.144,0.096,0.215,0.144l0.064,0.039l0.03,0.015l0.061,0.039c0.087,0.047,0.171,0.094,0.26,0.141
			c0.09,0.048,0.178,0.093,0.273,0.141c0.207,0.247,0.569,0.479,0.969,0.684c0.418,0.203,0.814,0.318,1.183,0.439
			c0.188,0.049,0.363,0.107,0.531,0.154c0.162,0.062,0.313,0.111,0.441,0.184c0.254,0.146,0.432,0.322,0.407,0.659
			c0.121,0.05,0.238,0.078,0.352,0.062c0.114-0.012,0.223-0.05,0.326-0.101c0.102-0.044,0.197-0.123,0.285-0.194
			c0.091-0.08,0.177-0.154,0.263-0.236c0.158-0.18,0.325-0.303,0.514-0.387c0.096-0.041,0.211-0.051,0.344-0.043
			c0.125,0.002,0.284,0.032,0.468,0.096c0,0,0.048,0.008,0.12,0.031c0.073,0.024,0.173,0.053,0.268,0.073
			c0.194,0.046,0.404,0.084,0.404,0.084s-0.056,0.05-0.148,0.138c-0.09,0.09-0.24,0.196-0.418,0.336
			c-0.178,0.146-0.408,0.274-0.654,0.436c-0.261,0.135-0.536,0.296-0.842,0.408c-0.603,0.24-1.271,0.402-1.782,0.445
			c-0.26,0.039-0.475,0.037-0.63,0.047c-0.153,0.002-0.244,0.006-0.244,0.006c-0.087-0.105-0.216-0.268-0.374-0.4
			c-0.159-0.129-0.336-0.268-0.575-0.281c0.162,0.268-0.122,0.459-0.668,0.53c-0.278,0.046-0.602,0.046-0.964,0.046
			c-0.183,0-0.365-0.013-0.55-0.023c-0.186-0.008-0.375-0.024-0.553-0.043c-0.185-0.017-0.367-0.024-0.537-0.041
			c-0.17-0.01-0.337-0.02-0.49-0.02c-0.308,0-0.566,0.025-0.739,0.11c-0.347,0.173-0.419,0.618,0.332,1.517
			c0,0,0.139,0.068,0.371,0.195c0.115,0.062,0.266,0.138,0.436,0.216c0.177,0.079,0.366,0.173,0.589,0.263
			c0.22,0.088,0.458,0.189,0.725,0.283c0.28,0.09,0.57,0.191,0.887,0.276c0.64,0.172,1.334,0.319,2.036,0.383
			c1.413,0.147,2.839-0.003,3.853-0.271c0.256-0.056,0.487-0.127,0.685-0.197c0.203-0.064,0.378-0.125,0.523-0.17
			c0.279-0.114,0.44-0.187,0.44-0.187c0.692-0.12,1.015-0.137,1.069,0.022c0.055,0.158-0.172,0.468-0.671,0.832
			c-0.125,0.084-0.258,0.189-0.413,0.285c-0.159,0.09-0.333,0.183-0.52,0.277c-0.37,0.2-0.807,0.357-1.286,0.521
			c-0.967,0.295-2.129,0.48-3.319,0.451c-0.856-0.172-1.567-0.387-2.169-0.609c-0.298-0.113-0.582-0.215-0.828-0.325
			c-0.241-0.114-0.466-0.214-0.68-0.313c-0.204-0.096-0.366-0.188-0.54-0.271c-0.165-0.087-0.326-0.161-0.463-0.238
			c-0.284-0.148-0.542-0.277-0.783-0.391c-0.24-0.118-0.47-0.219-0.712-0.312c-0.237-0.099-0.481-0.192-0.753-0.293
			c-0.141-0.047-0.271-0.102-0.422-0.154c-0.127-0.047-0.362-0.161-0.331-0.088C72.911,116.744,72.769,116.753,72.64,116.791z"/>
		<path fill="#964DB0" stroke="#FFB1FD" stroke-miterlimit="10" d="M90.869,108.147c0,0,0.08-0.126,0.151-0.249
			c0.077-0.125,0.132-0.255,0.132-0.255s0.188,0.461,0.293,1.185c0.059,0.363,0.055,0.793,0.015,1.248
			c-0.04,0.225-0.064,0.463-0.126,0.693c-0.069,0.234-0.143,0.469-0.215,0.703c-0.364,0.93-0.975,1.768-1.487,2.369
			c-0.271,0.289-0.512,0.525-0.676,0.689c-0.082,0.086-0.145,0.148-0.19,0.192c-0.039,0.047-0.07,0.067-0.07,0.067
			s0.023-0.021,0.066-0.062c0.038-0.047,0.093-0.11,0.166-0.19c0.145-0.162,0.35-0.394,0.595-0.67
			c0.111-0.145,0.224-0.307,0.345-0.47c0.114-0.173,0.255-0.337,0.353-0.536c0.106-0.191,0.216-0.388,0.326-0.589
			c0.104-0.204,0.176-0.423,0.259-0.63c0.098-0.214,0.143-0.434,0.198-0.646c0.028-0.108,0.052-0.217,0.076-0.316
			c0.018-0.107,0.026-0.217,0.04-0.322c0.064-0.415,0.028-0.807,0.013-1.134c-0.068-0.33-0.098-0.603-0.167-0.79
			C90.907,108.251,90.869,108.147,90.869,108.147z"/>
		<path fill="#964DB0" stroke="#FFB1FD" stroke-miterlimit="10" d="M64.918,123.178c0.842-0.695,1.669-1.271,2.425-1.919
			c0.747-0.645,1.392-1.365,1.75-2.225c0,0,0.423,0.17,0.847,0.35c0.433,0.168,0.858,0.334,0.858,0.334s-0.075,0.066-0.205,0.189
			c-0.14,0.12-0.316,0.28-0.568,0.482c-0.248,0.199-0.525,0.426-0.867,0.658c-0.164,0.117-0.332,0.238-0.509,0.357
			c-0.183,0.115-0.366,0.229-0.555,0.348c-0.367,0.229-0.771,0.433-1.133,0.619c-0.376,0.17-0.722,0.334-1.028,0.453
			c-0.307,0.109-0.56,0.2-0.737,0.264c-0.09,0.031-0.158,0.055-0.2,0.063C64.943,123.171,64.918,123.178,64.918,123.178z"/>
		<path fill="#964DB0" stroke="#FFB1FD" stroke-miterlimit="10" d="M78.983,91.589c0.068-0.166,0.163-0.334,0.286-0.51
			c0.06-0.088,0.127-0.177,0.2-0.268c0.038-0.047,0.075-0.092,0.116-0.137c0.035-0.047,0.052-0.088,0.082-0.131
			c0.116-0.172,0.24-0.346,0.386-0.527c0.07-0.088,0.146-0.178,0.227-0.271c0.014-0.018,0.043-0.049,0.045-0.059l0.023-0.041
			l0.043-0.085c0.249-0.435,0.545-0.851,0.8-1.242c0.235-0.394,0.45-0.763,0.468-1.075c0.038-0.16-0.004-0.295-0.052-0.425
			c-0.014-0.032-0.03-0.063-0.047-0.101c-0.024-0.02-0.059-0.045-0.085-0.059c-0.066-0.043-0.136-0.08-0.211-0.119
			c-0.028,0.033,0.006,0.051,0,0.119c0.01,0.055,0.045,0.096,0.099,0.133c0.104,0.08,0.262,0.138,0.362,0.244
			c-0.01,0.01,0.264-0.181,0.419-0.219c0.053-0.025,0.092-0.033,0.127-0.041c0.035-0.01,0.073-0.018,0.103-0.027
			c0.063-0.02,0.098-0.041,0.098-0.041c0.259,0.168,0.41,0.338,0.333,0.729c-0.015,0.185-0.107,0.377-0.179,0.563
			c-0.048,0.094-0.107,0.188-0.158,0.285l-0.088,0.143l-0.105,0.148l-0.216,0.289c-0.08,0.096-0.165,0.191-0.25,0.285
			c-0.077,0.102-0.171,0.195-0.272,0.29c-0.093,0.099-0.188,0.196-0.283,0.293c-0.103,0.099-0.203,0.195-0.31,0.294l-0.077,0.074
			c-0.023,0.023-0.04,0.045-0.108,0.096L80.45,90.46l-0.311,0.258l-0.153,0.137c-0.028,0.02-0.049,0.043-0.083,0.064l-0.102,0.07
			C79.532,91.195,79.256,91.391,78.983,91.589z"/>
		<path fill="#964DB0" stroke="#FFB1FD" stroke-miterlimit="10" d="M45.485,117.111c-0.074-0.346-0.103-0.656-0.144-0.969
			c-0.035-0.301-0.043-0.578-0.065-0.852l0.03-0.371c0.023-0.326,0.045-0.639,0.065-0.94c0.01-0.157,0.016-0.306,0.027-0.449
			c0.019-0.146,0.038-0.286,0.058-0.426c0.032-0.276,0.07-0.548,0.105-0.813c0.039-0.258,0.093-0.502,0.136-0.75
			c0.047-0.24,0.093-0.486,0.145-0.717c0.061-0.228,0.122-0.451,0.182-0.673c0.061-0.221,0.123-0.457,0.195-0.663
			c0.074-0.205,0.153-0.418,0.233-0.628c0.338-0.854,0.79-1.642,1.429-2.465c0.633-0.784,1.465-1.585,2.521-2.328
			c0.604-0.259,0.524,0.132,0.49,0.464c-0.022,0.176-0.036,0.334,0.058,0.391c0.085,0.061,0.282-0.006,0.657-0.228
			c1.489-0.901,1.153-1.582,1.377-2.31c0,0-0.212,0.009-0.417,0.02c-0.216,0.012-0.432,0.021-0.432,0.021
			c0.436-0.027,0.935-0.15,1.475-0.303c0.256-0.07,0.523-0.139,0.779-0.211c0.263-0.072,0.498-0.119,0.744-0.166
			c0.126-0.021,0.241-0.037,0.358-0.047c0.123-0.023,0.249-0.044,0.366-0.052c0.237-0.024,0.455-0.007,0.641,0.062
			c0.379,0.131,0.64,0.467,0.719,1.11c-1.015,0.974-1.83,1.995-2.475,3.05c-0.647,1.055-1.12,2.133-1.53,3.164
			c-0.417,1.033-0.752,2.014-1.168,2.951c-0.421,0.939-0.935,1.814-1.661,2.936c-0.415,0.106-0.834,0.229-1.255,0.381l0.122,0.117
			c-0.312,0.123-0.623,0.267-0.929,0.422c0,0,0.002,0.053,0.023,0.16c0.022,0.104,0.054,0.26,0.091,0.438
			c0.042,0.184,0.11,0.395,0.178,0.617c0.091,0.226,0.171,0.462,0.293,0.697c0.221,0.469,0.532,0.903,0.783,1.211
			c0.133,0.15,0.242,0.272,0.321,0.356c0.088,0.083,0.136,0.124,0.136,0.124c0.009,0.164-0.101,0.295-0.067,0.51
			c0.038,0.201,0.217,0.526,0.883,0.918c0.768,0.312,1.058,0.262,1.077,0.139c0.017-0.139-0.22-0.396-0.478-0.725
			c-0.267-0.316-0.528-0.732-0.639-1.078c-0.053-0.174-0.073-0.33-0.053-0.447c0.029-0.125,0.095-0.209,0.208-0.248
			c0,0,0.07,0.074,0.211,0.185c0.132,0.118,0.339,0.271,0.597,0.437c0.511,0.322,1.262,0.619,2.022,0.744
			c0.753,0.133,1.507,0.111,2.046,0.057c0.272-0.028,0.497-0.057,0.649-0.096c0.157-0.027,0.241-0.045,0.241-0.045
			c0.347,0.037,0.218,0.176,0.006,0.316c-0.207,0.133-0.497,0.28-0.392,0.371c0.727,0.223,1.431,0.154,2.018-0.048
			c0.603-0.197,1.092-0.528,1.533-0.858c0.439-0.33,0.842-0.675,1.305-0.89c0.451-0.235,0.953-0.374,1.704-0.435
			c0,0-0.145,0.18-0.356,0.443c-0.119,0.123-0.26,0.273-0.411,0.43c-0.162,0.146-0.34,0.313-0.527,0.469
			c-0.376,0.299-0.754,0.596-1.069,0.798c-0.155,0.106-0.291,0.194-0.385,0.245c-0.096,0.061-0.151,0.092-0.151,0.092
			c0.296-0.078,0.59-0.161,0.871-0.246c0.271-0.091,0.537-0.186,0.812-0.279c0.544-0.184,1.083-0.434,1.586-0.689
			c1.005-0.533,1.888-1.191,2.612-1.889c0.175-0.177,0.364-0.353,0.523-0.531c0.164-0.178,0.332-0.354,0.472-0.518
			c0.071-0.076,0.144-0.158,0.211-0.236l0.156-0.146c0.098-0.096,0.19-0.19,0.286-0.282c0.323-0.322,0.64-0.633,0.945-0.934
			c-0.256,0.523-0.461,1.098-0.637,1.611l-0.033,0.097l-0.077,0.173c-0.052,0.116-0.103,0.23-0.156,0.346
			c-0.133,0.252-0.241,0.504-0.388,0.756c-0.261,0.502-0.583,1.004-0.928,1.494c-0.701,0.977-1.599,1.883-2.594,2.633l-0.373,0.281
			l-0.353,0.245c-0.231,0.151-0.458,0.312-0.682,0.466c-0.055,0.034-0.105,0.066-0.167,0.11l-0.194,0.112l-0.393,0.224
			c-0.266,0.142-0.529,0.288-0.809,0.414c-1.111,0.524-2.335,0.929-3.697,1.14c-1.354,0.207-2.854,0.219-4.472-0.146
			c-0.812-0.184-1.645-0.473-2.473-0.891c-0.823-0.422-1.636-0.983-2.35-1.688c-0.715-0.705-1.316-1.555-1.715-2.469
			C45.703,118.974,45.504,118.017,45.485,117.111z"/>
	</g>
</g>
<path fill="#F7FFA8" d="M66.129,95.009c3.073,0.719,4.926,3.128,4.14,5.382c-0.785,2.25-3.913,3.487-6.989,2.771
	c-3.073-0.725-4.926-3.133-4.14-5.386C59.926,95.523,63.056,94.285,66.129,95.009z"/>
<g>
	<path fill="#9D00AD" stroke="#FFFFFF" stroke-width="0.0484" stroke-miterlimit="10" d="M69.194,91.311
		c-0.191-0.056-0.018,0.244,0,0.53c0.04,0.289,0.005,0.574-0.329,0.557c0.038,0.38,0.343,0.457,0.713,0.503
		c0.361,0.058,0.794,0.08,0.985,0.281c-0.309,0.435-0.703,0.78-0.983,1.153c-0.282,0.375-0.458,0.783-0.43,1.291
		c0.1,0.238,0.227,0.276,0.41,0.188c0.183-0.078,0.403-0.28,0.642-0.504c0.468-0.431,0.998-0.955,1.464-0.614
		c0,0-0.083-0.18-0.185-0.348c-0.099-0.182-0.201-0.352-0.201-0.352c0.939-0.404,1.661-0.012,2.193,0.637
		c0.133,0.162,0.256,0.342,0.377,0.514c0.113,0.193,0.222,0.375,0.331,0.564c0.055,0.096,0.113,0.185,0.168,0.277
		c0.052,0.096,0.105,0.189,0.163,0.278c0.113,0.187,0.231,0.36,0.372,0.519c-0.183,0.396-0.484,0.793-0.815,1.154
		c-0.339,0.369-0.728,0.719-1.064,1.018c-0.335,0.303-0.657,0.571-0.834,0.812c-0.178,0.247-0.261,0.475-0.126,0.741
		c-0.176-0.075-0.583-0.317-1.192-0.271c-0.278,0.076-0.331,0.172-0.314,0.271c0.019,0.104,0.137,0.221,0.241,0.312
		c0.613,0.312,1.051,0.385,1.482,0.354c0.421-0.012,0.824-0.116,1.306,0.074c0.282,0.332,0.58,0.699,0.705,1.09
		c0.02,0.05,0.029,0.098,0.039,0.15v0.014v0.009v0.003l0.002,0.003c0.019-0.056-0.174,0.45-0.092,0.239l0,0l0.002,0.002l0.007,0.023
		c0.005,0.01,0.008,0.023,0.015,0.034c0.014,0.052,0.014,0.101-0.002,0.144c-0.017,0.039-0.055,0.078-0.104,0.111
		c-0.033,0.02-0.067,0.032-0.107,0.049c-0.014,0.008-0.04,0.012-0.061,0.021c-0.032,0.018-0.063,0.044-0.102,0.07
		c0,0-0.745,0.123-1.446,0.113c-0.351-0.006-0.698-0.015-0.942-0.072c-0.252-0.041-0.413-0.082-0.413-0.082
		c0.592,0.496,0.8,0.852,0.802,1.106c-0.003,0.253-0.216,0.396-0.485,0.503c-0.274,0.102-0.613,0.141-0.886,0.254
		c-0.28,0.108-0.51,0.256-0.617,0.623c-0.575-0.535-0.764-0.244-1.011,0.049c-0.234,0.276-0.525,0.568-0.944-0.074
		c-0.239,0.107-0.654-0.807-1.111-1.857c-0.456-1.051-0.981-2.234-1.243-2.734c-0.278-0.406-0.288-0.582-0.323-0.742
		c-0.03-0.172-0.088-0.326-0.298-0.758c-0.025-0.135,0.036,0.017,0.176,0.321c0.14,0.304,0.345,0.759,0.562,1.208
		c0.215,0.452,0.45,0.899,0.649,1.194c0.205,0.301,0.375,0.424,0.445,0.256l-0.296-0.47c-0.064-0.209-0.037-0.271,0.02-0.283
		c0.052-0.016,0.155,0.031,0.249,0.057c0.186,0.061,0.323,0.01-0.158-0.602c0.25,0.025,0.662,0.384,1.121,0.88
		c0.223,0.247,0.459,0.524,0.708,0.78c0.248,0.26,0.511,0.496,0.831,0.644c-0.184-0.271-0.296-0.517-0.411-0.761
		c-0.114-0.251-0.224-0.487-0.366-0.715c-0.293-0.471-0.763-0.875-1.64-1.342c-0.003-0.004-0.088,0.16-0.104,0.16
		c-0.018-0.054-0.365-0.274-0.497-0.385c0.402,0.266,0.321,0.139,0.026-0.062c-0.071-0.051-0.165-0.104-0.262-0.162
		c-0.049-0.026-0.103-0.063-0.165-0.08l-0.048-0.014l-0.019-0.012v0.006l-0.004,0.016c-0.005,0.041-0.011,0.084-0.005,0.127
		c0,0.015,0.005,0.037,0.008,0.054c0.002,0.007,0.002,0.024,0.006,0.021c0.005-0.008,0.01-0.027,0.015-0.037
		c0.028-0.051,0.044-0.09,0.057-0.121c0.007-0.008,0.009-0.022,0.023-0.043c-0.001,0-0.001,0.004-0.001,0.004
		c-0.006,0.01-0.006,0.014-0.012,0.017v0.003l0.052,0.021c0.035,0.017,0.078,0.029,0.117,0.043c0.077,0.035,0.161,0.064,0.245,0.102
		c0.152,0.09,0.163,0.166,0.211,0.256c0.072,0.008,0.179,0.035,0.476,0.154c0.318,0.131,0.519,0.203,0.654,0.241
		c0.061,0.021,0.109,0.028,0.141,0.034c0.04-0.016,0.063-0.047,0.083-0.077c0.035-0.063,0.039-0.142,0.044-0.226l0.007-0.061
		l0.005-0.031l0.006-0.018v-0.006l0.001-0.006l0,0c0.037-0.086-0.045,0.129-0.038,0.108l0,0l0,0v-0.005
		c0-0.021,0.012-0.042,0.029-0.052c-0.329-0.124-0.728-0.235-1.132-0.33c-0.199-0.043-0.388-0.082-0.587-0.11l-0.145-0.023
		l-0.038-0.004c-0.002-0.004,0,0,0,0l0,0l0,0c-0.002,0,0.029,0,0.008,0c-0.017,0-0.034,0-0.05,0c-0.009,0-0.017,0-0.028,0H65.92
		c0,0-0.001,0,0.002,0l0.056-0.004c0.07-0.004,0.14-0.012,0.211-0.015c0.134-0.014,0.255-0.026,0.348-0.042
		c-0.369,0.004-0.46,0.023-0.375-0.013c0.088-0.037,0.302-0.126,0.553-0.248c0.253-0.121,0.492-0.272,0.627-0.414
		c0.146-0.144,0.129-0.274-0.085-0.312c0.285-0.285,0.408-0.52,0.434-0.701c0.017-0.178-0.028-0.33-0.112-0.457
		c-0.071-0.137-0.144-0.275-0.186-0.467c-0.019-0.101-0.026-0.219-0.019-0.359c0.01-0.145,0.028-0.309,0.069-0.51
		c-0.286,0.49-0.455,0.547-0.548,0.459c-0.092-0.09-0.14-0.312-0.166-0.409c0.086-0.243,0.143-0.591,0.094-0.849
		c-0.045-0.261-0.193-0.449-0.4-0.357c0.191,0.037,0.255-0.477,0.503-0.688c-0.124,0.028-0.229,0.021-0.301,0
		c-0.064-0.014-0.11-0.057-0.143-0.119c-0.063-0.119-0.074-0.33-0.045-0.578c0.053-0.496,0.242-1.158,0.396-1.656
		c0.354-0.258,0.688-0.801,0.969-1.182c0.041-0.051,0.075-0.096,0.111-0.135c0.057-0.033,0.119-0.068,0.176-0.094
		c0.113-0.05,0.234-0.087,0.358-0.094C68.69,90.962,68.949,91.058,69.194,91.311z"/>
	<path fill="#9D00AD" stroke="#FFFFFF" stroke-width="0.0484" stroke-miterlimit="10" d="M65.371,107.347
		c-0.01-1.115-0.396-1.281-0.674-1.485c-0.14-0.103-0.255-0.218-0.283-0.467c-0.038-0.247,0.022-0.615,0.167-1.241
		c-0.195-0.209-0.321-0.224-0.451-0.096c-0.124,0.124-0.249,0.381-0.41,0.688c0.199,0.412,0.174,0.494,0.093,0.594
		c-0.071,0.104-0.189,0.23-0.093,0.738c-0.249,0.121-0.504,0.209-0.767,0.284c-0.261,0.063-0.522,0.106-0.785,0.132L62.12,106.5
		h-0.03l-0.008,0.004h-0.006l0,0c0.021,0.006-0.224-0.06-0.119-0.03h-0.001l-0.071,0.012l-0.148,0.015
		c-0.089,0.006-0.182,0.01-0.274,0.01c-0.049,0-0.091,0-0.145,0L61.1,106.47c-0.142-0.031-0.288-0.062-0.432-0.098
		c-0.304-0.076-0.521-0.158-0.759-0.262c-0.234-0.087-0.458-0.208-0.669-0.344c-0.107-0.061-0.212-0.123-0.318-0.193
		c-0.099-0.074-0.198-0.15-0.292-0.232c-0.096-0.072-0.191-0.153-0.282-0.231c-0.091-0.085-0.176-0.172-0.262-0.26
		c0.052-1.065-0.277-1.458-1.041-1.769c-0.186-0.078-0.398-0.152-0.634-0.227c-0.244-0.085-0.493-0.167-0.745-0.253
		c-0.274-0.087-0.546-0.19-0.834-0.319c-0.279-0.123-0.586-0.253-0.872-0.42c0.181-0.631,0.81-0.805,1.527-0.877
		c0.724-0.057,1.551-0.052,2.214-0.136c0,0-0.044-0.2-0.07-0.399c-0.011-0.201-0.027-0.402-0.027-0.402s0.426,0.178,0.842,0.283
		c0.213,0.057,0.432,0.092,0.594,0.117c0.159,0.02,0.263,0.033,0.263,0.033c0.475-0.104,0.711-0.216,0.92-0.309
		c0.104-0.051,0.196-0.1,0.312-0.145c0.118-0.045,0.256-0.089,0.432-0.124c0,0-0.066-0.012-0.131-0.024
		c-0.068-0.016-0.134-0.027-0.134-0.027c1.137-0.062,1.693-0.12,1.906-0.154c0.021,0,0.046-0.008,0.069-0.013
		c0.015,0,0.03-0.005,0.045-0.005c-0.021,0.005-0.116,0.02-0.208,0.061c-0.096,0.039-0.214,0.086-0.332,0.148
		c-0.115,0.057-0.203,0.126-0.273,0.188c-0.145,0.118-0.119,0.215,0.18,0.096c-0.192-0.02-0.534,0.129-0.893,0.359
		c-0.367,0.223-0.743,0.563-1.199,0.666l-0.019,0.231c-0.066-0.062-0.429-0.007-0.841-0.031c-0.206-0.017-0.432-0.047-0.637-0.104
		c-0.195-0.068-0.369-0.166-0.496-0.295c0.021,0.221,0.071,0.451,0.187,0.643c0.101,0.204,0.261,0.377,0.444,0.529
		c0.176,0.152,0.403,0.262,0.624,0.353c0.241,0.078,0.482,0.146,0.745,0.155c0.266,0.015,0.521,0.015,0.79-0.035
		c0.268-0.042,0.524-0.111,0.788-0.219c0.126-0.051,0.248-0.106,0.372-0.163c0.121-0.063,0.244-0.14,0.355-0.214
		c0.119-0.069,0.226-0.15,0.332-0.23c0.107-0.085,0.19-0.189,0.273-0.283c-0.118,0.23-0.318,0.506-0.368,0.795
		c0.061,0.047,0.176-0.039,0.293-0.213c0.135-0.172,0.338-0.416,0.517-0.695c0.178-0.271,0.361-0.57,0.524-0.838
		c0.08-0.133,0.153-0.256,0.227-0.367c0.013-0.026,0.032-0.055,0.049-0.079l0.004-0.011h0.003l0,0
		c0.041,0.011-0.354-0.094-0.189-0.053h0.003l0.002-0.004l0.005-0.021l0.019-0.032c0.015-0.05,0.034-0.097,0.053-0.14
		c0,0-0.019,0.043-0.042,0.1c-0.002,0.014-0.009,0.027-0.022,0.047l-0.01,0.025l0,0l0.188,0.051l0,0l0,0l0,0l-0.002,0.001
		l-0.002,0.011l-0.01,0.014c-0.027,0.031-0.053,0.065-0.081,0.101c-0.105,0.144-0.213,0.287-0.213,0.287
		c0,0.12,0.012,0.208,0.04,0.266c0.008,0.017,0.012,0.027,0.02,0.041l0,0c-0.307-0.075-0.085-0.024-0.153-0.041l0,0v0.002l0,0v0.007
		l0.002,0.008l0.008,0.012c0.008,0.008,0.018,0.016,0.028,0.018c0.042,0.006,0.118-0.078,0.191-0.189
		c0.145-0.221,0.285-0.615,0.351-0.703c0,0.525,0.033,1.062,0.134,1.408c0.044,0.17,0.109,0.274,0.185,0.297
		c0.071,0.017,0.158-0.043,0.226-0.239l0.078,0.856c0,0,0.1,0.104,0.216,0.201c0.059,0.051,0.117,0.104,0.162,0.143
		c0.042,0.037,0.076,0.058,0.076,0.058c-0.073,0.166,0.03,0.513,0.091,0.685c0.009,0.254-0.048,0.08-0.148-0.02
		c0.087,0.646,0.258,1.405,0.52,2.102c0.257,0.692,0.614,1.317,0.967,1.727c-0.176-0.072-0.341-0.152-0.432-0.059
		c0.248,0.248,0.78,0.535,1.262,0.891c0.472,0.368,0.914,0.831,0.707,1.572c-0.75,0.178-1.296-0.504-1.738-1.141
		C66.207,107.773,65.867,107.138,65.371,107.347z"/>
	<path fill="#9D00AD" stroke="#FFFFFF" stroke-width="0.0484" stroke-miterlimit="10" d="M66.317,101.071
		c-0.325-0.245-0.435-0.454-0.57-0.669c-0.13-0.22-0.314-0.449-0.611-0.818c-0.021-0.023,0.025,0.037,0.067,0.086
		c0.024,0.027,0.044,0.049,0.067,0.062c0.014,0.021,0.025,0.03,0.025,0.03l0,0l-0.002-0.003l0,0c-0.008-0.002,0,0,0.012,0.013
		c0.061,0.063,0.121,0.13,0.189,0.198c0.107,0.121,0.193,0.222,0.271,0.322C65.92,100.5,66.045,100.718,66.317,101.071z"/>
	<path fill="#9D00AD" stroke="#FFFFFF" stroke-width="0.0484" stroke-miterlimit="10" d="M54.712,95.555
		c0.412,0.159,0.616,0.067,0.779-0.089c0.167-0.158,0.284-0.393,0.504-0.448c-0.029-0.453-0.187-0.901-0.178-1.271
		c0.007-0.183,0.053-0.358,0.178-0.506c0.123-0.152,0.33-0.283,0.64-0.354c0.233,0.586,0.55,0.969,0.876,1.244
		c0.331,0.281,0.675,0.459,1.013,0.604c0.683,0.283,1.366,0.506,1.955,1.039c-0.059,0.208,0.004,0.661-0.019,0.949
		c-0.016,0.312-0.135,0.432-0.754,0.132c-0.24-0.269-0.517-0.42-0.797-0.481c-0.279-0.065-0.535-0.031-0.713-0.01
		c0.178,0.26,0.482,0.506,0.813,0.756c0.335,0.256,0.7,0.521,1.033,0.784c0.331,0.259,0.635,0.517,0.879,0.748
		c0.117,0.113,0.222,0.222,0.307,0.308c0.067,0.104,0.167,0.15,0.221,0.168c-0.1-0.041-0.145-0.057-0.172-0.059
		c-0.046,0.047-0.084,0.129-0.145,0.182c-0.062,0.058-0.149,0.094-0.308,0.088c-0.036,0-0.082-0.002-0.129-0.01l-0.041-0.006h-0.008
		h-0.004l0,0h-0.006c0.018-0.052-0.04,0.104,0.043-0.109l0,0h-0.023c-0.026-0.008-0.052-0.016-0.082-0.022
		c-0.119-0.022-0.261-0.062-0.434-0.112c-0.256-0.022,0.046,0.105,0.27,0.188c0.221,0.086,0.363,0.136-0.237,0.078
		c0,0-0.153-0.008-0.303-0.021c-0.15-0.01-0.302-0.016-0.302-0.016s-0.052-0.039-0.125-0.1c-0.076-0.06-0.169-0.15-0.256-0.248
		c-0.096-0.086-0.187-0.209-0.247-0.267c-0.055-0.087-0.093-0.146-0.093-0.146c0.199,0.043,0.596,0.123,0.542,0.037
		c-0.249-0.051-0.479-0.16-0.716-0.299c-0.119-0.074-0.24-0.146-0.362-0.232c-0.116-0.086-0.234-0.182-0.355-0.279
		c-0.241-0.204-0.495-0.432-0.809-0.607c-0.317-0.176-0.694-0.308-1.214-0.254c0,0-0.057,0.119-0.142,0.293
		c-0.027,0.088-0.065,0.198-0.104,0.312l-0.028,0.085l-0.008,0.021l-0.003,0.008l-0.001,0.009l-0.063,0.164v0.007l-0.021,0.072
		c-0.024,0.092-0.044,0.187-0.065,0.264c-0.035,0.155-0.054,0.255-0.054,0.255c-0.361,0.144-0.733,0.058-1.011-0.194
		c-0.137-0.123-0.252-0.287-0.327-0.469c-0.039-0.09-0.065-0.187-0.084-0.283l-0.011-0.076l-0.003-0.008v-0.004
		c0.189-0.492,0.053-0.135,0.096-0.246l0,0l0,0L54.1,97.119l-0.002-0.011l-0.009-0.019c-0.008-0.024-0.016-0.049-0.02-0.077
		c0.568-0.079,0.756-0.056,0.869-0.357C55.017,96.417,54.849,96.153,54.712,95.555z"/>
	<path fill="#9D00AD" stroke="#FFFFFF" stroke-width="0.0484" stroke-miterlimit="10" d="M56.824,100.25l-0.395,0.111
		c0,0-0.032-0.072-0.084-0.183c-0.058-0.115-0.105-0.273-0.156-0.433c-0.048-0.164-0.103-0.324-0.123-0.453
		c-0.023-0.127-0.034-0.211-0.034-0.211s0.147,0.334,0.358,0.621c0.1,0.148,0.196,0.284,0.286,0.385
		C56.762,100.183,56.824,100.25,56.824,100.25z"/>
	<path fill="#9D00AD" stroke="#FFFFFF" stroke-width="0.0484" stroke-miterlimit="10" d="M59.763,91.311
		c-0.159,0.485-0.632,0.147-0.769,0.651l-0.824-1.48c0,0,0.429,0.176,0.824,0.395C59.401,91.083,59.763,91.311,59.763,91.311z"/>
	<path fill="#9D00AD" stroke="#FFFFFF" stroke-width="0.0484" stroke-miterlimit="10" d="M63.409,99.544
		c0.292-0.275,0.465-0.448,0.575-0.567c0.046-0.05,0.09-0.099,0.138-0.144l0.046-0.058c0.05-0.067,0.107-0.138,0.127-0.172
		c-0.022,0.034-0.022,0.035-0.035,0.054c0,0,0.005-0.01,0.013-0.02c0.004-0.008,0.007-0.016,0.012-0.016l0.002-0.011l-0.013,0.019
		l-0.024,0.045c-0.073,0.104-0.139,0.216-0.139,0.216c-0.303,0.44-0.458,0.563-0.516,0.588C63.53,99.511,63.524,99.47,63.409,99.544
		z"/>
	<path fill="#9D00AD" stroke="#FFFFFF" stroke-width="0.0484" stroke-miterlimit="10" d="M63.108,90.847
		c0.543-0.133,0.875-0.653,1.276-0.999c0.197-0.177,0.413-0.31,0.659-0.345c0.25-0.026,0.531,0.066,0.839,0.338
		c0.11,0.244-0.017,0.438-0.117,0.621c-0.111,0.19-0.188,0.371-0.023,0.593c0.323,0.426,0.532-0.218,0.816-0.499l-0.042-0.561
		c0.048,0.561,0.254,1.096,0.294,1.695c0.006,0.076,0.009,0.15,0.009,0.232c-0.003,0.07-0.021,0.15-0.029,0.229
		c-0.027,0.158-0.055,0.319-0.103,0.488c-0.083,0.339-0.212,0.71-0.408,1.119c-0.258-0.184-0.567-0.084-0.843,0.146
		c-0.282,0.24-0.532,0.613-0.742,0.95c-0.214,0.33-0.386,0.651-0.541,0.761c-0.08,0.057-0.154,0.062-0.234,0
		c-0.081-0.062-0.163-0.189-0.267-0.406c0,0-0.048-0.443-0.105-0.879c-0.057-0.435-0.122-0.875-0.122-0.875
		s-0.137,0.113-0.266,0.233c-0.123,0.129-0.248,0.252-0.248,0.252c-0.056-0.173-0.099-0.604-0.272-0.438
		c-0.138,0.383-0.023,0.576,0.115,0.785c0.143,0.209,0.308,0.428,0.349,0.862c0,0-0.192,0.281-0.339,0.574
		c-0.149,0.299-0.258,0.59-0.258,0.59c-0.122-0.083-0.054-0.503-0.125-0.675c-0.308-0.383-0.359,0.095-0.376,0.449
		c-0.032,0.356-0.022,0.632-0.482-0.028c0,0,0.014-0.261,0.057-0.528c0.038-0.265,0.101-0.525,0.101-0.525
		c-0.094,0-0.186-0.014-0.279-0.028c-0.096-0.015-0.192-0.034-0.291-0.058c-0.195-0.047-0.401-0.125-0.611-0.197
		c-0.418-0.141-0.882-0.327-1.333-0.422c0.116-0.033,0.212-0.08,0.302-0.143c0.087-0.052,0.166-0.115,0.235-0.195
		c0.143-0.153,0.253-0.358,0.358-0.577c0.208-0.438,0.392-1.003,0.64-1.505c0.25-0.516,0.563-0.965,0.968-1.201
		c0.204-0.127,0.429-0.176,0.672-0.158C62.585,90.553,62.85,90.639,63.108,90.847z"/>
</g>
</svg>
