<?xml version="1.0" encoding="utf-8"?>
<!-- Generator: Adobe Illustrator 16.0.0, SVG Export Plug-In . SVG Version: 6.00 Build 0)  -->
<!DOCTYPE svg PUBLIC "-//W3C//DTD SVG 1.1//EN" "http://www.w3.org/Graphics/SVG/1.1/DTD/svg11.dtd">
<svg version="1.1" id="Layer_1" xmlns="http://www.w3.org/2000/svg" xmlns:xlink="http://www.w3.org/1999/xlink" x="0px" y="0px"
	 width="89.797px" height="41.673px" viewBox="0 0 89.797 41.673" enable-background="new 0 0 89.797 41.673" xml:space="preserve">
<path fill="#ED1111" d="M88.533,106.712c0,9.208-18.226,16.684-40.702,16.684c-22.476,0-40.694-7.476-40.694-16.684
	c0-9.217,18.218-16.678,40.694-16.678C70.307,90.035,88.533,97.496,88.533,106.712z"/>
<path fill="#BEA1D6" stroke="#231F20" stroke-width="0.9812" d="M77.417,75.487c0.149,14.362-13.511,26.244-30.516,26.541
	c-16.99,0.29-30.897-11.107-31.046-25.469c-0.156-14.354,13.513-26.228,30.503-26.526C63.362,49.736,77.26,61.14,77.417,75.487z"/>
<g>
	<path fill="#FFFFFF" stroke="#FFFFFF" stroke-width="0.9812" d="M66.636,67.119c0.045,4.028-4.059,7.356-9.165,7.439
		c-5.121,0.08-9.29-3.1-9.336-7.112c-0.045-4.02,4.071-7.339,9.181-7.43C62.422,59.92,66.599,63.106,66.636,67.119z"/>
	<path fill="#231F20" d="M62.878,68.78c0.037,3.356-2.396,6.12-5.436,6.172c-3.029,0.059-5.524-2.62-5.552-5.979
		c-0.046-3.366,2.396-6.136,5.427-6.188C60.356,62.727,62.848,65.415,62.878,68.78z"/>
</g>
<g>
	<path fill="#FFFFFF" stroke="#FFFFFF" stroke-width="0.9812" d="M46.2,67.321c0.039,4.013-4.057,7.341-9.18,7.43
		c-5.099,0.089-9.283-3.091-9.327-7.104c-0.038-4.019,4.065-7.348,9.18-7.43C41.979,60.12,46.156,63.307,46.2,67.321z"/>
	<path fill="#231F20" d="M41.234,68.973c0.037,3.358-2.404,6.126-5.434,6.187c-3.038,0.046-5.524-2.636-5.562-5.994
		c-0.029-3.365,2.398-6.127,5.435-6.179C38.711,62.926,41.197,65.616,41.234,68.973z"/>
</g>
<path d="M48.007,67.401c0,4.694-4.696,8.502-10.496,8.502c-5.795,0-10.494-3.808-10.494-8.502c0-4.697,4.699-8.505,10.494-8.505
	C43.311,58.896,48.007,62.704,48.007,67.401z"/>
<rect x="34.433" y="50.943" fill="#231F20" width="5" height="9"/>
<rect x="17.433" y="66.943" fill="#231F20" width="11" height="3"/>
<g>
	<g>
		<path fill="#BD1F00" d="M41.353,91.64c0.118-1.631,0.599-3.179,0.739-4.804c-0.586,0.243-1.173,0.486-1.76,0.729
			c1.23,1.488,2.674,2.733,4.064,4.064c0.586,0.562,1.468,0.275,1.723-0.454c0.523-1.498,1.484-2.746,2.114-4.188
			c-0.54,0.069-1.08,0.139-1.619,0.208c0.98,1.146,2.319,1.838,3.166,3.118c0.394,0.596,1.422,0.74,1.779,0
			c0.707-1.46,1.882-2.604,2.588-4.064c-0.539,0.069-1.079,0.139-1.618,0.208c0.862,1.104,2.052,1.878,2.956,2.956
			c0.539,0.645,1.482,0.207,1.723-0.454c0.659-1.817,1.095-3.651,1.479-5.544c0.263-1.298-1.724-1.851-1.988-0.549
			c-0.384,1.893-0.818,3.727-1.479,5.544c0.574-0.151,1.148-0.303,1.723-0.454c-0.903-1.079-2.093-1.853-2.956-2.956
			c-0.395-0.506-1.351-0.346-1.618,0.208c-0.707,1.46-1.882,2.604-2.588,4.064c0.593,0,1.187,0,1.779,0
			c-0.949-1.438-2.385-2.246-3.487-3.534c-0.401-0.469-1.363-0.38-1.619,0.208c-0.702,1.609-1.739,3.013-2.322,4.681
			c0.574-0.151,1.149-0.303,1.723-0.454c-1.39-1.332-2.835-2.577-4.064-4.064c-0.63-0.763-1.691-0.069-1.76,0.729
			c-0.141,1.625-0.622,3.173-0.739,4.804C39.196,92.967,41.258,92.958,41.353,91.64L41.353,91.64z"/>
	</g>
</g>
<g>
	<g>
		<path fill="#2D1403" d="M46.15,91.434c-0.28-2.886-0.369-5.759-0.371-8.656c-3.161,0.856-6.323,1.713-9.484,2.568
			c1.05,2.338,2.278,4.589,3.327,6.926c1.857,4.14,8.278,2.756,9.302-1.216c0.45-1.744,1.028-3.446,1.478-5.191
			c-3.271,0-6.543,0-9.815,0c0.363,2.478,1.756,4.989,2.731,7.27c1.727,4.04,8.493,2.864,9.302-1.216
			c0.478-2.408,1.564-4.569,2.218-6.92c-3.271,0-6.543,0-9.815,0c0.478,2.408,1.564,4.57,2.217,6.92
			c1.288,4.634,8.804,5.096,9.815,0c0.479-2.407,1.565-4.569,2.218-6.92c-3.271,0-6.543,0-9.814,0
			c0.536,1.8,1.469,3.347,1.848,5.191c0.916,4.472,7.153,4.786,9.302,1.216c0.08-0.139,0.159-0.277,0.238-0.417
			c-1.199,0.497-2.398,0.994-3.599,1.491c0.108-0.01,0.217-0.02,0.324-0.029c-1.199-0.497-2.399-0.994-3.599-1.49
			c-0.413-0.429-0.421-0.32-0.022,0.324c0.366,0.781,0.988,1.448,1.622,2.018c4.866,4.375,12.089-2.8,7.197-7.197
			c-1.372-1.234-1.555-3.021-3.845-3.651c-3.229-0.888-5.569,1.261-7.106,3.815c3.101,0.405,6.201,0.811,9.302,1.216
			c-0.379-1.852-1.32-3.424-1.848-5.191c-1.429-4.795-8.447-4.923-9.814,0c-0.654,2.35-1.74,4.512-2.218,6.92
			c3.272,0,6.543,0,9.815,0c-0.652-2.351-1.739-4.513-2.217-6.92c-1.01-5.098-8.526-4.632-9.815,0
			c-0.654,2.35-1.74,4.511-2.218,6.92c3.101-0.405,6.202-0.811,9.302-1.216c-0.586-1.37-1.463-3.187-1.705-4.838
			c-0.755-5.157-8.634-4.571-9.815,0c-0.451,1.744-1.028,3.446-1.479,5.191c3.101-0.405,6.202-0.811,9.302-1.216
			c-1.049-2.338-2.277-4.589-3.327-6.926c-2.156-4.801-9.487-2.183-9.484,2.568c0.002,2.897,0.09,5.771,0.371,8.656
			C36.601,97.906,46.786,97.967,46.15,91.434L46.15,91.434z"/>
	</g>
</g>
<g>
	<path stroke="#000000" stroke-width="0.5526" stroke-miterlimit="10" d="M17.246,41.344L1.425,25.341c0,0-5.595-7.737,7.911-3.517
		c0,0,6.752,4.938,14.469-8.266c0,0,3.667-13.204,20.258-13.204c0,0,17.751-1.92,21.996,13.204c0,0,2.896,12.743,16.785,7.252
		c0,0,11.575-4.614,4.244,6.289L72.233,41.344C72.233,41.344,35.383,33.431,17.246,41.344z"/>
	<g>
		<g>
			<path fill="#FFFFFF" stroke="#000000" stroke-width="0.8789" stroke-miterlimit="10" d="M51.948,13.225
				c-0.786-8.482-6.837-7.475-6.837-7.475c-8.79-0.144-7.423,7.475-7.423,7.475c-4.881,1.724,0.195,5.89,0.195,5.89l0.262,0.868
				c-0.165,0.255-0.262,0.529-0.262,0.808c0,1.662,3.146,3.013,7.029,3.013c3.886,0,7.036-1.351,7.036-3.013
				c0-0.508-0.297-0.984-0.81-1.403C56.617,14.741,51.948,13.225,51.948,13.225z"/>
			<path stroke="#000000" stroke-width="0.795" stroke-miterlimit="10" d="M43.481,11.838c0,1.691-0.784,3.064-1.757,3.064
				c-0.975,0-1.758-1.373-1.758-3.064c0-1.693,0.783-3.064,1.758-3.064C42.697,8.774,43.481,10.145,43.481,11.838z"/>
			<ellipse stroke="#000000" stroke-width="0.795" stroke-miterlimit="10" cx="47.654" cy="11.838" rx="1.757" ry="3.064"/>
			<path stroke="#000000" stroke-width="0.817" stroke-miterlimit="10" d="M50.528,18.468c-2.216,0.888-6.49,1.857-11.788-0.646
				c-0.216,0.158-0.424,0.325-0.627,0.49c1.13,1.3,3.222,3.074,6.226,3.074c0,0,3.664,0.4,6.807-2.609
				C50.937,18.672,50.724,18.575,50.528,18.468z"/>
			<path fill="#FFFFFF" d="M42.433,19.87c0,0.423,0.07,1.073-0.414,1.073H41.8c-0.489,0-1.367-0.649-1.367-1.073v-1.055
				c0-0.421,0.878-0.873,1.367-0.873h0.219c0.484,0,0.414,0.451,0.414,0.873V19.87z"/>
			<path fill="#FFFFFF" d="M45.433,19.87c0,0.423,0.033,1.073-0.449,1.073h-0.222c-0.484,0-1.329-0.649-1.329-1.073v-1.055
				c0-0.421,0.845-0.873,1.329-0.873h0.222c0.482,0,0.449,0.451,0.449,0.873V19.87z"/>
			<path fill="#FFFFFF" d="M48.433,19.87c0,0.423-0.002,1.073-0.489,1.073h-0.219c-0.485,0-1.292-0.649-1.292-1.073v-1.055
				c0-0.421,0.807-0.873,1.292-0.873h0.219c0.487,0,0.489,0.451,0.489,0.873V19.87z"/>
			<polygon points="44.693,14.302 45.421,15.624 46.149,16.943 44.693,16.943 43.24,16.943 43.965,15.624 			"/>
		</g>
		<g>
			<g>
				<path fill="#FFFFFF" d="M42.866,32.994c0.461,0.346-0.067,1.132-1.654,1.254c-1.287,0.058-1.016-0.951-1.698-1.024
					c-1.328-0.043-3.341,1.126-4.201,0.587c-0.687-0.522,1.355-1.193,2.733-1.44c3.067-0.561,2.142,0.033,4.901-1.354
					c1.1-0.578,4.896-1.802,5.494-2.38c0.45-0.548-1.618-0.822,0.424-1.492c2.458-0.877,1.821,0.493,1.378,1.039
					c1.096-0.128,4.047-0.998,4.294-0.326c0.106,0.703-2.321,0.785-3.344,1.127c-1.754,0.55-7.705,3.032-8.365,3.902"/>
				<g>
					<path fill="#FFFFFF" d="M42.715,33.082c-0.083-0.171-4.39,0.142-5.053,0.316c-1.101,0.549-1.251,0.328-0.45-0.666
						c1.024-0.314,2.122-0.396,3.18-0.52c0.602-0.071,1.116-0.321,1.662-0.564c1.771-0.787,5.087-1.467,6.509-2.889
						c0.103-0.104,0.097-0.359,0.066-0.471c-0.287-1.044,2.104-1.14,1.462-0.193c-0.096,0.141,0.061,0.279,0.197,0.257
						c0.432-0.064,0.86-0.144,1.287-0.238c0.351-0.071,3.207-0.268,2.077,0.178c-1.349,0.532-2.89,0.637-4.275,1.171
						c-2.177,0.838-4.956,1.683-6.674,3.301c-0.164,0.155,0.083,0.401,0.247,0.247c1.83-1.723,4.941-2.604,7.215-3.479
						c1.317-0.508,3.771-0.312,4.521-1.585c0.036-0.062,0.034-0.165-0.027-0.212c-0.5-0.389-0.95-0.349-1.618-0.239
						c-1.452,0.237-2.278,1.042-2.226-0.365c0.04-1.066-2.747-0.073-3.021,0.625c-0.023,0.059,0.007,0.126,0.045,0.17
						c0.925,1.055-4.716,2.811-5.96,3.422c-2.114,1.041-4.946,0.379-6.802,2.013c-0.043,0.039-0.063,0.115-0.045,0.17
						c0.173,0.506,0.213,0.597,0.92,0.597c1.634,0,2.905-0.764,4.459,0.146c0.881,0.516,3.223-0.107,2.605-1.368
						C42.917,32.703,42.616,32.88,42.715,33.082L42.715,33.082z"/>
				</g>
			</g>
			<g>
				<path fill="#FFFFFF" d="M42.523,27.775c0.455-0.315-0.123-1.06-1.765-1.206c-1.332-0.076-0.994,0.875-1.687,0.934
					c-1.369,0.016-3.502-1.113-4.355-0.624c-0.678,0.478,1.456,1.138,2.889,1.396c3.177,0.578,2.203,0.006,5.102,1.355
					c1.158,0.557,5.126,1.77,5.771,2.321c0.496,0.518-1.618,0.741,0.513,1.406c2.57,0.857,1.848-0.436,1.358-0.955
					c1.139,0.141,4.21,1.005,4.439,0.383c0.066-0.661-2.43-0.782-3.502-1.111c-1.83-0.55-8.082-2.974-8.799-3.798"/>
				<g>
					<path fill="#FFFFFF" d="M42.671,27.862c0.508-1.038-1.135-1.464-1.913-1.464c-0.526,0-0.923,0.062-1.231,0.501
						c-0.572,0.817-3.689-0.404-4.856-0.186c-0.059,0.011-0.103,0.066-0.12,0.12c-0.033,0.101-0.065,0.203-0.098,0.304
						c-0.017,0.052-0.001,0.131,0.044,0.167c1.644,1.286,3.97,1.195,5.939,1.574c1.204,0.232,2.361,0.996,3.524,1.438
						c0.78,0.296,4.91,1.247,3.951,2.288c-0.056,0.061-0.062,0.135-0.027,0.207c0.284,0.596,2.808,1.683,3.097,0.631
						c0.135-0.488-0.602-0.861,0.03-0.754c1.13,0.192,2.789,0.888,3.862,0.246c0.075-0.045,0.116-0.157,0.062-0.234
						c-0.813-1.166-2.839-0.945-4.101-1.348c-2.658-0.85-6.065-1.785-8.227-3.596c-0.168-0.141-0.412,0.1-0.242,0.242
						c1.684,1.411,4.197,2.121,6.219,2.903c1.129,0.437,2.257,0.848,3.438,1.118c0.007,0.001,2.528,0.792,1.765,0.804
						c-1.057,0.017-2.325-0.404-3.394-0.585c-0.176-0.03-0.276,0.149-0.167,0.286c-2.897-3.633-1.985,1.353-1.546-0.245
						c0.037-0.132,0.017-0.348-0.083-0.448c-1.498-1.498-4.958-1.961-6.835-2.817c-0.551-0.252-1.125-0.483-1.73-0.558
						c-0.798-0.093-1.592-0.208-2.384-0.345c-0.305-0.066-0.61-0.132-0.916-0.198c-0.996,0.029-1.182-0.256-0.557-0.854
						c0.616,0.096,5.914,1.21,6.197,0.632C42.278,27.887,42.574,28.06,42.671,27.862L42.671,27.862z"/>
				</g>
			</g>
		</g>
	</g>
</g>
</svg>
