<?xml version="1.0" encoding="utf-8"?>
<!-- Generator: Adobe Illustrator 16.0.0, SVG Export Plug-In . SVG Version: 6.00 Build 0)  -->
<!DOCTYPE svg PUBLIC "-//W3C//DTD SVG 1.1//EN" "http://www.w3.org/Graphics/SVG/1.1/DTD/svg11.dtd">
<svg version="1.1" id="Layer_1" xmlns="http://www.w3.org/2000/svg" xmlns:xlink="http://www.w3.org/1999/xlink" x="0px" y="0px"
	 width="94.889px" height="90.164px" viewBox="0 0 94.889 90.164" enable-background="new 0 0 94.889 90.164" xml:space="preserve">
<pattern  x="-35.9" y="13.671" width="82.553" height="75.857" patternUnits="userSpaceOnUse" id="sm_flows" viewBox="0 -75.857 82.553 75.857" overflow="visible">
	<g>
		<polygon fill="none" points="0,0 82.553,0 82.553,-75.857 0,-75.857 		"/>
		<polygon fill="#CA904F" points="82.553,0 0,0 0,-75.857 82.553,-75.857 		"/>
		<g>
			<path fill="#FFFFFF" stroke="#000000" d="M28.629-50.799"/>
			<g>
				<path fill="#B35537" d="M31.996-56.578c0,0,14.005-4.013,15.127,0.503c0,0-1.272,7.674-15.193,2.379L31.996-56.578z"/>
				<path fill="#B35537" d="M27.076-60.373c0,0,0.968-12.829,7.096-10.905c6.129,1.925-1.13,11.034-4.192,11.546
					c-3.065,0.513-0.484,0.642-0.484,0.642L27.076-60.373z"/>
				<path fill="#B35537" d="M30.463-58.961c0,0,9.354-8.21,12.739-6.543c3.388,1.668,5.161,4.491-3.708,7.185
					c-8.87,2.695-7.741,1.412-7.741,1.412L30.463-58.961z"/>
				<path fill="#B35537" d="M31.33-53.348c0,0,18.545,4.105,10.644,9.494c0,0-6.612,2.438-13.063-7.569L31.33-53.348z"/>
				<g>
					<path fill="#B35537" d="M19.598-57.855c0,0-15.804-3.977-10.32-8.467c5.482-4.49,12.417,6.8,12.417,6.8L19.598-57.855z"/>
					<path fill="#B35537" d="M22.662-59.699c0,0-9.354-12.316-1.613-11.675c7.741,0.642,5.482,10.392,4.838,10.905
						C25.242-59.956,22.662-59.699,22.662-59.699z"/>
					<path fill="#B35537" d="M28.715-51.016c0,0,10.033,9.324,2.574,12.339c-7.459,3.015-5.815-11.213-5.815-11.213L28.715-51.016z"
						/>
					<path fill="#B35537" d="M21.533-51.393c0,0-11.934,9.494-5.161,11.162c0,0,7.257,3.336,8.225-10.135L21.533-51.393z"/>
					<path fill="#B35537" d="M18.65-54.628c0,0-17.577,1.667-11.772,8.209c0,0,5.644,2.31,13.062-5.645L18.65-54.628z"/>
					<path fill="#B35537" d="M18.68-57.686c0,0-13.37-5.28-14.193-0.175c0,0-2.648,6.367,13.648,2.725L18.68-57.686z"/>
				</g>
			</g>
			<path fill="#D7D03D" d="M32.689-55.562c0,3.272-3.291,5.926-7.35,5.926s-7.348-2.653-7.348-5.926
				c0-3.273,3.289-5.927,7.348-5.927S32.689-58.835,32.689-55.562z"/>
			<path fill="#FFFFFF" stroke="#000000" d="M36.502-56.459"/>
		</g>
		<g>
			<path fill="#FFFFFF" stroke="#000000" d="M56.99-18.244"/>
			<g>
				<path fill="#B35537" d="M60.358-24.022c0,0,14.005-4.013,15.126,0.503c0,0-1.271,7.674-15.192,2.379L60.358-24.022z"/>
				<path fill="#B35537" d="M55.438-27.817c0,0,0.968-12.829,7.096-10.905c6.128,1.925-1.13,11.034-4.192,11.547
					c-3.065,0.513-0.484,0.641-0.484,0.641L55.438-27.817z"/>
				<path fill="#B35537" d="M58.825-26.406c0,0,9.353-8.21,12.739-6.543c3.387,1.668,5.16,4.491-3.708,7.185
					c-8.87,2.695-7.741,1.412-7.741,1.412L58.825-26.406z"/>
				<path fill="#B35537" d="M59.691-20.792c0,0,18.545,4.105,10.645,9.494c0,0-6.612,2.438-13.063-7.569L59.691-20.792z"/>
				<g>
					<path fill="#B35537" d="M47.96-25.3c0,0-15.804-3.977-10.321-8.467s12.418,6.8,12.418,6.8L47.96-25.3z"/>
					<path fill="#B35537" d="M51.023-27.144c0,0-9.354-12.316-1.612-11.674c7.74,0.642,5.481,10.392,4.837,10.905
						S51.023-27.144,51.023-27.144z"/>
					<path fill="#B35537" d="M57.077-18.46c0,0,10.033,9.324,2.573,12.339c-7.459,3.015-5.814-11.213-5.814-11.213L57.077-18.46z"/>
					<path fill="#B35537" d="M49.895-18.837c0,0-11.934,9.494-5.16,11.163c0,0,7.257,3.335,8.225-10.136L49.895-18.837z"/>
					<path fill="#B35537" d="M47.012-22.073c0,0-17.576,1.668-11.771,8.21c0,0,5.644,2.31,13.062-5.645L47.012-22.073z"/>
					<path fill="#B35537" d="M47.042-25.13c0,0-13.371-5.28-14.193-0.176c0,0-2.648,6.367,13.648,2.726L47.042-25.13z"/>
				</g>
			</g>
			<path fill="#D7D03D" d="M61.051-23.007c0,3.272-3.29,5.926-7.35,5.926c-4.058,0-7.348-2.653-7.348-5.926
				c0-3.273,3.29-5.927,7.348-5.927C57.761-28.934,61.051-26.28,61.051-23.007z"/>
			<path fill="#FFFFFF" stroke="#000000" d="M64.863-23.904"/>
		</g>
	</g>
</pattern>
<pattern  x="-35.9" y="13.671" width="132.126" height="130.077" patternUnits="userSpaceOnUse" id="talbrwn" viewBox="0 -130.077 132.126 130.077" overflow="visible">
	<g>
		<polygon fill="none" points="0,0 132.126,0 132.126,-130.077 0,-130.077 		"/>
		<polygon fill="#593D16" points="0,-0.129 0.125,-128.813 132.125,-128.685 132,0 		"/>
		<polygon fill="#CA904F" points="0.07,-72.077 0.102,-105.458 132.102,-105.331 132.069,-71.948 		"/>
		<polygon fill="#845B24" points="0.082,-84.964 0.126,-130.077 132.126,-129.949 132.082,-84.837 		"/>
	</g>
</pattern>
<pattern  id="SVGID_1_" xlink:href="#talbrwn" patternTransform="matrix(0.4574 -0.547 0.5674 0.4223 70.9893 -9258.585)">
</pattern>
<path fill="url(#SVGID_1_)" d="M-26.616-181.922c0,0-54.922,14.789-102.637-15.141c-5.363-3.367-20.02-13.818-26.803-18.686
	c-15.584-11.174-44.32-37.783-64.355-91.693c0,0,56.359-18.779,126.209,22.273C-94.202-285.168-22.262-239.945-26.616-181.922z"/>
<path fill="#845B24" d="M418.985,214.147c-50.289,54.984,68.723,183.373,153.5,183.373c84.775,0,200.795-123.486,153.5-183.373
	c-47.293-59.885-68.725-183.369-153.5-183.369C487.708,30.778,469.272,159.169,418.985,214.147z"/>
<path fill="#CA904F" d="M-587.667,63.476c-33.668,16.267,61.973,99.611,138.416,99.611c76.447,0,175.824-90.466,138.416-99.611
	c-37.41-9.145-61.969-99.607-138.416-99.607C-525.694-36.131-553.997,47.211-587.667,63.476z"/>
<ellipse fill="#593D16" cx="571.972" cy="64.953" rx="24.315" ry="18.025"/>
<path fill="#CA904F" d="M123.327-269.222c0,0,39.508-61.446,28.984-73.041c-10.52-11.595-89.338,29.081-89.338,29.081
	L123.327-269.222z"/>
<path fill="#CA904F" d="M-133.412-137.298c0,0-71.475-24.561-90.717-20.626c-19.244,3.932,39.293,71.573,39.293,71.573
	L-133.412-137.298z"/>
<polygon fill="#593D16" points="545.161,51.239 547.426,43.217 450.27,21.971 448.006,29.996 "/>
<path fill="#CA904F" d="M443.168,430.243c-13.248-12.926-2.797-40.232,23.34-60.986c26.141-20.758,58.07-27.109,71.316-14.188
	c13.248,12.928,47.975,46.807-23.34,60.988C443.168,430.243,456.417,443.167,443.168,430.243z"/>
<path fill="#CA904F" d="M702.958,424.368c11.898-13.404,0.033-39.066-26.5-57.316c-26.539-18.252-57.701-22.18-69.598-8.777
	c-11.902,13.406-43.094,48.545,26.502,57.32C702.958,424.368,691.059,437.772,702.958,424.368z"/>
<pattern  id="SVGID_2_" xlink:href="#sm_flows" patternTransform="matrix(1.0139 0 0 1.1192 -7.4761 935.5649)">
</pattern>
<path fill="url(#SVGID_2_)" d="M501.891,225.198c0,53.832,32.072,97.473,71.637,97.473c39.568,0,71.641-43.641,71.641-97.473
	c0-53.834-32.072-97.473-71.641-97.473C533.963,127.726,501.891,171.364,501.891,225.198z"/>
<path fill="#CA904F" d="M85.893,33.874c12.357,8.639,11.93,27.268-0.951,41.611C72.057,89.831,51.596,94.45,39.239,85.813
	c-12.357-8.641-11.934-27.27,0.949-41.613S73.536,25.233,85.893,33.874z"/>
<polygon fill="#CA904F" points="22.573,19.37 49.901,27.246 32.637,44.999 "/>
<polygon fill="#CA904F" points="67.67,0 79.463,23.132 52.958,23.821 "/>
<polygon fill="#CA904F" points="0,56.962 27.618,49.915 24.659,73.163 "/>
<path fill="#CA904F" d="M716.514,148.337c-11.586,9.43-32.439,6.211-46.572-7.191c-14.135-13.396-16.197-31.902-4.609-41.331
	c11.59-9.429,32.441-6.209,46.574,7.19C726.042,120.405,728.102,138.909,716.514,148.337z"/>
<polygon fill="#CA904F" points="742.479,95.477 729.459,118.044 712.165,100.312 "/>
<polygon fill="#CA904F" points="757.331,137.667 729.559,144.39 732.838,121.228 "/>
<polygon fill="#CA904F" points="703.723,70.095 707.411,95.195 681.762,89.065 "/>
<polygon fill="#593D16" points="536.01,64.189 535.885,55.921 471.5,56.688 471.629,64.954 "/>
<polygon fill="#593D16" points="702.963,29.34 700.561,21.348 603.78,43.871 606.178,51.864 "/>
<polygon fill="#593D16" points="672.444,64.189 672.317,55.921 607.934,56.688 608.061,64.954 "/>
<path d="M422.186-110.17c0,11.866-17.647,21.483-39.415,21.483c-21.771,0-39.419-9.617-39.419-21.483
	c0-11.867,0-42.972,39.419-21.486C422.186-110.17,422.186-122.037,422.186-110.17z"/>
<path d="M247.042-110.17c0,11.864,18.938,21.483,42.297,21.483c23.358,0,42.293-9.619,42.293-21.483
	c0-11.867,0-42.972-42.293-21.488C247.042-110.17,247.042-122.037,247.042-110.17z"/>
<path fill="#D7D03D" d="M279.265-103.405c0,0,11.089-39.955,36.755,3.521"/>
<path fill="#D7D03D" d="M352.623-103.405c0,0,11.09-39.955,36.757,3.521"/>
<ellipse fill="#190C0C" cx="297.644" cy="-110.024" rx="8.137" ry="9.027"/>
<ellipse fill="#190C0C" cx="370.465" cy="-110.024" rx="8.137" ry="9.027"/>
</svg>
