<?xml version="1.0" encoding="utf-8"?>
<!-- Generator: Adobe Illustrator 16.0.0, SVG Export Plug-In . SVG Version: 6.00 Build 0)  -->
<!DOCTYPE svg PUBLIC "-//W3C//DTD SVG 1.1//EN" "http://www.w3.org/Graphics/SVG/1.1/DTD/svg11.dtd">
<svg version="1.1" id="Layer_1" xmlns="http://www.w3.org/2000/svg" xmlns:xlink="http://www.w3.org/1999/xlink" x="0px" y="0px"
	 width="304.352px" height="507px" viewBox="0 0 304.352 507" enable-background="new 0 0 304.352 507" xml:space="preserve">
<pattern  x="52.676" y="354" width="132.126" height="130.077" patternUnits="userSpaceOnUse" id="SVGID_1_" viewBox="0 -130.077 132.126 130.077" overflow="visible">
	<g>
		<polygon fill="none" points="0,0 132.126,0 132.126,-130.077 0,-130.077 		"/>
		<g>
			<polygon fill="none" points="0,-130.077 132.126,-130.077 132.126,0 0,0 			"/>
			<polygon fill="#593D16" points="0,-129.948 0.125,-1.264 132.125,-1.393 132,-130.077 			"/>
			<polygon fill="#CA904F" points="0.07,-58 0.102,-24.619 132.102,-24.746 132.069,-58.129 			"/>
			<polygon fill="#845B24" points="0.082,-45.113 0.126,0 132.126,-0.128 132.082,-45.24 			"/>
		</g>
	</g>
</pattern>
<pattern  x="52.676" y="354" width="82.553" height="75.857" patternUnits="userSpaceOnUse" id="SVGID_2_" viewBox="0 -75.857 82.553 75.857" overflow="visible">
	<g>
		<polygon fill="none" points="0,0 82.553,0 82.553,-75.857 0,-75.857 		"/>
		<g>
			<polygon fill="none" points="0,-75.857 82.553,-75.857 82.553,0 0,0 			"/>
			<polygon fill="#CA904F" points="82.553,-75.857 0,-75.857 0,0 82.553,0 			"/>
			<g>
				<path fill="#FFFFFF" stroke="#000000" d="M28.629-25.059"/>
				<g>
					<path fill="#B35537" d="M31.996-19.279c0,0,14.005,4.014,15.127-0.502c0,0-1.272-7.675-15.193-2.38L31.996-19.279z"/>
					<path fill="#B35537" d="M27.076-15.484c0,0,0.968,12.83,7.096,10.905c6.129-1.925-1.13-11.034-4.192-11.546
						c-3.065-0.514-0.484-0.643-0.484-0.643L27.076-15.484z"/>
					<path fill="#B35537" d="M30.463-16.896c0,0,9.354,8.211,12.739,6.543c3.388-1.668,5.161-4.49-3.708-7.185
						c-8.87-2.694-7.741-1.411-7.741-1.411L30.463-16.896z"/>
					<path fill="#B35537" d="M31.33-22.509c0,0,18.545-4.104,10.644-9.494c0,0-6.612-2.438-13.063,7.569L31.33-22.509z"/>
					<g>
						<path fill="#B35537" d="M19.598-18.002c0,0-15.804,3.977-10.32,8.467c5.482,4.49,12.417-6.8,12.417-6.8L19.598-18.002z"/>
						<path fill="#B35537" d="M22.662-16.158c0,0-9.354,12.316-1.613,11.676c7.741-0.643,5.482-10.393,4.838-10.906
							C25.242-15.9,22.662-16.158,22.662-16.158z"/>
						<path fill="#B35537" d="M28.715-24.841c0,0,10.033-9.324,2.574-12.339c-7.459-3.016-5.815,11.213-5.815,11.213L28.715-24.841z
							"/>
						<path fill="#B35537" d="M21.533-24.464c0,0-11.934-9.494-5.161-11.162c0,0,7.257-3.336,8.225,10.136L21.533-24.464z"/>
						<path fill="#B35537" d="M18.65-21.229c0,0-17.577-1.668-11.772-8.209c0,0,5.644-2.311,13.062,5.645L18.65-21.229z"/>
						<path fill="#B35537" d="M18.68-18.171c0,0-13.37,5.28-14.193,0.175c0,0-2.648-6.367,13.648-2.725L18.68-18.171z"/>
					</g>
				</g>
				<path fill="#D7D03D" d="M32.689-20.295c0-3.271-3.291-5.926-7.35-5.926s-7.348,2.652-7.348,5.926s3.289,5.928,7.348,5.928
					S32.689-17.021,32.689-20.295z"/>
				<path fill="#FFFFFF" stroke="#000000" d="M36.502-19.398"/>
			</g>
			<g>
				<path fill="#FFFFFF" stroke="#000000" d="M56.99-57.613"/>
				<g>
					<path fill="#B35537" d="M60.358-51.835c0,0,14.005,4.013,15.126-0.503c0,0-1.271-7.674-15.192-2.379L60.358-51.835z"/>
					<path fill="#B35537" d="M55.438-48.04c0,0,0.968,12.829,7.096,10.905c6.128-1.926-1.13-11.034-4.192-11.547
						c-3.065-0.514-0.484-0.641-0.484-0.641L55.438-48.04z"/>
					<path fill="#B35537" d="M58.825-49.451c0,0,9.353,8.211,12.739,6.543c3.387-1.668,5.16-4.49-3.708-7.185
						c-8.87-2.695-7.741-1.412-7.741-1.412L58.825-49.451z"/>
					<path fill="#B35537" d="M59.691-55.064c0,0,18.545-4.105,10.645-9.494c0,0-6.612-2.438-13.063,7.568L59.691-55.064z"/>
					<g>
						<path fill="#B35537" d="M47.96-50.557c0,0-15.804,3.977-10.321,8.467s12.418-6.801,12.418-6.801L47.96-50.557z"/>
						<path fill="#B35537" d="M51.023-48.713c0,0-9.354,12.316-1.612,11.674c7.74-0.643,5.481-10.393,4.837-10.904
							C53.604-48.457,51.023-48.713,51.023-48.713z"/>
						<path fill="#B35537" d="M57.077-57.396c0,0,10.033-9.324,2.573-12.34c-7.459-3.015-5.814,11.213-5.814,11.213L57.077-57.396z"
							/>
						<path fill="#B35537" d="M49.895-57.02c0,0-11.934-9.494-5.16-11.164c0,0,7.257-3.334,8.225,10.137L49.895-57.02z"/>
						<path fill="#B35537" d="M47.012-53.783c0,0-17.576-1.668-11.771-8.211c0,0,5.644-2.31,13.062,5.645L47.012-53.783z"/>
						<path fill="#B35537" d="M47.042-50.727c0,0-13.371,5.279-14.193,0.176c0,0-2.648-6.367,13.648-2.727L47.042-50.727z"/>
					</g>
				</g>
				<path fill="#D7D03D" d="M61.051-52.85c0-3.272-3.29-5.926-7.35-5.926c-4.058,0-7.348,2.652-7.348,5.926s3.29,5.927,7.348,5.927
					C57.761-46.923,61.051-49.576,61.051-52.85z"/>
				<path fill="#FFFFFF" stroke="#000000" d="M64.863-51.953"/>
			</g>
		</g>
	</g>
</pattern>
<path d="M92.593,21.111c0,0-68.403-11.527-85.239-5.08c-16.836,6.445,46.311,58.921,46.311,58.921L92.593,21.111z"/>
<path d="M248.817,75.185c0,0,53.819-39.989,48.534-53.353c-5.281-13.364-86.144-3.939-86.144-3.939L248.817,75.185z"/>
<ellipse cx="154.176" cy="406.5" rx="60.5" ry="100.5"/>
<ellipse cx="152.176" cy="195.5" rx="152.176" ry="195.5"/>
<pattern  id="SVGID_3_" xlink:href="#SVGID_1_" patternTransform="matrix(0.4574 -0.547 -0.5674 -0.4223 -9342.1553 -6864.7881)">
</pattern>
<path fill="url(#SVGID_3_)" d="M-310.666,502.963c0,0-54.922,14.789-102.637-15.141c-5.363-3.367-20.021-13.818-26.805-18.687
	c-15.583-11.174-44.318-37.782-64.354-91.692c0,0,56.357-18.779,126.209,22.272C-378.252,399.717-306.312,444.939-310.666,502.963z"
	/>
<path fill="#845B24" d="M-337.058,424.047c-50.288,54.984,68.725,183.373,153.501,183.373c84.775,0,200.794-123.486,153.5-183.373
	c-47.294-59.885-68.725-183.369-153.5-183.369C-268.334,240.678-286.77,369.068-337.058,424.047z"/>
<ellipse fill="#593D16" cx="-184.069" cy="274.852" rx="24.315" ry="18.025"/>
<path fill="#593D16" d="M-59.07,183.636c0,16.38-24.36,29.657-54.408,29.657c-30.051,0-54.412-13.277-54.412-29.657
	c0-16.38,0-59.318,54.412-29.658C-59.07,183.636-59.07,167.256-59.07,183.636z"/>
<path fill="#593D16" d="M-300.837,183.636c0,16.378,26.141,29.657,58.385,29.657s58.381-13.279,58.381-29.657
	c0-16.38,0-59.318-58.381-29.661C-300.837,183.636-300.837,167.256-300.837,183.636z"/>
<polygon fill="#593D16" points="-210.881,261.139 -208.616,253.115 -305.772,231.869 -308.036,239.895 "/>
<path fill="#CA904F" d="M-312.874,640.143c-13.247-12.926-2.796-40.231,23.34-60.985c26.141-20.758,58.07-27.109,71.316-14.188
	c13.249,12.928,47.976,46.808-23.341,60.988C-312.874,640.143-299.626,653.066-312.874,640.143z"/>
<path fill="#CA904F" d="M-53.084,634.268c11.896-13.403,0.033-39.065-26.501-57.315c-26.538-18.252-57.701-22.18-69.598-8.777
	c-11.901,13.406-43.094,48.545,26.501,57.32C-53.084,634.268-64.982,647.672-53.084,634.268z"/>
<pattern  id="SVGID_4_" xlink:href="#SVGID_2_" patternTransform="matrix(1.0139 0 0 -1.1192 -68.2432 -17956.2812)">
</pattern>
<path fill="url(#SVGID_4_)" d="M-254.15,435.098c0,53.832,32.072,97.474,71.636,97.474c39.568,0,71.642-43.642,71.642-97.474
	c0-53.834-32.072-97.474-71.642-97.474C-222.078,337.624-254.15,381.264-254.15,435.098z"/>
<g>
	<path fill="#CA904F" d="M-280.169,315.77c12.357,8.64,11.931,27.269-0.951,41.611c-12.884,14.346-33.346,18.965-45.703,10.328
		c-12.357-8.641-11.933-27.27,0.949-41.613C-312.99,311.752-292.525,307.129-280.169,315.77z"/>
	<polygon fill="#CA904F" points="-343.488,301.266 -316.16,309.141 -333.424,326.895 	"/>
	<polygon fill="#CA904F" points="-298.391,281.895 -286.598,305.027 -313.104,305.716 	"/>
	<polygon fill="#CA904F" points="-366.062,338.855 -338.443,331.811 -341.402,355.059 	"/>
</g>
<g>
	<path fill="#CA904F" d="M-126.523,50.751c-11.587,9.43-32.438,6.211-46.572-7.191c-14.136-13.396-16.196-31.902-4.608-41.332
		c11.589-9.428,32.439-6.209,46.574,7.189C-116.995,22.82-114.935,41.324-126.523,50.751z"/>
	<polygon fill="#CA904F" points="-100.558,-2.11 -113.577,20.458 -130.872,2.726 	"/>
	<polygon fill="#CA904F" points="-85.706,40.082 -113.479,46.804 -110.199,23.642 	"/>
	<polygon fill="#CA904F" points="-139.314,-27.492 -135.627,-2.391 -161.275,-8.52 	"/>
</g>
<polygon fill="#593D16" points="-220.031,274.088 -220.157,265.82 -284.541,266.586 -284.413,274.854 "/>
<polygon fill="#593D16" points="-53.079,239.238 -55.48,231.246 -152.262,253.77 -149.863,261.764 "/>
<polygon fill="#593D16" points="-137.719,212.593 -137.846,204.325 -202.229,205.091 -202.101,213.358 "/>
<path fill="#D7D03D" d="M-256.356,192.974c0,0,15.309-55.153,50.737,4.861"/>
<path fill="#D7D03D" d="M-155.094,192.974c0,0,15.309-55.153,50.737,4.861"/>
<ellipse fill="#190C0C" cx="-230.987" cy="183.837" rx="11.232" ry="12.461"/>
<ellipse fill="#190C0C" cx="-130.465" cy="183.837" rx="11.231" ry="12.461"/>
<path fill="#CA904F" d="M-487.301-106.014c-26.88,12.987,49.477,79.526,110.507,79.526c61.032,0,140.372-72.226,110.506-79.526
	c-29.867-7.301-49.476-79.523-110.506-79.523C-437.824-185.538-460.42-118.999-487.301-106.014z"/>
<path fill="#F7F372" stroke="#D4D8DD" stroke-width="2.3608" stroke-miterlimit="10" d="M211.315-197.274
	c30.736,0,55.613,22.758,55.613,50.798c0,28.117-24.877,50.897-55.613,50.897c-30.68,0-55.6-22.78-55.6-50.897
	C155.716-174.516,180.636-197.274,211.315-197.274z"/>
<path fill="#F7F372" stroke="#D4D8DD" stroke-width="2.3608" stroke-miterlimit="10" d="M326.715-197.274
	c30.69,0,55.586,22.758,55.586,50.798c0,28.117-24.896,50.897-55.586,50.897c-30.726,0-55.631-22.78-55.631-50.897
	C271.084-174.516,295.99-197.274,326.715-197.274z"/>
<path d="M211.708-174.371c16.537,0,29.924,12.502,29.924,27.957c0,15.467-13.387,28.016-29.924,28.016
	c-16.513,0-29.896-12.549-29.896-28.016C181.813-161.869,195.196-174.371,211.708-174.371z"/>
<path d="M327.079-175.371c16.537,0,29.927,12.502,29.927,27.957c0,15.467-13.39,28.016-29.927,28.016
	c-16.509,0-29.873-12.549-29.873-28.016C297.206-162.869,310.571-175.371,327.079-175.371z"/>
<linearGradient id="SVGID_5_" gradientUnits="userSpaceOnUse" x1="-248.6443" y1="97.5137" x2="-132.7253" y2="97.5137" gradientTransform="matrix(1.0196 -0.0112 0.0112 -0.8356 -210.0119 192.6697)">
	<stop  offset="0" style="stop-color:#FFFFFF"/>
	<stop  offset="0.3148" style="stop-color:#5E00BF"/>
	<stop  offset="1" style="stop-color:#000000"/>
</linearGradient>
<path fill="url(#SVGID_5_)" d="M-462.75,137.295c0,0,2.977-43.278,57.537-46.946c0,0,48.651-7.667,60.666,44.759L-462.75,137.295z"
	/>
<linearGradient id="SVGID_6_" gradientUnits="userSpaceOnUse" x1="-127.9099" y1="131.8008" x2="-11.9875" y2="131.8008" gradientTransform="matrix(0.9996 -0.0072 0.0072 -0.8815 -206.4145 198.3131)">
	<stop  offset="0" style="stop-color:#FFFFFF"/>
	<stop  offset="0.3148" style="stop-color:#5E00BF"/>
	<stop  offset="1" style="stop-color:#000000"/>
</linearGradient>
<path fill="url(#SVGID_6_)" d="M-333.526,107.679c0,0,2.747-45.657,56.18-49.314c0,0,47.7-7.85,59.704,47.517L-333.526,107.679z"/>
<g>
	<ellipse fill="#808285" cx="153.676" cy="297" rx="70" ry="91"/>
	<g>
		<path fill="none" stroke="#FFFFFF" stroke-width="0.9" stroke-linecap="round" stroke-linejoin="round" d="M119.696,217.545
			c0,0,7.062-4.961,7.309-4.567c0.865,1.385-21.371,13.584-19.753,16.173c2.469,3.951,32.295-25.667,34.76-21.721
			c0,0-40.368,28.212-40.097,28.646c3.305,5.289,47.493-29.677,47.493-29.677c3.905,6.25-54.037,30.962-51.2,35.502
			c1.058,1.693,54.058-40.388,57.028-35.635c3.937,6.3-64.39,33.022-59.701,40.526c3.212,5.14,63.802-41.192,64.398-40.24
			c0.022,0.036-66.807,42.462-66.079,43.628c3.859,6.175,66.034-47.856,68.997-43.114c0,0-72.6,45.515-71.051,47.993
			c5.968,9.551,72.192-52.186,75.372-47.097c3.748,5.999-81.968,43.549-77.022,51.464c0.576,0.922,79.324-52.503,80.644-50.392
			c5.707,9.133-81.548,53.175-81.548,53.175c4.887,7.82,80.393-57.864,83.821-52.378c5.769,9.231-87.255,52.614-85,56.223
			c2.098,3.357,81.458-65.406,87.976-54.973c0,0-89.915,56.873-88.865,58.553c1.102,1.764,91.643-57.265,91.643-57.265
			c2.973,4.758-94.049,58.175-92.468,60.704c4.729,7.568,87.92-70.597,94.957-59.336c4.74,7.585-100.607,55.813-95.712,63.646
			c0.456,0.729,95.179-67.671,98.863-61.776c1.099,1.758-99.47,65.474-99.47,65.474c1.09,1.745,98.345-69.581,101.998-63.735
			c0,0-107.014,58.233-102.223,65.899c4.493,7.19,103.764-64.838,103.764-64.838c4.419,7.071-106.857,63.85-104.118,68.234
			c7.177,11.486,104.699-69.015,106.313-66.432c5.16,8.258-106.553,69.437-106.553,69.437c3.465,5.546,105.955-71.879,108.504-67.8
			c0,0-114.918,61.442-108.632,71.501c6.739,10.785,110.971-69.342,110.971-69.342c8.107,12.975-111.054,71.747-111.054,71.747
			c1.838,2.941,103.976-83.936,112.498-70.296c0,0-117.054,65.926-112.464,73.271c2.86,4.578,114.302-71.424,114.302-71.424
			c6.89,11.026-123.527,59.119-114.2,74.045c3.152,5.044,111.683-78.731,115.701-72.299c2.9,4.64-118.35,70.198-115.613,74.577
			c3.502,5.605,113.005-79.274,116.897-73.045c2.009,3.216-118.338,73.42-116.755,75.953c3.089,4.943,115.558-78.538,118.402-73.986
			c3.257,5.211-125.015,65.502-118.099,76.57c3.889,6.224,110.368-89.227,119.473-74.655c1.367,2.187-127.714,63.899-119.121,77.65
			c1.788,2.861,120.686-75.413,120.686-75.413c1.189,1.903-129.122,64.748-120.229,78.978
			c8.375,13.403,113.575-89.92,122.092-76.291c0.943,1.51-130.22,65.558-121.434,79.619c3.721,5.954,118.31-84.4,123.016-76.869
			c1.055,1.687-123.724,77.782-122.423,79.863c6.859,10.977,123.211-78.405,123.847-77.388
			c1.787,2.859-125.032,77.201-123.263,80.033c5.395,8.633,124.489-77.79,124.489-77.79c6.755,10.81-127.523,74.624-123.624,80.864
			c3.627,5.805,121.451-83.636,124.932-78.066c0,0-128.993,73.351-124.017,81.314c7.557,12.093,119.657-87.547,125.399-78.358
			c6.61,10.579-133.267,66.66-124.872,80.095c7.836,12.541,123.778-81.365,125.585-78.474c4.023,6.439-124.84,80.484-124.84,80.484
			c1.199,1.919,125.495-78.616,125.584-78.474c4.602,7.363-133.765,66.538-124.533,81.312c1.323,2.117,121.019-85.78,125.584-78.474
			c8.15,13.043-127.774,75.802-124.826,80.52c5.529,8.848,117.545-91.341,125.585-78.475c6.9,11.044-130.115,71.936-124.511,80.904
			c0,0,120.986-85.195,125.298-78.295c8.332,13.334-130.847,70.027-124.16,80.729c1.338,2.141,124.913-78.054,124.913-78.054
			c7.559,12.096-128.77,72.443-123.872,80.282l124.561-77.834c2.799,4.479-127.105,74.063-123.791,79.366
			c1.065,1.705,119.496-85.22,124.237-77.632c1.62,2.592-132.045,65.287-123.154,79.517c5.792,9.27,118.251-85.803,123.604-77.236
			c2.383,3.812-126.574,72.649-122.399,79.329c7.719,12.354,122.716-77.094,122.901-76.797
			c1.806,2.891-131.141,63.749-121.903,78.534c2.772,4.437,115.737-86.966,122.318-76.434c0,0-121.759,77.282-121.222,78.142
			c9.289,14.864,113.936-88.206,121.581-75.973c6.113,9.784-120.086,78.109-120.086,78.109
			c5.62,8.993,110.687-90.828,120.422-75.249c3.468,5.55-123.515,70.079-119.125,77.104c9.312,14.901,119.416-74.619,119.416-74.619
			c8.167,13.069-125.745,64.116-117.859,76.736c4.198,6.718,112.001-83.764,118.192-73.855
			c5.015,8.025-119.616,71.05-116.897,75.402c2.376,3.803,112.56-80.185,116.987-73.102c3.98,6.37-117.375,71.809-115.333,75.075
			l115.447-72.14c4.149,6.64-120.119,63.865-113.797,73.981c4.733,7.575,105.127-85.225,113.906-71.176
			c7.082,11.333-120.713,59.266-112.2,72.891c0,0,108.588-75.871,112.192-70.104c3.3,5.281-110.679,71.42-110.334,71.972
			c0,0,103.12-80.253,110.227-68.878c3.456,5.53-112.862,63.538-108.645,70.286c3.759,6.016,107.818-69.027,108.561-67.837
			c0,0-106.524,69.21-106.085,69.912c8.312,13.302,105.029-67.27,105.767-66.09c1.387,2.22-108.958,58.891-103.231,68.057
			c4.194,6.711,98.637-70.976,102.834-64.259c7.872,12.598-108.979,53.026-101.301,65.313c2.242,3.587,97.776-68.341,101.031-63.132
			c0,0-102.031,59.917-99.26,64.35c3.357,5.374,93.528-70.18,98.803-61.738c0.176,0.281-102.256,53.96-96.533,63.118
			c4.682,7.494,91.891-66.523,95.981-59.976c0,0-98.452,53.898-93.959,61.088c5.467,8.75,92.276-60.14,93.391-58.357
			c0,0-92.779,56.066-90.374,59.915c0,0,89.156-56.167,89.361-55.839c0,0-90.332,51.738-87.202,56.746
			c4.957,7.933,81.065-62.742,86.497-54.05c6.783,10.854-87.982,48.275-83.619,55.258c5.421,8.676,80.937-53.812,82.392-51.484
			c2.14,3.425-81.279,47.786-78.19,52.729c5.065,8.106,76.41-47.746,76.41-47.746c4.64,7.425-78.002,40.871-73.218,48.526
			c3.557,5.693,68.958-49.194,71.702-44.804c4.989,7.983-68.773,45.32-68.773,45.32l67.247-42.021c0,0-65.483,38.695-63.113,42.487
			c4.54,7.267,60.607-38.571,60.922-38.068c0,0-60.111,30.879-55.514,38.236c0.864,1.383,48.044-39.198,52.169-32.599
			c0.887,1.419-51.935,26.078-48.012,32.356c2.679,4.286,45.147-28.212,45.147-28.212s-38.594,23.627-36.688,26.677
			c0.238,0.381,29.255-21.387,30.65-19.152c0.316,0.505-19.43,12.012-18.07,14.188c0,0,6.793-5.386,7.306-4.565"/>
	</g>
</g>
<path fill="#FF9B15" d="M151.233,140.168c-11.874,0-21.5,4.474-21.5,9.993c0,2.134,1.442,4.11,3.895,5.733l18.71,41.897L168.676,156
	c2.55-1.643,4.058-3.659,4.058-5.839C172.733,144.642,163.107,140.168,151.233,140.168z"/>
<ellipse fill="#F7F372" stroke="#D4D8DD" stroke-width="2.3608" stroke-miterlimit="10" cx="98.676" cy="384.5" rx="8" ry="22.5"/>
<ellipse fill="#F7F372" stroke="#D4D8DD" stroke-width="2.3608" stroke-miterlimit="10" cx="109.676" cy="384.5" rx="8" ry="22.5"/>
<ellipse fill="#F7F372" stroke="#D4D8DD" stroke-width="2.3608" stroke-miterlimit="10" cx="121.676" cy="385" rx="8" ry="22.5"/>
<ellipse fill="#F7F372" stroke="#D4D8DD" stroke-width="2.3608" stroke-miterlimit="10" cx="197.676" cy="384.5" rx="8" ry="22.5"/>
<ellipse fill="#F7F372" stroke="#D4D8DD" stroke-width="2.3608" stroke-miterlimit="10" cx="208.676" cy="384.5" rx="8" ry="22.5"/>
<ellipse fill="#F7F372" stroke="#D4D8DD" stroke-width="2.3608" stroke-miterlimit="10" cx="220.676" cy="385" rx="8" ry="22.5"/>
</svg>
