<?xml version="1.0" encoding="utf-8"?>
<!-- Generator: Adobe Illustrator 16.0.0, SVG Export Plug-In . SVG Version: 6.00 Build 0)  -->
<!DOCTYPE svg PUBLIC "-//W3C//DTD SVG 1.1//EN" "http://www.w3.org/Graphics/SVG/1.1/DTD/svg11.dtd">
<svg version="1.1" id="Layer_1" xmlns="http://www.w3.org/2000/svg" xmlns:xlink="http://www.w3.org/1999/xlink" x="0px" y="0px"
	 width="304.352px" height="507px" viewBox="0 0 304.352 507" enable-background="new 0 0 304.352 507" xml:space="preserve">
<pattern  x="52.676" y="354" width="132.126" height="130.077" patternUnits="userSpaceOnUse" id="SVGID_1_" viewBox="0 -130.077 132.126 130.077" overflow="visible">
	<g>
		<polygon fill="none" points="0,0 132.126,0 132.126,-130.077 0,-130.077 		"/>
		<g>
			<polygon fill="none" points="0,-130.077 132.126,-130.077 132.126,0 0,0 			"/>
			<polygon fill="#593D16" points="0,-129.948 0.125,-1.264 132.125,-1.393 132,-130.077 			"/>
			<polygon fill="#CA904F" points="0.07,-58 0.102,-24.619 132.102,-24.746 132.069,-58.129 			"/>
			<polygon fill="#845B24" points="0.082,-45.113 0.126,0 132.126,-0.128 132.082,-45.24 			"/>
		</g>
	</g>
</pattern>
<pattern  x="52.676" y="354" width="82.553" height="75.857" patternUnits="userSpaceOnUse" id="SVGID_2_" viewBox="0 -75.857 82.553 75.857" overflow="visible">
	<g>
		<polygon fill="none" points="0,0 82.553,0 82.553,-75.857 0,-75.857 		"/>
		<g>
			<polygon fill="none" points="0,-75.857 82.553,-75.857 82.553,0 0,0 			"/>
			<polygon fill="#CA904F" points="82.553,-75.857 0,-75.857 0,0 82.553,0 			"/>
			<g>
				<path fill="#FFFFFF" stroke="#000000" d="M28.629-25.059"/>
				<g>
					<path fill="#B35537" d="M31.996-19.279c0,0,14.005,4.014,15.127-0.502c0,0-1.272-7.675-15.193-2.38L31.996-19.279z"/>
					<path fill="#B35537" d="M27.076-15.484c0,0,0.968,12.83,7.096,10.905c6.129-1.925-1.13-11.034-4.192-11.546
						c-3.065-0.514-0.484-0.643-0.484-0.643L27.076-15.484z"/>
					<path fill="#B35537" d="M30.463-16.896c0,0,9.354,8.211,12.739,6.543c3.388-1.668,5.161-4.49-3.708-7.185
						c-8.87-2.694-7.741-1.411-7.741-1.411L30.463-16.896z"/>
					<path fill="#B35537" d="M31.33-22.509c0,0,18.545-4.104,10.644-9.494c0,0-6.612-2.438-13.063,7.569L31.33-22.509z"/>
					<g>
						<path fill="#B35537" d="M19.598-18.002c0,0-15.804,3.977-10.32,8.467c5.482,4.49,12.417-6.8,12.417-6.8L19.598-18.002z"/>
						<path fill="#B35537" d="M22.662-16.158c0,0-9.354,12.316-1.613,11.676c7.741-0.643,5.482-10.393,4.838-10.906
							C25.242-15.9,22.662-16.158,22.662-16.158z"/>
						<path fill="#B35537" d="M28.715-24.841c0,0,10.033-9.324,2.574-12.339c-7.459-3.016-5.815,11.213-5.815,11.213L28.715-24.841z
							"/>
						<path fill="#B35537" d="M21.533-24.464c0,0-11.934-9.494-5.161-11.162c0,0,7.257-3.336,8.225,10.136L21.533-24.464z"/>
						<path fill="#B35537" d="M18.65-21.229c0,0-17.577-1.668-11.772-8.209c0,0,5.644-2.311,13.062,5.645L18.65-21.229z"/>
						<path fill="#B35537" d="M18.68-18.171c0,0-13.37,5.28-14.193,0.175c0,0-2.648-6.367,13.648-2.725L18.68-18.171z"/>
					</g>
				</g>
				<path fill="#D7D03D" d="M32.689-20.295c0-3.271-3.291-5.926-7.35-5.926s-7.348,2.652-7.348,5.926s3.289,5.928,7.348,5.928
					S32.689-17.021,32.689-20.295z"/>
				<path fill="#FFFFFF" stroke="#000000" d="M36.502-19.398"/>
			</g>
			<g>
				<path fill="#FFFFFF" stroke="#000000" d="M56.99-57.613"/>
				<g>
					<path fill="#B35537" d="M60.358-51.835c0,0,14.005,4.013,15.126-0.503c0,0-1.271-7.674-15.192-2.379L60.358-51.835z"/>
					<path fill="#B35537" d="M55.438-48.04c0,0,0.968,12.829,7.096,10.905c6.128-1.926-1.13-11.034-4.192-11.547
						c-3.065-0.514-0.484-0.641-0.484-0.641L55.438-48.04z"/>
					<path fill="#B35537" d="M58.825-49.451c0,0,9.353,8.211,12.739,6.543c3.387-1.668,5.16-4.49-3.708-7.185
						c-8.87-2.695-7.741-1.412-7.741-1.412L58.825-49.451z"/>
					<path fill="#B35537" d="M59.691-55.064c0,0,18.545-4.105,10.645-9.494c0,0-6.612-2.438-13.063,7.568L59.691-55.064z"/>
					<g>
						<path fill="#B35537" d="M47.96-50.557c0,0-15.804,3.977-10.321,8.467s12.418-6.801,12.418-6.801L47.96-50.557z"/>
						<path fill="#B35537" d="M51.023-48.713c0,0-9.354,12.316-1.612,11.674c7.74-0.643,5.481-10.393,4.837-10.904
							C53.604-48.457,51.023-48.713,51.023-48.713z"/>
						<path fill="#B35537" d="M57.077-57.396c0,0,10.033-9.324,2.573-12.34c-7.459-3.015-5.814,11.213-5.814,11.213L57.077-57.396z"
							/>
						<path fill="#B35537" d="M49.895-57.02c0,0-11.934-9.494-5.16-11.164c0,0,7.257-3.334,8.225,10.137L49.895-57.02z"/>
						<path fill="#B35537" d="M47.012-53.783c0,0-17.576-1.668-11.771-8.211c0,0,5.644-2.31,13.062,5.645L47.012-53.783z"/>
						<path fill="#B35537" d="M47.042-50.727c0,0-13.371,5.279-14.193,0.176c0,0-2.648-6.367,13.648-2.727L47.042-50.727z"/>
					</g>
				</g>
				<path fill="#D7D03D" d="M61.051-52.85c0-3.272-3.29-5.926-7.35-5.926c-4.058,0-7.348,2.652-7.348,5.926s3.29,5.927,7.348,5.927
					C57.761-46.923,61.051-49.576,61.051-52.85z"/>
				<path fill="#FFFFFF" stroke="#000000" d="M64.863-51.953"/>
			</g>
		</g>
	</g>
</pattern>
<path fill="#6100A9" d="M98.401,26.172c0,0-68.653-9.932-85.334-3.095c-16.682,6.835,47.669,57.828,47.669,57.828L98.401,26.172z"/>
<path fill="#6100A9" d="M246.409,82.669c0,0,53.173-40.846,47.674-54.125c-5.495-13.277-86.195-2.557-86.195-2.557L246.409,82.669z"
	/>
<ellipse fill="#6100A9" cx="154.176" cy="406.5" rx="60.5" ry="100.5"/>
<ellipse fill="#6100A9" cx="152.176" cy="195.5" rx="152.176" ry="195.5"/>
<pattern  id="SVGID_3_" xlink:href="#SVGID_1_" patternTransform="matrix(0.4574 -0.547 -0.5674 -0.4223 -9342.1553 -6864.7881)">
</pattern>
<path fill="url(#SVGID_3_)" d="M-310.666,502.963c0,0-54.922,14.789-102.637-15.141c-5.363-3.367-20.021-13.818-26.805-18.687
	c-15.583-11.174-44.318-37.782-64.354-91.692c0,0,56.357-18.779,126.209,22.272C-378.252,399.717-306.312,444.939-310.666,502.963z"
	/>
<path fill="#845B24" d="M-337.058,424.047c-50.288,54.984,68.725,183.373,153.501,183.373c84.775,0,200.794-123.486,153.5-183.373
	c-47.294-59.885-68.725-183.369-153.5-183.369C-268.334,240.678-286.77,369.068-337.058,424.047z"/>
<ellipse fill="#593D16" cx="-184.069" cy="274.852" rx="24.315" ry="18.025"/>
<path fill="#593D16" d="M-59.07,183.636c0,16.38-24.36,29.657-54.408,29.657c-30.051,0-54.412-13.277-54.412-29.657
	c0-16.38,0-59.318,54.412-29.658C-59.07,183.636-59.07,167.256-59.07,183.636z"/>
<path fill="#593D16" d="M-300.837,183.636c0,16.378,26.141,29.657,58.385,29.657s58.381-13.279,58.381-29.657
	c0-16.38,0-59.318-58.381-29.661C-300.837,183.636-300.837,167.256-300.837,183.636z"/>
<polygon fill="#593D16" points="-210.881,261.139 -208.616,253.115 -305.772,231.869 -308.036,239.895 "/>
<path fill="#CA904F" d="M-312.874,640.143c-13.247-12.926-2.796-40.231,23.34-60.985c26.141-20.758,58.07-27.109,71.316-14.188
	c13.249,12.928,47.976,46.808-23.341,60.988C-312.874,640.143-299.626,653.066-312.874,640.143z"/>
<path fill="#CA904F" d="M-53.084,634.268c11.896-13.403,0.033-39.065-26.501-57.315c-26.538-18.252-57.701-22.18-69.598-8.777
	c-11.901,13.406-43.094,48.545,26.501,57.32C-53.084,634.268-64.982,647.672-53.084,634.268z"/>
<pattern  id="SVGID_4_" xlink:href="#SVGID_2_" patternTransform="matrix(1.0139 0 0 -1.1192 -68.2432 -17956.2812)">
</pattern>
<path fill="url(#SVGID_4_)" d="M-254.15,435.098c0,53.832,32.072,97.474,71.636,97.474c39.568,0,71.642-43.642,71.642-97.474
	c0-53.834-32.072-97.474-71.642-97.474C-222.078,337.624-254.15,381.264-254.15,435.098z"/>
<g>
	<path fill="#CA904F" d="M-280.169,315.77c12.357,8.64,11.931,27.269-0.951,41.611c-12.884,14.346-33.346,18.965-45.703,10.328
		c-12.357-8.641-11.933-27.27,0.949-41.613C-312.99,311.752-292.525,307.129-280.169,315.77z"/>
	<polygon fill="#CA904F" points="-343.488,301.266 -316.16,309.141 -333.424,326.895 	"/>
	<polygon fill="#CA904F" points="-298.391,281.895 -286.598,305.027 -313.104,305.716 	"/>
	<polygon fill="#CA904F" points="-366.062,338.855 -338.443,331.811 -341.402,355.059 	"/>
</g>
<g>
	<path fill="#CA904F" d="M-39.527,358.236c-11.587,9.43-32.438,6.211-46.572-7.191c-14.136-13.396-16.196-31.902-4.608-41.332
		c11.589-9.428,32.439-6.209,46.574,7.189C-30,330.305-27.939,348.809-39.527,358.236z"/>
	<polygon fill="#CA904F" points="-13.562,305.375 -26.582,327.943 -43.877,310.211 	"/>
	<polygon fill="#CA904F" points="1.289,347.566 -26.483,354.289 -23.204,331.127 	"/>
	<polygon fill="#CA904F" points="-52.318,279.993 -48.632,305.094 -74.279,298.965 	"/>
</g>
<polygon fill="#593D16" points="-220.031,274.088 -220.157,265.82 -284.541,266.586 -284.413,274.854 "/>
<polygon fill="#593D16" points="-53.079,239.238 -55.48,231.246 -152.262,253.77 -149.863,261.764 "/>
<polygon fill="#593D16" points="-83.598,274.088 -83.725,265.82 -148.108,266.586 -147.98,274.854 "/>
<path fill="#D7D03D" d="M-256.356,192.974c0,0,15.309-55.153,50.737,4.861"/>
<path fill="#D7D03D" d="M-155.094,192.974c0,0,15.309-55.153,50.737,4.861"/>
<ellipse fill="#190C0C" cx="-230.987" cy="183.837" rx="11.232" ry="12.461"/>
<ellipse fill="#190C0C" cx="-130.465" cy="183.837" rx="11.231" ry="12.461"/>
<path fill="#CA904F" d="M-487.301-106.014c-26.88,12.987,49.477,79.526,110.507,79.526c61.032,0,140.372-72.226,110.506-79.526
	c-29.867-7.301-49.476-79.523-110.506-79.523C-437.824-185.538-460.42-118.999-487.301-106.014z"/>
<path fill="#F7F372" stroke="#D4D8DD" stroke-width="2.3608" stroke-miterlimit="10" d="M188.816-117.778
	c30.736,0,55.613,22.758,55.613,50.798c0,28.117-24.877,50.897-55.613,50.897c-30.68,0-55.6-22.78-55.6-50.897
	C133.217-95.02,158.137-117.778,188.816-117.778z"/>
<path fill="#F7F372" stroke="#D4D8DD" stroke-width="2.3608" stroke-miterlimit="10" d="M304.216-117.778
	c30.69,0,55.586,22.758,55.586,50.798c0,28.117-24.896,50.897-55.586,50.897c-30.726,0-55.631-22.78-55.631-50.897
	C248.585-95.02,273.49-117.778,304.216-117.778z"/>
<path d="M189.209-94.875c16.537,0,29.924,12.502,29.924,27.957c0,15.467-13.387,28.016-29.924,28.016
	c-16.513,0-29.896-12.549-29.896-28.016C159.314-82.373,172.697-94.875,189.209-94.875z"/>
<path d="M304.58-94.875c16.537,0,29.927,12.502,29.927,27.957c0,15.467-13.39,28.016-29.927,28.016
	c-16.509,0-29.873-12.549-29.873-28.016C274.707-82.373,288.072-94.875,304.58-94.875z"/>
<linearGradient id="SVGID_5_" gradientUnits="userSpaceOnUse" x1="-248.6443" y1="97.5137" x2="-132.7253" y2="97.5137" gradientTransform="matrix(1.0196 -0.0112 0.0112 -0.8356 -210.0119 192.6697)">
	<stop  offset="0" style="stop-color:#FFFFFF"/>
	<stop  offset="0.3148" style="stop-color:#5E00BF"/>
	<stop  offset="1" style="stop-color:#000000"/>
</linearGradient>
<path fill="url(#SVGID_5_)" d="M-462.75,137.295c0,0,2.977-43.278,57.537-46.946c0,0,48.651-7.667,60.666,44.759L-462.75,137.295z"
	/>
<linearGradient id="SVGID_6_" gradientUnits="userSpaceOnUse" x1="-127.9099" y1="131.8008" x2="-11.9875" y2="131.8008" gradientTransform="matrix(0.9996 -0.0072 0.0072 -0.8815 -206.4145 198.3131)">
	<stop  offset="0" style="stop-color:#FFFFFF"/>
	<stop  offset="0.3148" style="stop-color:#5E00BF"/>
	<stop  offset="1" style="stop-color:#000000"/>
</linearGradient>
<path fill="url(#SVGID_6_)" d="M-333.526,107.679c0,0,2.747-45.657,56.18-49.314c0,0,47.7-7.85,59.704,47.517L-333.526,107.679z"/>
<ellipse fill="#FFFFFF" cx="153.676" cy="297" rx="70" ry="91"/>
<path fill="#FF9B15" d="M156.176,144.761c-11.874,0-21.5,4.474-21.5,9.993c0,2.134,1.443,4.11,3.895,5.733l18.711,41.897
	l16.339-41.792c2.55-1.643,4.057-3.659,4.057-5.839C177.676,149.235,168.05,144.761,156.176,144.761z"/>
<ellipse fill="#F7F372" stroke="#D4D8DD" stroke-width="2.3608" stroke-miterlimit="10" cx="98.676" cy="384.5" rx="8" ry="22.5"/>
<ellipse fill="#F7F372" stroke="#D4D8DD" stroke-width="2.3608" stroke-miterlimit="10" cx="109.676" cy="384.5" rx="8" ry="22.5"/>
<ellipse fill="#F7F372" stroke="#D4D8DD" stroke-width="2.3608" stroke-miterlimit="10" cx="121.676" cy="385" rx="8" ry="22.5"/>
<ellipse fill="#F7F372" stroke="#D4D8DD" stroke-width="2.3608" stroke-miterlimit="10" cx="197.676" cy="384.5" rx="8" ry="22.5"/>
<ellipse fill="#F7F372" stroke="#D4D8DD" stroke-width="2.3608" stroke-miterlimit="10" cx="208.676" cy="384.5" rx="8" ry="22.5"/>
<ellipse fill="#F7F372" stroke="#D4D8DD" stroke-width="2.3608" stroke-miterlimit="10" cx="220.676" cy="385" rx="8" ry="22.5"/>
</svg>
