<?xml version="1.0" encoding="utf-8"?>
<!-- Generator: Adobe Illustrator 16.0.0, SVG Export Plug-In . SVG Version: 6.00 Build 0)  -->
<!DOCTYPE svg PUBLIC "-//W3C//DTD SVG 1.1//EN" "http://www.w3.org/Graphics/SVG/1.1/DTD/svg11.dtd">
<svg version="1.1" id="Layer_1" xmlns="http://www.w3.org/2000/svg" xmlns:xlink="http://www.w3.org/1999/xlink" x="0px" y="0px"
	 width="141.604px" height="41.434px" viewBox="0 0 141.604 41.434" enable-background="new 0 0 141.604 41.434"
	 xml:space="preserve">
<pattern  x="-22.073" y="-25.139" width="132.126" height="130.077" patternUnits="userSpaceOnUse" id="New_Pattern_Swatch_1" viewBox="0 -130.077 132.126 130.077" overflow="visible">
	<g>
		<polygon fill="none" points="0,0 132.126,0 132.126,-130.077 0,-130.077 		"/>
		<polygon fill="#98BFE5" points="0,-0.129 0.125,-128.813 132.125,-128.685 132,0 		"/>
		<polygon fill="#CDD7E3" points="0.07,-72.077 0.102,-105.458 132.102,-105.331 132.069,-71.948 		"/>
		<polygon fill="#6E95C8" points="0.082,-84.964 0.126,-130.077 132.126,-129.949 132.082,-84.837 		"/>
	</g>
</pattern>
<pattern  x="-22.073" y="-25.139" width="82.553" height="75.857" patternUnits="userSpaceOnUse" id="New_Pattern_Swatch_2" viewBox="0 -75.857 82.553 75.857" overflow="visible">
	<g>
		<polygon fill="none" points="0,0 82.553,0 82.553,-75.857 0,-75.857 		"/>
		<polygon fill="#2E3191" points="82.553,0 0,0 0,-75.857 82.553,-75.857 		"/>
		<g>
			<path fill="#6E95C8" d="M34.49-57.382c0,0,14.005-4.013,15.127,0.503c0,0-1.272,7.674-15.193,2.379L34.49-57.382z"/>
			<path fill="#6E95C8" d="M29.57-61.177c0,0,0.968-12.829,7.096-10.905c6.129,1.925-1.13,11.034-4.192,11.546
				c-3.065,0.513-0.484,0.642-0.484,0.642L29.57-61.177z"/>
			<path fill="#6E95C8" d="M32.957-59.765c0,0,9.354-8.21,12.739-6.543c3.388,1.668,5.161,4.491-3.708,7.185
				c-8.87,2.695-7.741,1.412-7.741,1.412L32.957-59.765z"/>
			<path fill="#6E95C8" d="M33.824-54.152c0,0,18.545,4.105,10.644,9.494c0,0-6.612,2.438-13.063-7.569L33.824-54.152z"/>
			<g>
				<path fill="#6E95C8" d="M22.092-58.659c0,0-15.804-3.977-10.32-8.467c5.482-4.49,12.417,6.8,12.417,6.8L22.092-58.659z"/>
				<path fill="#6E95C8" d="M25.156-60.503c0,0-9.354-12.316-1.613-11.675c7.741,0.642,5.482,10.392,4.838,10.905
					C27.736-60.759,25.156-60.503,25.156-60.503z"/>
				<path fill="#6E95C8" d="M31.209-51.82c0,0,10.033,9.324,2.574,12.339c-7.459,3.015-5.815-11.213-5.815-11.213L31.209-51.82z"/>
				<path fill="#6E95C8" d="M24.027-52.196c0,0-11.934,9.494-5.161,11.162c0,0,7.257,3.336,8.225-10.135L24.027-52.196z"/>
				<path fill="#6E95C8" d="M21.145-55.432c0,0-17.577,1.667-11.772,8.209c0,0,5.644,2.31,13.062-5.645L21.145-55.432z"/>
				<path fill="#6E95C8" d="M21.174-58.489c0,0-13.37-5.28-14.193-0.175c0,0-2.648,6.367,13.648,2.725L21.174-58.489z"/>
			</g>
		</g>
		<path fill="#CDD7E3" d="M35.184-56.366c0,3.272-3.291,5.926-7.35,5.926s-7.348-2.653-7.348-5.926c0-3.273,3.289-5.927,7.348-5.927
			S35.184-59.639,35.184-56.366z"/>
		<g>
			<g>
				<path fill="#6E95C8" d="M62.011-23.032c0,0,14.005-4.013,15.127,0.503c0,0-1.272,7.674-15.193,2.379L62.011-23.032z"/>
				<path fill="#6E95C8" d="M57.091-26.827c0,0,0.968-12.829,7.096-10.905c6.129,1.925-1.13,11.034-4.192,11.546
					c-3.065,0.513-0.484,0.642-0.484,0.642L57.091-26.827z"/>
				<path fill="#6E95C8" d="M60.478-25.415c0,0,9.354-8.21,12.739-6.543c3.388,1.668,5.161,4.491-3.708,7.185
					c-8.87,2.695-7.741,1.412-7.741,1.412L60.478-25.415z"/>
				<path fill="#6E95C8" d="M61.345-19.802c0,0,18.545,4.105,10.644,9.494c0,0-6.612,2.438-13.063-7.569L61.345-19.802z"/>
				<g>
					<path fill="#6E95C8" d="M49.612-24.309c0,0-15.804-3.977-10.32-8.467c5.482-4.49,12.417,6.8,12.417,6.8L49.612-24.309z"/>
					<path fill="#6E95C8" d="M52.677-26.153c0,0-9.354-12.316-1.613-11.675c7.741,0.642,5.482,10.392,4.838,10.905
						C55.257-26.409,52.677-26.153,52.677-26.153z"/>
					<path fill="#6E95C8" d="M58.729-17.47c0,0,10.033,9.324,2.574,12.339c-7.459,3.015-5.815-11.213-5.815-11.213L58.729-17.47z"/>
					<path fill="#6E95C8" d="M51.548-17.846c0,0-11.934,9.494-5.161,11.162c0,0,7.257,3.336,8.225-10.135L51.548-17.846z"/>
					<path fill="#6E95C8" d="M48.665-21.082c0,0-17.577,1.667-11.772,8.209c0,0,5.644,2.31,13.062-5.645L48.665-21.082z"/>
					<path fill="#6E95C8" d="M48.694-24.139c0,0-13.37-5.28-14.193-0.175c0,0-2.648,6.367,13.648,2.725L48.694-24.139z"/>
				</g>
			</g>
			<path fill="#CDD7E3" d="M62.704-22.016c0,3.272-3.291,5.926-7.35,5.926s-7.348-2.653-7.348-5.926
				c0-3.273,3.289-5.927,7.348-5.927S62.704-25.289,62.704-22.016z"/>
		</g>
	</g>
</pattern>
<pattern  id="SVGID_1_" xlink:href="#New_Pattern_Swatch_1" patternTransform="matrix(0.1918 0.1027 -0.1543 0.2393 -7690.6328 -5407.4502)">
</pattern>
<path fill="url(#SVGID_1_)" d="M-84.144,101.302c0,0-4.895-17.509,6.098-37.068c1.235-2.198,5.059-8.333,6.84-11.176
	c4.088-6.528,13.764-19.179,33.109-31.593c0,0,6.305,17.603-8.802,45.953C-46.898,67.417-63.502,96.912-84.144,101.302z"/>
<path fill="#6E95C8" d="M-164.455,68.951c-16.247,18.08,22.204,60.301,49.593,60.301c27.39,0,64.872-40.608,49.593-60.301
	C-80.549,49.257-87.473,8.65-114.862,8.65C-142.251,8.65-148.208,50.87-164.455,68.951z"/>
<path fill="#CDD7E3" d="M-157.25-8.219c-10.878,5.349,20.021,32.756,44.719,32.756c24.697,0,56.805-29.75,44.718-32.756
	c-12.085-3.008-20.021-32.756-44.718-32.756C-137.229-40.975-146.373-13.568-157.25-8.219z"/>
<ellipse fill="#231F20" cx="-115.027" cy="19.888" rx="7.856" ry="5.927"/>
<path fill="#2E3191" d="M-78.21-15.815c0,0,12.764-20.207,9.365-24.02c-3.4-3.812-28.864,9.563-28.864,9.563L-78.21-15.815z"/>
<path fill="#2E3191" d="M-130.185-32.812c0,0-23.093-8.077-29.309-6.782c-6.217,1.293,12.695,23.537,12.695,23.537L-130.185-32.812z
	"/>
<path fill="#231F20" d="M-74.643-10.108c0,5.386-7.871,9.752-17.579,9.752c-9.709,0-17.578-4.366-17.578-9.752
	c0-5.387,0-19.507,17.578-9.753C-74.643-10.108-74.643-15.495-74.643-10.108z"/>
<path fill="#231F20" d="M-152.753-10.109c0,5.387,8.445,9.753,18.863,9.753s18.863-4.366,18.863-9.753
	c0-5.386,0-19.506-18.863-9.752C-152.753-10.109-152.753-15.495-152.753-10.109z"/>
<polygon fill="#231F20" points="-123.69,15.378 -122.958,12.74 -154.347,5.753 -155.079,8.392 "/>
<path fill="#2E3191" d="M-156.641,140.013c-4.28-4.25-0.905-13.23,7.54-20.056c8.445-6.825,18.761-8.914,23.041-4.664
	c4.28,4.25,15.5,15.392-7.541,20.056S-152.361,144.263-156.641,140.013z"/>
<path fill="#2E3191" d="M-72.709,138.082c3.844-4.408,0.011-12.848-8.562-18.85c-8.574-6.002-18.643-7.294-22.486-2.887
	c-3.845,4.41-13.922,15.964,8.562,18.85C-72.709,138.082-76.553,142.489-72.709,138.082z"/>
<pattern  id="SVGID_2_" xlink:href="#New_Pattern_Swatch_2" patternTransform="matrix(0.4198 0 0 0.406 -4760.4717 -4830.3428)">
</pattern>
<ellipse fill="url(#SVGID_2_)" cx="-115.229" cy="73.646" rx="27.94" ry="34.006"/>
<g>
	<path fill="#2E3191" d="M-138.952,33.891c3.993,2.842,3.855,8.969-0.308,13.685c-4.162,4.716-10.773,6.236-14.766,3.396
		c-3.992-2.842-3.855-8.968,0.307-13.685C-149.555,32.57-142.944,31.051-138.952,33.891z"/>
	<polygon fill="#2E3191" points="-159.409,29.122 -150.58,31.711 -156.157,37.551 	"/>
	<polygon fill="#2E3191" points="-144.838,22.752 -141.028,30.359 -149.591,30.584 	"/>
	<polygon fill="#2E3191" points="-166.702,41.483 -157.778,39.168 -158.734,46.812 	"/>
</g>
<g>
	<path fill="#2E3191" d="M-74.905,49.501c-3.743,3.101-10.48,2.042-15.046-2.364c-4.567-4.406-5.233-10.492-1.489-13.592
		c3.745-3.102,10.479-2.043,15.047,2.363C-71.827,40.314-71.161,46.4-74.905,49.501z"/>
	<polygon fill="#2E3191" points="-66.516,32.117 -70.722,39.538 -76.311,33.707 	"/>
	<polygon fill="#2E3191" points="-61.718,45.99 -70.69,48.202 -69.631,40.586 	"/>
	<polygon fill="#2E3191" points="-79.037,23.771 -77.846,32.024 -86.132,30.01 	"/>
</g>
<polygon fill="#231F20" points="-126.646,19.636 -126.686,16.918 -147.487,17.169 -147.446,19.888 "/>
<polygon fill="#231F20" points="-72.708,8.176 -73.483,5.548 -104.751,12.956 -103.977,15.583 "/>
<polygon fill="#231F20" points="-82.567,19.636 -82.608,16.918 -103.409,17.169 -103.368,19.888 "/>
<g>
	<ellipse fill="#FFFFFF" cx="-130.185" cy="-11.097" rx="7.214" ry="6.17"/>
	<ellipse fill="#190C0C" cx="-129.989" cy="-10.024" rx="3.281" ry="3.499"/>
</g>
<g>
	<ellipse fill="#FFFFFF" cx="-96.544" cy="-11.097" rx="7.214" ry="6.17"/>
	<ellipse fill="#190C0C" cx="-96.348" cy="-10.024" rx="3.281" ry="3.499"/>
</g>
<path fill="#231F20" d="M141.604,23.753c0,9.765-14.27,17.68-31.868,17.68c-17.601,0-31.867-7.915-31.867-17.68
	c0-9.766,0-35.363,31.867-17.682C141.604,23.753,141.604,13.987,141.604,23.753z"/>
<path fill="#231F20" d="M0,23.752c0,9.767,15.311,17.682,34.197,17.682c18.885,0,34.195-7.915,34.195-17.682
	c0-9.765,0-35.362-34.195-17.68C0,23.752,0,13.987,0,23.752z"/>
<ellipse fill="#FFFFFF" cx="40.912" cy="21.96" rx="13.078" ry="11.187"/>
<ellipse fill="#190C0C" cx="41.268" cy="23.905" rx="5.949" ry="6.343"/>
<ellipse fill="#FFFFFF" cx="101.899" cy="21.96" rx="13.079" ry="11.187"/>
<ellipse fill="#190C0C" cx="102.256" cy="23.905" rx="5.949" ry="6.343"/>
</svg>
