<?xml version="1.0" encoding="utf-8"?>
<!-- Generator: Adobe Illustrator 16.0.0, SVG Export Plug-In . SVG Version: 6.00 Build 0)  -->
<!DOCTYPE svg PUBLIC "-//W3C//DTD SVG 1.1//EN" "http://www.w3.org/Graphics/SVG/1.1/DTD/svg11.dtd">
<svg version="1.1" id="Layer_1" xmlns="http://www.w3.org/2000/svg" xmlns:xlink="http://www.w3.org/1999/xlink" x="0px" y="0px"
	 width="153.971px" height="45.052px" viewBox="0 0 153.971 45.052" enable-background="new 0 0 153.971 45.052"
	 xml:space="preserve">
<path fill="#231F20" d="M153.971,25.826c0,10.619-15.516,19.226-34.651,19.226c-19.139,0-34.652-8.606-34.652-19.226
	c0-10.619,0-38.45,34.652-19.224C153.971,25.826,153.971,15.208,153.971,25.826z"/>
<path fill="#231F20" d="M0,25.825c0,10.621,16.647,19.227,37.183,19.227c20.534,0,37.181-8.606,37.181-19.227
	c0-10.617,0-38.448-37.181-19.223C0,25.825,0,15.208,0,25.825z"/>
<ellipse fill="#FFFFFF" cx="44.485" cy="23.878" rx="14.219" ry="12.162"/>
<ellipse fill="#190C0C" cx="37.653" cy="21.981" rx="4.712" ry="5.025"/>
<ellipse fill="#FFFFFF" cx="110.798" cy="23.878" rx="14.221" ry="12.162"/>
<path fill="#190C0C" d="M118.941,28.69c0,2.772-2.11,5.026-4.715,5.026c-2.602,0-4.711-2.254-4.711-5.026
	c0-2.775,2.109-5.024,4.711-5.024C116.831,23.667,118.941,25.916,118.941,28.69z"/>
</svg>
