<?xml version="1.0" encoding="utf-8"?>
<!-- Generator: Adobe Illustrator 16.0.0, SVG Export Plug-In . SVG Version: 6.00 Build 0)  -->
<!DOCTYPE svg PUBLIC "-//W3C//DTD SVG 1.1//EN" "http://www.w3.org/Graphics/SVG/1.1/DTD/svg11.dtd">
<svg version="1.1" id="Layer_1" xmlns="http://www.w3.org/2000/svg" xmlns:xlink="http://www.w3.org/1999/xlink" x="0px" y="0px"
	 width="130.45px" height="37.5px" viewBox="0 0 130.45 37.5" enable-background="new 0 0 130.45 37.5" xml:space="preserve">
<path fill="#231F20" d="M300.649-102.769c0,10.619-15.516,19.226-34.651,19.226c-19.139,0-34.652-8.606-34.652-19.226
	c0-10.619,0-38.45,34.652-19.224C300.649-102.769,300.649-113.387,300.649-102.769z"/>
<path fill="#231F20" d="M146.679-102.77c0,10.621,16.647,19.227,37.183,19.227s37.182-8.606,37.182-19.227
	c0-10.617,0-38.448-37.182-19.223C146.679-102.77,146.679-113.387,146.679-102.77z"/>
<ellipse fill="#FFFFFF" cx="191.164" cy="-104.717" rx="14.219" ry="12.162"/>
<ellipse fill="#190C0C" cx="184.332" cy="-106.613" rx="4.713" ry="5.025"/>
<ellipse fill="#FFFFFF" cx="257.477" cy="-104.717" rx="14.221" ry="12.162"/>
<path fill="#190C0C" d="M265.62-99.904c0,2.772-2.11,5.026-4.715,5.026c-2.602,0-4.711-2.254-4.711-5.026
	c0-2.775,2.109-5.024,4.711-5.024C263.51-104.928,265.62-102.679,265.62-99.904z"/>
<path fill="#231F20" d="M291.68-38.875c0,9.751-14.249,17.656-31.822,17.656c-17.577,0-31.824-7.904-31.824-17.656
	c0-9.753,0-35.314,31.824-17.657C291.68-38.875,291.68-48.627,291.68-38.875z"/>
<path fill="#231F20" d="M150.273-38.875c0,9.752,15.289,17.657,34.148,17.657c18.86,0,34.15-7.904,34.15-17.657
	c0-9.752,0-35.313-34.15-17.656C150.273-38.875,150.273-48.627,150.273-38.875z"/>
<g>
	<ellipse fill="#FFFFFF" cx="191.129" cy="-40.665" rx="13.059" ry="11.171"/>
	<path fill="#190C0C" d="M197.426-38.724c0,3.498-2.661,6.335-5.943,6.335c-3.278,0-5.938-2.838-5.938-6.335
		c0-3.496,2.658-6.332,5.938-6.332C194.764-45.056,197.426-42.22,197.426-38.724z"/>
</g>
<g>
	<path fill="#FFFFFF" d="M265.091-40.665c0,6.168-5.849,11.17-13.062,11.17c-7.213,0-13.058-5.002-13.058-11.17
		c0-6.17,5.845-11.171,13.058-11.171C259.242-51.835,265.091-46.834,265.091-40.665z"/>
	<ellipse fill="#190C0C" cx="252.387" cy="-38.723" rx="5.94" ry="6.335"/>
</g>
<path fill="#231F20" d="M130.45,21.499c0,8.839-13.144,16.001-29.357,16.001s-29.358-7.162-29.358-16.001
	c0-8.838,0-32.006,29.358-16.002C130.45,21.499,130.45,12.661,130.45,21.499z"/>
<path fill="#231F20" d="M0,21.499C0,30.336,14.105,37.5,31.503,37.5c17.398,0,31.501-7.164,31.501-16.001
	c0-8.838,0-32.006-31.501-16.004C0,21.499,0,12.661,0,21.499z"/>
<path fill="#D7D03D" d="M24.001,26.537c0,0,8.259-29.759,27.376,2.623"/>
<path fill="#D7D03D" d="M78.639,26.537c0,0,8.26-29.759,27.377,2.623"/>
<ellipse fill="#190C0C" cx="37.689" cy="21.608" rx="6.061" ry="6.724"/>
<ellipse fill="#190C0C" cx="91.928" cy="21.608" rx="6.061" ry="6.724"/>
<path fill="#231F20" d="M48.485-80.637c0,5.338,5.73,9.663,12.805,9.663c7.07,0,12.805-4.324,12.805-9.663
	c0-5.337-5.735-9.664-12.805-9.664C54.215-90.301,48.485-85.974,48.485-80.637z"/>
<polygon fill="#231F20" points="47.168,-87.99 48.36,-92.29 -2.806,-103.677 -4,-99.378 "/>
<polygon fill="#231F20" points="42.35,-81.047 42.284,-85.477 8.375,-85.068 8.442,-80.637 "/>
<polygon fill="#231F20" points="130.275,-99.728 129.011,-104.014 78.04,-91.938 79.302,-87.653 "/>
<polygon fill="#231F20" points="114.203,-81.047 114.137,-85.477 80.228,-85.068 80.297,-80.637 "/>
</svg>
