<?xml version="1.0" encoding="utf-8"?>
<!-- Generator: Adobe Illustrator 16.0.0, SVG Export Plug-In . SVG Version: 6.00 Build 0)  -->
<!DOCTYPE svg PUBLIC "-//W3C//DTD SVG 1.1//EN" "http://www.w3.org/Graphics/SVG/1.1/DTD/svg11.dtd">
<svg version="1.1" id="Layer_1" xmlns="http://www.w3.org/2000/svg" xmlns:xlink="http://www.w3.org/1999/xlink" x="0px" y="0px"
	 width="141.407px" height="41.376px" viewBox="0 0 141.407 41.376" enable-background="new 0 0 141.407 41.376"
	 xml:space="preserve">
<path fill="#231F20" d="M300.376-112.174c0,10.619-15.516,19.226-34.651,19.226c-19.139,0-34.652-8.606-34.652-19.226
	c0-10.619,0-38.45,34.652-19.224C300.376-112.174,300.376-122.792,300.376-112.174z"/>
<path fill="#231F20" d="M146.406-112.175c0,10.621,16.647,19.227,37.183,19.227s37.182-8.606,37.182-19.227
	c0-10.617,0-38.448-37.182-19.223C146.406-112.175,146.406-122.792,146.406-112.175z"/>
<ellipse fill="#FFFFFF" cx="190.891" cy="-114.122" rx="14.219" ry="12.162"/>
<ellipse fill="#190C0C" cx="184.059" cy="-116.019" rx="4.713" ry="5.025"/>
<ellipse fill="#FFFFFF" cx="257.204" cy="-114.122" rx="14.221" ry="12.162"/>
<path fill="#190C0C" d="M265.347-109.31c0,2.772-2.11,5.026-4.715,5.026c-2.602,0-4.711-2.254-4.711-5.026
	c0-2.775,2.109-5.024,4.711-5.024C263.237-114.333,265.347-112.084,265.347-109.31z"/>
<path fill="#231F20" d="M141.407,23.72c0,9.751-14.249,17.656-31.822,17.656c-17.577,0-31.824-7.904-31.824-17.656
	c0-9.753,0-35.314,31.824-17.657C141.407,23.72,141.407,13.967,141.407,23.72z"/>
<path fill="#231F20" d="M0,23.719c0,9.752,15.29,17.657,34.149,17.657c18.86,0,34.15-7.904,34.15-17.657
	c0-9.752,0-35.313-34.15-17.656C0,23.719,0,13.967,0,23.719z"/>
<g>
	<ellipse fill="#FFFFFF" cx="40.856" cy="21.93" rx="13.058" ry="11.171"/>
	<path fill="#190C0C" d="M47.152,23.871c0,3.498-2.661,6.335-5.942,6.335c-3.279,0-5.938-2.838-5.938-6.335
		c0-3.496,2.659-6.332,5.938-6.332C44.491,17.539,47.152,20.375,47.152,23.871z"/>
</g>
<g>
	<path fill="#FFFFFF" d="M114.818,21.93c0,6.168-5.849,11.17-13.062,11.17c-7.213,0-13.058-5.002-13.058-11.17
		c0-6.17,5.845-11.171,13.058-11.171C108.969,10.759,114.818,15.76,114.818,21.93z"/>
	<ellipse fill="#190C0C" cx="102.114" cy="23.871" rx="5.94" ry="6.335"/>
</g>
</svg>
