<?xml version="1.0" encoding="utf-8"?>
<!-- Generator: Adobe Illustrator 16.0.0, SVG Export Plug-In . SVG Version: 6.00 Build 0)  -->
<!DOCTYPE svg PUBLIC "-//W3C//DTD SVG 1.1//EN" "http://www.w3.org/Graphics/SVG/1.1/DTD/svg11.dtd">
<svg version="1.1" id="Layer_1" xmlns="http://www.w3.org/2000/svg" xmlns:xlink="http://www.w3.org/1999/xlink" x="0px" y="0px"
	 width="130.45px" height="37.5px" viewBox="0 0 130.45 37.5" enable-background="new 0 0 130.45 37.5" xml:space="preserve">
<path fill="#231F20" d="M294.719-112.173c0,10.619-15.516,19.226-34.651,19.226c-19.139,0-34.652-8.606-34.652-19.226
	c0-10.619,0-38.45,34.652-19.224C294.719-112.173,294.719-122.792,294.719-112.173z"/>
<path fill="#231F20" d="M140.748-112.175c0,10.621,16.647,19.227,37.183,19.227s37.182-8.606,37.182-19.227
	c0-10.617,0-38.448-37.182-19.223C140.748-112.175,140.748-122.792,140.748-112.175z"/>
<ellipse fill="#FFFFFF" cx="185.233" cy="-114.122" rx="14.219" ry="12.162"/>
<ellipse fill="#190C0C" cx="178.401" cy="-116.018" rx="4.713" ry="5.025"/>
<ellipse fill="#FFFFFF" cx="251.546" cy="-114.122" rx="14.221" ry="12.162"/>
<path fill="#190C0C" d="M259.689-109.309c0,2.772-2.11,5.026-4.715,5.026c-2.602,0-4.711-2.254-4.711-5.026
	c0-2.775,2.109-5.024,4.711-5.024C257.579-114.333,259.689-112.084,259.689-109.309z"/>
<path fill="#231F20" d="M285.749-48.279c0,9.751-14.249,17.656-31.822,17.656c-17.577,0-31.824-7.904-31.824-17.656
	c0-9.753,0-35.314,31.824-17.657C285.749-48.279,285.749-58.032,285.749-48.279z"/>
<path fill="#231F20" d="M144.343-48.28c0,9.752,15.289,17.657,34.148,17.657c18.86,0,34.15-7.904,34.15-17.657
	c0-9.752,0-35.313-34.15-17.656C144.343-48.28,144.343-58.032,144.343-48.28z"/>
<g>
	<ellipse fill="#FFFFFF" cx="185.198" cy="-50.07" rx="13.059" ry="11.171"/>
	<path fill="#190C0C" d="M191.495-48.129c0,3.498-2.661,6.335-5.943,6.335c-3.278,0-5.938-2.838-5.938-6.335
		c0-3.496,2.658-6.332,5.938-6.332C188.833-54.461,191.495-51.625,191.495-48.129z"/>
</g>
<g>
	<path fill="#FFFFFF" d="M259.16-50.069c0,6.168-5.849,11.17-13.062,11.17c-7.213,0-13.058-5.002-13.058-11.17
		c0-6.17,5.845-11.171,13.058-11.171C253.312-61.24,259.16-56.239,259.16-50.069z"/>
	<ellipse fill="#190C0C" cx="246.456" cy="-48.128" rx="5.94" ry="6.335"/>
</g>
<g>
	<path fill="#593D16" d="M130.45,21.499c0,8.838-13.144,16.001-29.357,16.001s-29.358-7.163-29.358-16.001s0-32.006,29.358-16.002
		C130.45,21.499,130.45,12.661,130.45,21.499z"/>
	<path fill="#593D16" d="M0,21.499C0,30.336,14.105,37.5,31.503,37.5c17.398,0,31.501-7.164,31.501-16.001
		c0-8.838,0-32.006-31.501-16.004C0,21.499,0,12.661,0,21.499z"/>
	<path fill="#D7D03D" d="M24.001,26.537c0,0,8.259-29.759,27.376,2.623"/>
	<path fill="#D7D03D" d="M78.639,26.537c0,0,8.26-29.759,27.377,2.623"/>
	<ellipse fill="#190C0C" cx="37.689" cy="21.608" rx="6.061" ry="6.724"/>
	<ellipse fill="#190C0C" cx="91.928" cy="21.608" rx="6.061" ry="6.724"/>
</g>
</svg>
