<?xml version="1.0" encoding="utf-8"?>
<!-- Generator: Adobe Illustrator 16.0.0, SVG Export Plug-In . SVG Version: 6.00 Build 0)  -->
<!DOCTYPE svg PUBLIC "-//W3C//DTD SVG 1.1//EN" "http://www.w3.org/Graphics/SVG/1.1/DTD/svg11.dtd">
<svg version="1.1" id="Layer_1" xmlns="http://www.w3.org/2000/svg" xmlns:xlink="http://www.w3.org/1999/xlink" x="0px" y="0px"
	 width="99.501px" height="83.651px" viewBox="0 0 99.501 83.651" enable-background="new 0 0 99.501 83.651" xml:space="preserve">
<pattern  x="-39.763" y="13.671" width="82.553" height="75.857" patternUnits="userSpaceOnUse" id="sm_flows" viewBox="0 -75.857 82.553 75.857" overflow="visible">
	<g>
		<polygon fill="none" points="0,0 82.553,0 82.553,-75.857 0,-75.857 		"/>
		<polygon fill="#CA904F" points="82.553,0 0,0 0,-75.857 82.553,-75.857 		"/>
		<g>
			<path fill="#FFFFFF" stroke="#000000" d="M28.629-50.799"/>
			<g>
				<path fill="#B35537" d="M31.996-56.578c0,0,14.005-4.013,15.127,0.503c0,0-1.272,7.674-15.193,2.379L31.996-56.578z"/>
				<path fill="#B35537" d="M27.076-60.373c0,0,0.968-12.829,7.096-10.905c6.129,1.925-1.13,11.034-4.192,11.546
					c-3.065,0.513-0.484,0.642-0.484,0.642L27.076-60.373z"/>
				<path fill="#B35537" d="M30.463-58.961c0,0,9.354-8.21,12.739-6.543c3.388,1.668,5.161,4.491-3.708,7.185
					c-8.87,2.695-7.741,1.412-7.741,1.412L30.463-58.961z"/>
				<path fill="#B35537" d="M31.33-53.348c0,0,18.545,4.105,10.644,9.494c0,0-6.612,2.438-13.063-7.569L31.33-53.348z"/>
				<g>
					<path fill="#B35537" d="M19.598-57.855c0,0-15.804-3.977-10.32-8.467c5.482-4.49,12.417,6.8,12.417,6.8L19.598-57.855z"/>
					<path fill="#B35537" d="M22.662-59.699c0,0-9.354-12.316-1.613-11.675c7.741,0.642,5.482,10.392,4.838,10.905
						C25.242-59.956,22.662-59.699,22.662-59.699z"/>
					<path fill="#B35537" d="M28.715-51.016c0,0,10.033,9.324,2.574,12.339c-7.459,3.015-5.815-11.213-5.815-11.213L28.715-51.016z"
						/>
					<path fill="#B35537" d="M21.533-51.393c0,0-11.934,9.494-5.161,11.162c0,0,7.257,3.336,8.225-10.135L21.533-51.393z"/>
					<path fill="#B35537" d="M18.65-54.628c0,0-17.577,1.667-11.772,8.209c0,0,5.644,2.31,13.062-5.645L18.65-54.628z"/>
					<path fill="#B35537" d="M18.68-57.686c0,0-13.37-5.28-14.193-0.175c0,0-2.648,6.367,13.648,2.725L18.68-57.686z"/>
				</g>
			</g>
			<path fill="#D7D03D" d="M32.689-55.562c0,3.272-3.291,5.926-7.35,5.926s-7.348-2.653-7.348-5.926
				c0-3.273,3.289-5.927,7.348-5.927S32.689-58.835,32.689-55.562z"/>
			<path fill="#FFFFFF" stroke="#000000" d="M36.502-56.459"/>
		</g>
		<g>
			<path fill="#FFFFFF" stroke="#000000" d="M56.99-18.244"/>
			<g>
				<path fill="#B35537" d="M60.358-24.022c0,0,14.005-4.013,15.126,0.503c0,0-1.271,7.674-15.192,2.379L60.358-24.022z"/>
				<path fill="#B35537" d="M55.438-27.817c0,0,0.968-12.829,7.096-10.905c6.128,1.925-1.13,11.034-4.192,11.547
					c-3.065,0.513-0.484,0.641-0.484,0.641L55.438-27.817z"/>
				<path fill="#B35537" d="M58.825-26.406c0,0,9.353-8.21,12.739-6.543c3.387,1.668,5.16,4.491-3.708,7.185
					c-8.87,2.695-7.741,1.412-7.741,1.412L58.825-26.406z"/>
				<path fill="#B35537" d="M59.691-20.792c0,0,18.545,4.105,10.645,9.494c0,0-6.612,2.438-13.063-7.569L59.691-20.792z"/>
				<g>
					<path fill="#B35537" d="M47.96-25.3c0,0-15.804-3.977-10.321-8.467s12.418,6.8,12.418,6.8L47.96-25.3z"/>
					<path fill="#B35537" d="M51.023-27.144c0,0-9.354-12.316-1.612-11.674c7.74,0.642,5.481,10.392,4.837,10.905
						S51.023-27.144,51.023-27.144z"/>
					<path fill="#B35537" d="M57.077-18.46c0,0,10.033,9.324,2.573,12.339c-7.459,3.015-5.814-11.213-5.814-11.213L57.077-18.46z"/>
					<path fill="#B35537" d="M49.895-18.837c0,0-11.934,9.494-5.16,11.163c0,0,7.257,3.335,8.225-10.136L49.895-18.837z"/>
					<path fill="#B35537" d="M47.012-22.073c0,0-17.576,1.668-11.771,8.21c0,0,5.644,2.31,13.062-5.645L47.012-22.073z"/>
					<path fill="#B35537" d="M47.042-25.13c0,0-13.371-5.28-14.193-0.176c0,0-2.648,6.367,13.648,2.726L47.042-25.13z"/>
				</g>
			</g>
			<path fill="#D7D03D" d="M61.051-23.007c0,3.272-3.29,5.926-7.35,5.926c-4.058,0-7.348-2.653-7.348-5.926
				c0-3.273,3.29-5.927,7.348-5.927C57.761-28.934,61.051-26.28,61.051-23.007z"/>
			<path fill="#FFFFFF" stroke="#000000" d="M64.863-23.904"/>
		</g>
	</g>
</pattern>
<pattern  x="-39.763" y="13.671" width="132.126" height="130.077" patternUnits="userSpaceOnUse" id="talbrwn" viewBox="0 -130.077 132.126 130.077" overflow="visible">
	<g>
		<polygon fill="none" points="0,0 132.126,0 132.126,-130.077 0,-130.077 		"/>
		<polygon fill="#593D16" points="0,-0.129 0.125,-128.813 132.125,-128.685 132,0 		"/>
		<polygon fill="#CA904F" points="0.07,-72.077 0.102,-105.458 132.102,-105.331 132.069,-71.948 		"/>
		<polygon fill="#845B24" points="0.082,-84.964 0.126,-130.077 132.126,-129.949 132.082,-84.837 		"/>
	</g>
</pattern>
<pattern  id="SVGID_1_" xlink:href="#talbrwn" patternTransform="matrix(0.4574 -0.547 0.5674 0.4223 76.7808 -9260.2354)">
</pattern>
<path fill="url(#SVGID_1_)" d="M-30.479-181.921c0,0-54.922,14.789-102.637-15.141c-5.363-3.367-20.02-13.818-26.803-18.686
	c-15.584-11.174-44.32-37.783-64.355-91.693c0,0,56.359-18.779,126.209,22.273C-98.064-285.167-26.125-239.945-30.479-181.921z"/>
<path fill="#845B24" d="M415.122,214.148c-50.289,54.984,68.723,183.373,153.5,183.373c84.775,0,200.795-123.486,153.5-183.373
	c-47.293-59.885-68.725-183.369-153.5-183.369C483.845,30.779,465.409,159.169,415.122,214.148z"/>
<path fill="#CA904F" d="M-591.53,63.476c-33.668,16.267,61.973,99.611,138.416,99.611c76.447,0,175.824-90.466,138.416-99.611
	c-37.41-9.145-61.969-99.607-138.416-99.607C-529.557-36.131-557.86,47.211-591.53,63.476z"/>
<ellipse fill="#593D16" cx="568.109" cy="64.954" rx="24.315" ry="18.025"/>
<path fill="#CA904F" d="M119.464-269.221c0,0,39.508-61.446,28.984-73.041c-10.52-11.595-89.338,29.081-89.338,29.081
	L119.464-269.221z"/>
<path fill="#CA904F" d="M-137.274-137.298c0,0-71.475-24.561-90.717-20.626c-19.244,3.932,39.293,71.573,39.293,71.573
	L-137.274-137.298z"/>
<polygon fill="#593D16" points="541.298,51.24 543.563,43.217 446.407,21.971 444.144,29.997 "/>
<path fill="#CA904F" d="M439.306,430.244c-13.248-12.926-2.797-40.232,23.34-60.986c26.141-20.758,58.07-27.109,71.316-14.188
	c13.248,12.928,47.975,46.807-23.34,60.988C439.306,430.244,452.554,443.167,439.306,430.244z"/>
<path fill="#CA904F" d="M699.095,424.369c11.898-13.404,0.033-39.066-26.5-57.316c-26.539-18.252-57.701-22.18-69.598-8.777
	c-11.902,13.406-43.094,48.545,26.502,57.32C699.095,424.369,687.196,437.773,699.095,424.369z"/>
<pattern  id="SVGID_2_" xlink:href="#sm_flows" patternTransform="matrix(1.0139 0 0 1.1192 -7.5298 936.3413)">
</pattern>
<path fill="url(#SVGID_2_)" d="M498.028,225.199c0,53.832,32.072,97.473,71.637,97.473c39.568,0,71.641-43.641,71.641-97.473
	c0-53.834-32.072-97.473-71.641-97.473C530.101,127.726,498.028,171.365,498.028,225.199z"/>
<path fill="#CA904F" d="M377.516,68.373c12.357,8.639,11.93,27.268-0.951,41.611c-12.885,14.346-33.346,18.965-45.703,10.328
	c-12.357-8.641-11.934-27.27,0.949-41.613S365.158,59.732,377.516,68.373z"/>
<polygon fill="#CA904F" points="314.195,53.869 341.523,61.745 324.26,79.498 "/>
<polygon fill="#CA904F" points="359.293,34.499 371.086,57.63 344.58,58.32 "/>
<polygon fill="#CA904F" points="291.623,91.46 319.24,84.414 316.281,107.662 "/>
<path fill="#CA904F" d="M58.685,78.243c-11.586,9.43-32.439,6.211-46.572-7.191C-2.022,57.655-4.085,39.149,7.503,29.72
	c11.59-9.429,32.441-6.209,46.574,7.19C68.212,50.311,70.272,68.815,58.685,78.243z"/>
<polygon fill="#CA904F" points="84.649,25.382 71.63,47.95 54.335,30.218 "/>
<polygon fill="#CA904F" points="99.501,67.573 71.729,74.295 75.009,51.133 "/>
<polygon fill="#CA904F" points="45.894,0 49.581,25.101 23.933,18.971 "/>
<polygon fill="#593D16" points="532.147,64.19 532.022,55.921 467.638,56.688 467.767,64.955 "/>
<polygon fill="#593D16" points="699.101,29.34 696.698,21.348 599.917,43.871 602.315,51.865 "/>
<polygon fill="#593D16" points="668.581,64.19 668.454,55.921 604.071,56.688 604.198,64.955 "/>
<path d="M418.323-110.169c0,11.866-17.647,21.483-39.415,21.483c-21.771,0-39.419-9.617-39.419-21.483
	c0-11.867,0-42.972,39.419-21.486C418.323-110.169,418.323-122.036,418.323-110.169z"/>
<path d="M243.179-110.169c0,11.864,18.938,21.483,42.297,21.483c23.358,0,42.293-9.619,42.293-21.483
	c0-11.867,0-42.972-42.293-21.488C243.179-110.169,243.179-122.036,243.179-110.169z"/>
<path fill="#D7D03D" d="M275.402-103.405c0,0,11.089-39.955,36.755,3.521"/>
<path fill="#D7D03D" d="M348.76-103.405c0,0,11.09-39.955,36.757,3.521"/>
<ellipse fill="#190C0C" cx="293.781" cy="-110.024" rx="8.137" ry="9.027"/>
<ellipse fill="#190C0C" cx="366.602" cy="-110.024" rx="8.137" ry="9.027"/>
</svg>
