<?xml version="1.0" encoding="utf-8"?>
<!-- Generator: Adobe Illustrator 16.0.0, SVG Export Plug-In . SVG Version: 6.00 Build 0)  -->
<!DOCTYPE svg PUBLIC "-//W3C//DTD SVG 1.1//EN" "http://www.w3.org/Graphics/SVG/1.1/DTD/svg11.dtd">
<svg version="1.1" id="Layer_1" xmlns="http://www.w3.org/2000/svg" xmlns:xlink="http://www.w3.org/1999/xlink" x="0px" y="0px"
	 width="112.971px" height="27.797px" viewBox="0 0 112.971 27.797" enable-background="new 0 0 112.971 27.797"
	 xml:space="preserve">
<path fill="#231F20" d="M284.997-117.376c0,10.619-15.516,19.226-34.651,19.226c-19.139,0-34.652-8.606-34.652-19.226
	c0-10.619,0-38.45,34.652-19.224C284.997-117.376,284.997-127.995,284.997-117.376z"/>
<path fill="#231F20" d="M131.026-117.377c0,10.621,16.647,19.227,37.183,19.227s37.182-8.606,37.182-19.227
	c0-10.617,0-38.448-37.182-19.223C131.026-117.377,131.026-127.995,131.026-117.377z"/>
<ellipse fill="#FFFFFF" cx="175.511" cy="-119.324" rx="14.219" ry="12.162"/>
<ellipse fill="#190C0C" cx="168.68" cy="-121.221" rx="4.713" ry="5.025"/>
<ellipse fill="#FFFFFF" cx="241.824" cy="-119.324" rx="14.221" ry="12.162"/>
<path fill="#190C0C" d="M249.968-114.512c0,2.772-2.11,5.026-4.715,5.026c-2.602,0-4.711-2.254-4.711-5.026
	c0-2.775,2.109-5.024,4.711-5.024C247.857-119.536,249.968-117.287,249.968-114.512z"/>
<path fill="#231F20" d="M276.027-53.482c0,9.751-14.249,17.656-31.822,17.656c-17.577,0-31.824-7.904-31.824-17.656
	c0-9.753,0-35.314,31.824-17.657C276.027-53.482,276.027-63.235,276.027-53.482z"/>
<path fill="#231F20" d="M134.621-53.483c0,9.752,15.289,17.657,34.148,17.657c18.86,0,34.15-7.904,34.15-17.657
	c0-9.752,0-35.313-34.15-17.656C134.621-53.483,134.621-63.235,134.621-53.483z"/>
<g>
	<ellipse fill="#FFFFFF" cx="175.477" cy="-55.272" rx="13.059" ry="11.171"/>
	<path fill="#190C0C" d="M181.773-53.332c0,3.498-2.661,6.335-5.943,6.335c-3.278,0-5.938-2.838-5.938-6.335
		c0-3.496,2.658-6.332,5.938-6.332C179.111-59.664,181.773-56.828,181.773-53.332z"/>
</g>
<g>
	<path fill="#FFFFFF" d="M249.438-55.272c0,6.168-5.849,11.17-13.062,11.17c-7.213,0-13.058-5.002-13.058-11.17
		c0-6.17,5.845-11.171,13.058-11.171C243.59-66.443,249.438-61.442,249.438-55.272z"/>
	<ellipse fill="#190C0C" cx="236.734" cy="-53.331" rx="5.94" ry="6.335"/>
</g>
<g>
	<path fill="#593D16" d="M38.021-182.108c0,8.838-13.144,16.001-29.357,16.001s-29.358-7.163-29.358-16.001s0-32.006,29.358-16.002
		C38.021-182.108,38.021-190.947,38.021-182.108z"/>
	<path fill="#593D16" d="M-92.43-182.108c0,8.837,14.105,16.001,31.503,16.001c17.398,0,31.501-7.164,31.501-16.001
		c0-8.838,0-32.006-31.501-16.004C-92.43-182.108-92.43-190.947-92.43-182.108z"/>
	<path fill="#D7D03D" d="M-68.429-177.07c0,0,8.259-29.759,27.376,2.623"/>
	<path fill="#D7D03D" d="M-13.791-177.07c0,0,8.26-29.759,27.377,2.623"/>
	<ellipse fill="#190C0C" cx="-54.74" cy="-182" rx="6.061" ry="6.724"/>
	<ellipse fill="#190C0C" cx="-0.502" cy="-182" rx="6.061" ry="6.724"/>
</g>
<path fill="#231F20" d="M44.157,19.667c0,4.492,4.821,8.129,10.773,8.129c5.948,0,10.773-3.638,10.773-8.129
	c0-4.49-4.825-8.13-10.773-8.13C48.979,11.537,44.157,15.177,44.157,19.667z"/>
<polygon fill="#231F20" points="43.05,13.481 44.053,9.864 1.004,0.283 0,3.9 "/>
<polygon fill="#231F20" points="38.996,19.322 38.94,15.596 10.412,15.939 10.468,19.667 "/>
<polygon fill="#231F20" points="112.971,3.605 111.906,0 69.023,10.16 70.085,13.765 "/>
<polygon fill="#231F20" points="99.448,19.322 99.393,15.596 70.863,15.939 70.922,19.667 "/>
</svg>
