<?xml version="1.0" encoding="utf-8"?>
<!-- Generator: Adobe Illustrator 16.0.0, SVG Export Plug-In . SVG Version: 6.00 Build 0)  -->
<!DOCTYPE svg PUBLIC "-//W3C//DTD SVG 1.1//EN" "http://www.w3.org/Graphics/SVG/1.1/DTD/svg11.dtd">
<svg version="1.1" id="Layer_1" xmlns="http://www.w3.org/2000/svg" xmlns:xlink="http://www.w3.org/1999/xlink" x="0px" y="0px"
	 width="134.275px" height="33.039px" viewBox="0 0 134.275 33.039" enable-background="new 0 0 134.275 33.039"
	 xml:space="preserve">
<path fill="#231F20" d="M300.649-110.755c0,10.619-15.516,19.226-34.651,19.226c-19.139,0-34.652-8.606-34.652-19.226
	c0-10.619,0-38.45,34.652-19.224C300.649-110.755,300.649-121.374,300.649-110.755z"/>
<path fill="#231F20" d="M146.679-110.756c0,10.621,16.647,19.227,37.183,19.227s37.182-8.606,37.182-19.227
	c0-10.617,0-38.448-37.182-19.223C146.679-110.756,146.679-121.374,146.679-110.756z"/>
<ellipse fill="#FFFFFF" cx="191.164" cy="-112.703" rx="14.219" ry="12.162"/>
<ellipse fill="#190C0C" cx="184.332" cy="-114.6" rx="4.713" ry="5.025"/>
<ellipse fill="#FFFFFF" cx="257.477" cy="-112.703" rx="14.221" ry="12.162"/>
<path fill="#190C0C" d="M265.62-107.891c0,2.772-2.11,5.026-4.715,5.026c-2.602,0-4.711-2.254-4.711-5.026
	c0-2.775,2.109-5.024,4.711-5.024C263.51-112.915,265.62-110.666,265.62-107.891z"/>
<path fill="#231F20" d="M291.68-46.861c0,9.751-14.249,17.656-31.822,17.656c-17.577,0-31.824-7.904-31.824-17.656
	c0-9.753,0-35.314,31.824-17.657C291.68-46.861,291.68-56.614,291.68-46.861z"/>
<path fill="#231F20" d="M150.273-46.862c0,9.752,15.289,17.657,34.148,17.657c18.86,0,34.15-7.904,34.15-17.657
	c0-9.752,0-35.313-34.15-17.656C150.273-46.862,150.273-56.614,150.273-46.862z"/>
<g>
	<ellipse fill="#FFFFFF" cx="191.129" cy="-48.651" rx="13.059" ry="11.171"/>
	<path fill="#190C0C" d="M197.426-46.71c0,3.498-2.661,6.335-5.943,6.335c-3.278,0-5.938-2.838-5.938-6.335
		c0-3.496,2.658-6.332,5.938-6.332C194.764-53.042,197.426-50.207,197.426-46.71z"/>
</g>
<g>
	<path fill="#FFFFFF" d="M265.091-48.651c0,6.168-5.849,11.17-13.062,11.17c-7.213,0-13.058-5.002-13.058-11.17
		c0-6.17,5.845-11.171,13.058-11.171C259.242-59.822,265.091-54.821,265.091-48.651z"/>
	<ellipse fill="#190C0C" cx="252.387" cy="-46.71" rx="5.94" ry="6.335"/>
</g>
<path fill="#231F20" d="M-38.327-176.487c0,8.839-13.144,16.001-29.357,16.001s-29.358-7.162-29.358-16.001
	c0-8.838,0-32.006,29.358-16.002C-38.327-176.487-38.327-185.326-38.327-176.487z"/>
<path fill="#231F20" d="M-168.777-176.487c0,8.837,14.105,16.001,31.503,16.001c17.398,0,31.501-7.164,31.501-16.001
	c0-8.838,0-32.006-31.501-16.004C-168.777-176.487-168.777-185.326-168.777-176.487z"/>
<path fill="#D7D03D" d="M-144.776-171.449c0,0,8.259-29.759,27.376,2.623"/>
<path fill="#D7D03D" d="M-90.139-171.449c0,0,8.26-29.759,27.377,2.623"/>
<ellipse fill="#190C0C" cx="-131.088" cy="-176.379" rx="6.061" ry="6.724"/>
<ellipse fill="#190C0C" cx="-76.85" cy="-176.379" rx="6.061" ry="6.724"/>
<path fill="#231F20" d="M52.485,23.376c0,5.338,5.73,9.663,12.805,9.663c7.07,0,12.805-4.324,12.805-9.663
	c0-5.337-5.735-9.664-12.805-9.664C58.215,13.713,52.485,18.04,52.485,23.376z"/>
<polygon fill="#231F20" points="51.168,16.024 52.36,11.724 1.194,0.336 0,4.636 "/>
<polygon fill="#231F20" points="46.35,22.966 46.284,18.537 12.375,18.945 12.442,23.376 "/>
<polygon fill="#231F20" points="134.275,4.286 133.011,0 82.04,12.076 83.302,16.36 "/>
<polygon fill="#231F20" points="118.203,22.966 118.137,18.537 84.228,18.945 84.297,23.376 "/>
</svg>
